<?xml version="1.0" encoding="utf-8"?>
<!-- Generator: Adobe Illustrator 26.3.1, SVG Export Plug-In . SVG Version: 6.00 Build 0)  -->
<svg version="1.1" id="Layer_1" xmlns="http://www.w3.org/2000/svg" xmlns:xlink="http://www.w3.org/1999/xlink" x="0px" y="0px"
	 viewBox="0 0 700 700" style="enable-background:new 0 0 700 700;" xml:space="preserve">
<style type="text/css">
	.st0{fill:#D7DDFD;}
</style>
<path class="st0" d="M22.2,440.7c-9.8-18.7-16.5-36.2-16.2-56c0.2-12.2,0.7-24.4-0.1-36.4c-1.8-26.4,7.4-50.3,16.4-74.2
	c13.3-35.5,34.6-65.7,62-91.4c36.2-33.9,78-59.3,126.9-68.9c25.7-4.9,52.1-6.6,79.6-1.9c32.1,5.5,61,15.7,87.2,33.8
	c9.3,6.4,16.9,16,23.3,25.6c4.2,6.4,8.6,10.5,15.8,10.4c33.2-0.6,63.4,11.9,94.9,19.5c35.3,8.6,66.2,24.8,94.1,45.9
	c23.3,17.7,44.6,39.3,62.4,62.6c14.2,18.6,16,43.8,12.5,67.1c-5.5,37.3-25.1,67.7-51.9,93.6c-17.4,16.8-37.3,28.7-62,30.8
	c-8.2,0.7-11.9,5.9-15.3,12.9c-9,19.2-18.7,38.1-28.2,57c-0.8,1.7-2.4,3.1-3.7,4.6c-5.9,6.3-13.5,12.8-21.7,9.9
	c-8-2.9-10.5-11.9-11-21c-1-18.3-3-36.5-3.7-54.9c-0.4-9.5-4.5-13.1-13.5-12.5c-4,0.2-8.1,0-12.2,0c-29.2,0.1-58-1.8-86.1-11.7
	c-4.3-1.6-11.8,1.1-16,4.2c-32.9,24.8-68.3,42.2-111,39.9c-10.7-0.6-21.7,1.2-32.3-0.5c-10.7-1.7-13.4,5.1-16.2,11.9
	c-5.8,14.5-8.1,30.4-19.5,42.6c-7.2,7.7-12.8,9.9-19.2,1.8c-5.8-7.2-10.3-15.9-13.7-24.5c-3.7-9.3-5.3-19.3-8.3-28.8
	c-5.5-17.2-7.8-18.9-25.9-22.8c-19.7-4.2-37.3-12.7-51.4-27C45.6,469.7,34.2,456,22.2,440.7 M222.3,283.1
	c-7.4,13.1-10.3,27-10.5,42.2c-0.2,13.6,3,40.3,9.3,49.4c21.2,31.2,50.5,53.2,84.5,67.9c50.7,21.9,104.1,32.9,159.3,34.4
	c8.1,0.2,16.2,0.4,24.2-0.1c10.1-0.6,14,3.6,14.4,13.7c0.6,17.6,2.4,35.2,4,52.8c0.2,2.2,1.9,4.2,2.9,6.3c1.7-2.1,3.9-3.9,5.1-6.3
	c8.2-17.5,17.1-34.6,24-52.6c3-7.8,6.8-10.1,14.1-9.9c13.6,0.5,27.1-2.7,38.1-10c12.4-8.3,23.6-18.8,34.1-29.8
	c27.4-28.6,35.5-63.7,31-102c-0.7-6.4-4.9-12.8-8.6-18.6c-16.6-25.8-40.4-44.1-64.6-62c-18.3-13.5-38.8-22.3-59.8-31
	c-33-13.6-67.4-21.7-102.5-25.1c-40.3-4-80.3,1-118.3,15.9C270.5,231.4,242.1,249.7,222.3,283.1 M226.4,416.5
	c-0.7-1.1-1.2-2.3-2.1-3.1c-19.4-22.6-34.6-47-36.5-77.8c-0.1-1.4-3.4-3.7-5.2-3.7c-8.9,0.4-17.8-1.4-26.9,3.4
	c-5.3,2.8-14.1,1.7-16-6.8c-1.7-7.5,1.7-12.4,10.5-13.1c9.5-0.7,19.1-3.1,28.6-3.7c7.6-0.4,11.9-2.2,13.5-10.7
	c1.3-7.1,4.3-14.7,8.9-20.4c4.7-5.8-0.5-7.6-2.5-8.6c-3.4-1.4-7.7-1.2-11.7-1c-18.3,1.2-36.5,2.8-54.9,3.9c-2.9,0.1-8.3-1.2-8.4-2.3
	c-0.5-4.3-0.7-10,1.7-13c2.2-2.9,7.7-4.2,11.9-4.5c21-1.7,42-3.6,63-3.9c11.9-0.1,21.3-3.1,29.7-11.8c13.9-14.5,29.8-25.9,48.7-33.4
	c5.7-2.2,11.1-8.1,14.2-13.6c10-17.7,1.6-39.2-16.3-51c-18.3-12.2-39.2-10.7-57.2-6.9c-39.4,8.6-76.6,25.1-107.1,52.8
	c-30.9,28-57.6,59.2-71.5,99.6c-7.5,21.7-14.8,43.3-14.5,66.7c0.2,14.4,0.7,28.5,3.5,42.8c5.9,30.5,22.2,53.8,45.6,72.5
	c18.1,14.5,39,22.7,62.5,25.1c4.9,0.5,11.1,8.3,13.3,14c5.3,14,8.4,28.8,12.5,43.3c0.6,2.2,1.6,4.2,2.3,6.4c1.9-1.9,5.8-4.3,5.4-5.7
	c-3.1-12.1,6.6-20.4,8.9-30.9c4-17.7,13.3-21.1,30.9-15.7c1.2,0.4,2.5,0.5,3.7,0.8c21.8,8.1,40.5,2.5,56.3-13.6
	c15.1-15.6,12.4-35.8-5.3-47.9C253.4,436.1,240.9,427.2,226.4,416.5L226.4,416.5z M62.6,149.7c6,5.1,4.9,9.6,0.4,13.7
	c-17.5,15.7-28.7,35.7-39.4,56.1c-3.3,6.2-7.7,10.3-12.8,9.3C3.4,227.5,0,217,4.6,210c11.7-18.1,24.6-35.3,36.5-53.3
	C46.3,149.1,53.3,149.5,62.6,149.7L62.6,149.7z M627.6,508.5c8.6-7.2,15.6-14.1,23.8-19.3c4.3-2.8,11.2-4.1,16-2.9
	c4,1.1,9,5.5,2.8,12.2c-13.1,13.7-26.7,26.4-45.1,32.7c-1.2,0.4-2.1,2.4-3,2.4c-6.9-0.7-16.6,3.9-19.8-4.6
	c-3.1-8.4,7.1-10.9,12.1-15.1C617.5,511.3,622.5,510.9,627.6,508.5L627.6,508.5z M507.4,153.7c-2.9,10.1-7.1,13-16.6,10.1
	c-11.5-3.5-23.6-4.8-35.6-5.9c-7.7-0.7-13.1-2.7-12.3-11.3c0.6-7.1,5.4-9.8,12.3-9.2C473.4,139,492.1,138.9,507.4,153.7L507.4,153.7
	z M286,581.2c-0.1-5.9-0.5-11.7,1.9-15.6c3.9-6.2,10.6-6,14.4,0.1c1.9,3.3,1.8,10.5-0.5,13C298.6,582.2,293.6,588.7,286,581.2
	L286,581.2z M256.7,570.1c-1.2,13.4-9.5,6.3-14.6,7.6c0.2-4-0.7-8.9,1.2-11.9C248.6,557.5,252.7,564.3,256.7,570.1L256.7,570.1z
	 M689.3,452.9c4.1,4.5,6,8.8,8.1,13.3c-3.4,1-6.8,2.9-10,2.8C678.9,468.6,678.9,464.6,689.3,452.9L689.3,452.9z M438.7,275
	c25.3-0.4,47.4,6.8,69.7,12.2c2.4,0.6,6.3,0.7,6.9,2.3c2.1,4.5,3.5,9.5,3.7,14.5c0,1-6.2,3.5-9.3,3.3c-11.6-0.8-23.2-2.2-34.7-3.9
	c-24.6-3.9-49.1-8.7-73.8-11.8c-27.7-3.5-55.6-5.8-83.6-8.1c-6-0.5-11.3-1.8-11.9-7.5c-0.2-2.7,4.9-6.4,8.3-8.8
	c11.3-8.2,24.4-3.4,36.7-3.9c8.1-0.2,16.3,2.9,24.6,3.6c18.9,1.7,38,2.7,56.9,4.3C433.8,271.3,435.2,273.7,438.7,275L438.7,275z
	 M503.3,368c-3.5-1.3-4.8-3.7-6.4-3.9c-16.9-1.6-33.8-2.7-50.7-4.3c-6.3-0.6-12.3-2.8-18.5-3.9c-7-1.3-11.8-6.2-8.8-12.1
	c1.9-3.9,9.5-6.3,14.7-6.8c6.9-0.5,13.9,1.7,20.9,2.5c25.7,2.8,51.5,5.4,77.2,8.2c1.7,0.2,3.4,1.7,4.8,2.9
	c3.9,3.6,7.5,7.4,11.2,11.1c-5.3,4.6-8.7,12.2-18,10.3C521.8,370.4,513.6,369.3,503.3,368L503.3,368z M305.3,323.5
	c20.6,5.7,39.7,3.5,58.6,4.3c6,0.2,12.4,2.7,17.5,5.8c1.9,1.2,2.3,9.3,0.4,11c-3.6,3.4-11.1,7.7-14,6.2c-12.3-6.6-24.8-1.1-37-3
	c-12.1-1.8-24.4-2.3-36.2-4.9c-11.9-2.8-12.8-7.2-3.5-15C294.2,325.3,299.1,324.9,305.3,323.5L305.3,323.5z M535.6,416.5
	c-6.3,11.6-15.4,13.4-25.9,12.2c-11.5-1.4-22.9-3.3-34.5-3.9c-7-0.4-11.7-2.4-12.2-9.5c-0.7-8.7,4.7-11.2,12.5-11
	c17.6,0.6,35.5-2.2,52.5,4.2C530.9,409.6,533.1,412.5,535.6,416.5L535.6,416.5z M539.7,303.4c2.3-2.7,4.8-4.2,7-3.9
	c3.1,0.5,6.2,2.4,9.2,3.6c-1.8,3.9-3,8.2-5.7,11.2c-0.7,0.8-6.3-1.9-9-3.9C540,309.7,540.1,307.1,539.7,303.4L539.7,303.4z
	 M104.1,324.6c9.6-11.5,12.4,0.5,17.5,3.4c-2.5,3.7-6.3,11-7.6,10.5C108.3,336.6,100.6,334.8,104.1,324.6z"/>
</svg>
