<svg width="202" height="202" viewBox="0 0 202 202" fill="none" xmlns="http://www.w3.org/2000/svg">
<path d="M110.463 143.737C91.3223 143.737 75.744 128.16 75.744 109.018C75.744 89.8755 91.3208 74.2988 110.463 74.2988C129.605 74.2988 145.182 89.8755 145.182 109.018C145.182 128.16 129.605 143.737 110.463 143.737ZM110.463 78.3242C93.5424 78.3242 79.7679 92.0925 79.7679 109.019C79.7679 125.94 93.5362 139.714 110.463 139.714C127.383 139.714 141.158 125.946 141.158 109.019C141.158 92.0986 127.39 78.3242 110.463 78.3242Z" fill="#409F97"/>
<path d="M88.235 111.022H86.0317C84.9182 111.022 84.0286 110.114 84.0286 109.019C84.0286 107.917 84.9359 107.016 86.0317 107.016H88.235C89.3485 107.016 90.238 107.923 90.238 109.019C90.238 110.12 89.3308 111.022 88.235 111.022Z" fill="#409F97"/>
<path d="M135.608 111.022H133.404C132.291 111.022 131.401 110.114 131.401 109.019C131.401 107.917 132.309 107.016 133.404 107.016H135.608C136.721 107.016 137.611 107.923 137.611 109.019C137.611 110.12 136.703 111.022 135.608 111.022Z" fill="#409F97"/>
<path d="M110.828 135.801C109.714 135.801 108.825 134.894 108.825 133.798V131.595C108.825 130.481 109.732 129.592 110.828 129.592C111.93 129.592 112.831 130.499 112.831 131.595V133.798C112.831 134.912 111.924 135.801 110.828 135.801Z" fill="#409F97"/>
<path d="M110.828 88.4458C109.714 88.4458 108.825 87.5385 108.825 86.4427V84.2394C108.825 83.1259 109.732 82.2363 110.828 82.2363C111.93 82.2363 112.831 83.1436 112.831 84.2394V86.4427C112.831 87.5562 111.924 88.4458 110.828 88.4458Z" fill="#409F97"/>
<path d="M127.177 101.826C126.741 100.801 125.563 100.335 124.537 100.771L115.353 104.724C114.163 103.369 112.425 102.491 110.481 102.491C109.774 102.491 109.108 102.627 108.46 102.839L96.9951 87.1673C96.3471 86.2777 95.0805 86.0833 94.1908 86.7313C93.3012 87.3794 93.1068 88.646 93.7548 89.5357L105.202 105.189C104.418 106.262 103.953 107.569 103.953 108.989C103.953 112.577 106.881 115.505 110.469 115.505C114.057 115.505 116.985 112.577 116.985 108.989C116.985 108.795 116.937 108.595 116.926 108.4L126.128 104.447C127.153 104.011 127.619 102.821 127.183 101.808L127.177 101.826ZM110.469 111.511C109.096 111.511 107.965 110.398 107.965 109.007C107.965 107.617 109.079 106.503 110.469 106.503C111.859 106.503 112.973 107.617 112.973 109.007C112.973 110.398 111.859 111.511 110.469 111.511Z" fill="#409F97"/>
<path d="M117.527 66.7595V62.447C119.925 61.7105 121.675 59.5072 121.675 56.8678C121.675 53.6394 119.053 51 115.807 51H105.132C101.903 51 99.2641 53.6217 99.2641 56.8678C99.2641 59.5072 101.014 61.7105 103.412 62.447V66.7772C86.4625 69.6403 72.3758 82.6601 68.6053 99.8038C68.3638 100.888 69.059 101.96 70.143 102.202C71.227 102.425 72.2992 101.748 72.5407 100.664C76.4172 83.0014 92.3706 70.1997 110.469 70.1997C131.884 70.1997 149.305 87.621 149.305 109.036C149.305 130.451 131.884 147.872 110.469 147.872C92.3706 147.872 76.4168 135.052 72.5407 117.408C72.2991 116.324 71.2269 115.629 70.143 115.87C69.0589 116.112 68.3755 117.184 68.6053 118.268C72.8883 137.757 90.4924 151.903 110.458 151.903C134.095 151.903 153.324 132.673 153.324 109.055C153.324 87.822 137.806 70.1595 117.522 66.7947L117.527 66.7595ZM105.144 55.0239H115.819C116.832 55.0239 117.657 55.8546 117.657 56.8621C117.657 57.8754 116.826 58.7003 115.819 58.7003H105.144C104.13 58.7003 103.305 57.8696 103.305 56.8621C103.305 55.8488 104.136 55.0239 105.144 55.0239ZM107.453 66.2884V62.7299H113.515V66.2884C112.52 66.2118 111.512 66.1705 110.481 66.1705C109.468 66.1705 108.461 66.2177 107.447 66.2884H107.453Z" fill="#409F97"/>
<path d="M70.5725 111.022H34.6757C33.5622 111.022 32.6727 110.114 32.6727 109.019C32.6727 107.917 33.5799 107.016 34.6757 107.016H70.5725C71.6859 107.016 72.5755 107.923 72.5755 109.019C72.5755 110.12 71.6682 111.022 70.5725 111.022Z" fill="#409F97"/>
<path d="M64.4039 98.6555H41.0856C39.9721 98.6555 39.0826 97.7482 39.0826 96.6525C39.0826 95.5508 39.9898 94.6494 41.0856 94.6494H64.4039C65.5174 94.6494 66.407 95.5567 66.407 96.6525C66.407 97.7542 65.4997 98.6555 64.4039 98.6555Z" fill="#409F97"/>
<path d="M64.4039 123.388H41.0856C39.9721 123.388 39.0826 122.481 39.0826 121.385C39.0826 120.283 39.9898 119.382 41.0856 119.382H64.4039C65.5174 119.382 66.407 120.289 66.407 121.385C66.407 122.487 65.4997 123.388 64.4039 123.388Z" fill="#409F97"/>
</svg>
