<svg width="202" height="202" viewBox="0 0 202 202" fill="none" xmlns="http://www.w3.org/2000/svg">
<path fill-rule="evenodd" clip-rule="evenodd" d="M81.6902 61.1639C81.6902 60.2209 82.4547 59.4584 83.406 59.4584H85.1568H85.151C86.1023 59.4584 86.8668 60.2209 86.8668 61.1639C86.8668 62.1069 86.1022 62.8753 85.151 62.8753H83.406C82.9507 62.8753 82.513 62.6948 82.192 62.3747C81.8711 62.0545 81.6902 61.618 81.6902 61.1639ZM56.7411 62.8811H76.4207C77.3661 62.8811 78.1365 62.1127 78.1365 61.1697C78.1365 60.2267 77.3661 59.4584 76.4207 59.4584H56.7411C55.7956 59.4584 55.0253 60.2268 55.0253 61.1697C55.0253 62.1128 55.7957 62.8811 56.7411 62.8811ZM69.0612 73.3533C69.0612 74.2963 69.8315 75.0646 70.7769 75.0646H101.429C101.896 75.0763 102.345 74.9016 102.678 74.5815C103.01 74.2555 103.197 73.8131 103.197 73.3532C103.197 72.8875 103.01 72.4451 102.678 72.1249C102.345 71.8048 101.896 71.6302 101.429 71.6418H70.7709C69.8255 71.6418 69.061 72.4044 69.0552 73.3473L69.0612 73.3533ZM56.7411 75.0588H63.9545C64.8824 75.0297 65.6178 74.273 65.6178 73.3475C65.6178 72.4219 64.8825 71.6652 63.9545 71.6419H56.7411C56.28 71.6244 55.8307 71.7991 55.498 72.1192C55.1653 72.4452 54.9728 72.8876 54.9728 73.3475C54.9728 73.8132 55.1654 74.2556 55.498 74.5758C55.8307 74.8959 56.28 75.0705 56.7411 75.0588ZM55.7373 87.2425H133.958C134.904 87.2425 135.674 86.4741 135.674 85.5311C135.674 84.5881 134.904 83.8198 133.958 83.8198H55.7313C54.7858 83.8198 54.0155 84.5882 54.0155 85.5311C54.0155 86.4742 54.7859 87.2425 55.7313 87.2425H55.7373ZM55.7373 99.4262H114.035C114.98 99.4262 115.751 98.6578 115.751 97.7148C115.751 96.7718 114.98 96.0035 114.035 96.0035H55.7328C54.7873 96.0035 54.017 96.7718 54.017 97.7148C54.017 98.6578 54.7874 99.4262 55.7328 99.4262H55.7373ZM79.0758 120.371H55.7313C54.7858 120.371 54.0155 121.14 54.0155 122.082C54.0155 123.026 54.7859 123.788 55.7313 123.788H79.0758C80.0212 123.788 80.7857 123.025 80.7857 122.082C80.7857 121.139 80.0212 120.371 79.0758 120.371ZM126.582 137.597C125.812 138.056 125.216 138.458 124.738 138.778C123.886 139.349 123.588 139.535 123.296 139.552C122.287 139.413 121.306 139.127 120.384 138.703C117.764 137.684 116.293 137.824 115.219 138.301C114.297 132.288 113.725 130.96 112.173 130.722H112.167C111.262 130.6 110.393 131.106 110.054 131.95C108.397 135.373 106.465 138.726 103.541 140.036C103.115 140.216 102.782 140.554 102.613 140.985C102.444 141.415 102.45 141.893 102.642 142.312C102.829 142.731 103.179 143.057 103.617 143.214C104.049 143.377 104.527 143.354 104.947 143.156C107.755 141.712 110.036 139.43 111.472 136.624C111.63 137.515 111.811 138.639 112.021 140.065C112.067 140.356 112.097 140.6 112.126 140.763C112.138 141.706 112.908 142.463 113.853 142.463C114.705 142.457 115.534 142.178 116.211 141.666C116.672 141.351 117.075 141.083 119.147 141.893C123.238 143.488 124.23 143.261 126.669 141.613C127.142 141.299 127.661 140.944 128.344 140.536V140.53C129.144 140.041 129.401 139.005 128.922 138.202C128.438 137.399 127.405 137.125 126.593 137.597H126.582ZM172.775 144.687L168.229 149.221C166.659 150.776 164.132 150.776 162.568 149.221L153.761 140.449C152.845 139.535 152.43 138.225 152.652 136.945L150.096 134.395V161.062C150.096 161.516 149.915 161.953 149.594 162.273C149.273 162.593 148.835 162.774 148.38 162.774H138.902V172.233C138.902 172.687 138.721 173.118 138.4 173.438C138.079 173.764 137.647 173.945 137.192 173.945H30.8936C29.9481 173.945 29.1778 173.176 29.1778 172.233V40.932C29.1778 39.9832 29.9482 39.2206 30.8936 39.2206H40.3715V29.767C40.3715 28.824 41.136 28.0557 42.0814 28.0557H125.766C126.221 28.0557 126.659 28.2361 126.98 28.5563L149.595 51.1196C149.916 51.4398 150.097 51.8763 150.097 52.3304V92.8746C155.607 96.3149 159.523 101.798 160.982 108.115C162.441 114.437 161.32 121.073 157.877 126.568L160.474 129.159H160.468C160.69 129.118 160.918 129.101 161.145 129.101C162.207 129.095 163.229 129.52 163.976 130.271L172.771 139.043V139.037C174.335 140.603 174.335 143.124 172.776 144.69L172.775 144.687ZM155.832 129.36C155.383 129.89 154.916 130.408 154.414 130.908C153.918 131.409 153.393 131.875 152.862 132.323L154.554 134.005L157.519 131.048L155.832 129.36ZM151.992 98.718C145.952 92.6989 136.877 90.9002 128.991 94.1601C121.101 97.4141 115.959 105.092 115.959 113.609C115.959 122.119 121.101 129.797 128.991 133.058C136.876 136.312 145.952 134.513 151.992 128.494C160.221 120.269 160.221 106.948 151.992 98.718ZM127.481 50.6125H144.243L127.481 33.8938V50.6125ZM135.477 162.781H42.0806C41.1352 162.781 40.3707 162.018 40.3707 161.069V42.6497H32.6087V170.523H135.477V162.781ZM146.664 159.364V136.119C140.782 138.611 134.158 138.716 128.199 136.416C122.241 134.117 117.414 129.588 114.753 123.79H85.398C84.4526 123.79 83.6822 123.028 83.6822 122.085C83.6822 121.142 84.4526 120.373 85.398 120.373H113.488C112.851 118.173 112.536 115.897 112.536 113.603C112.536 112.934 112.571 112.27 112.624 111.607H55.7335C55.2724 111.624 54.8231 111.449 54.4904 111.129C54.1577 110.803 53.9652 110.361 53.9652 109.901C53.9652 109.435 54.1578 108.993 54.4904 108.673C54.8231 108.353 55.2724 108.178 55.7335 108.19H113.138C114.749 101.117 119.417 95.127 125.89 91.8271C132.368 88.5206 139.972 88.2529 146.66 91.0936V54.0305H125.767C124.822 54.0305 124.057 53.2679 124.057 52.325V31.4799H43.7986V159.364H146.664ZM156.183 138.03L158.436 140.277L163.805 134.921L161.552 132.674H161.558C161.331 132.453 160.963 132.453 160.735 132.674L156.189 137.209C155.961 137.436 155.961 137.809 156.189 138.036L156.183 138.03ZM170.347 141.447L166.233 137.343L160.864 142.699L164.984 146.808C165.212 147.029 165.573 147.029 165.801 146.808L170.347 142.274H170.353C170.575 142.041 170.575 141.68 170.353 141.453L170.347 141.447ZM148.463 102.23C153.073 106.829 154.456 113.745 151.958 119.752C149.466 125.76 143.589 129.678 137.071 129.678C130.546 129.678 124.669 125.76 122.177 119.752C119.679 113.745 121.062 106.829 125.672 102.23C131.976 95.967 142.171 95.9728 148.463 102.242V102.23ZM128.094 104.658C124.464 108.279 123.379 113.721 125.34 118.454C127.306 123.181 131.934 126.266 137.064 126.266C142.2 126.266 146.828 123.181 148.789 118.454C150.756 113.721 149.67 108.279 146.04 104.658C143.671 102.265 140.438 100.921 137.065 100.921C133.697 100.921 130.464 102.265 128.094 104.658ZM135.559 116.83H138.582L139.516 105.665H139.51C139.521 105.217 139.346 104.78 139.025 104.454C138.704 104.134 138.267 103.959 137.811 103.971H136.317C135.868 103.959 135.424 104.134 135.103 104.454C134.782 104.774 134.607 105.217 134.619 105.665L135.559 116.83ZM137.064 118.367C136.347 118.367 135.699 118.797 135.419 119.467C135.144 120.13 135.302 120.893 135.81 121.4C136.317 121.906 137.088 122.057 137.747 121.784C138.413 121.504 138.85 120.858 138.844 120.142C138.844 119.158 138.051 118.367 137.064 118.367Z" fill="#409F97"/>
</svg>
