<?xml version="1.0" encoding="utf-8"?>
<!-- Generator: Adobe Illustrator 26.3.1, SVG Export Plug-In . SVG Version: 6.00 Build 0)  -->
<svg version="1.1" id="Layer_1" xmlns="http://www.w3.org/2000/svg" xmlns:xlink="http://www.w3.org/1999/xlink" x="0px" y="0px"
	 viewBox="0 0 700 700" style="enable-background:new 0 0 700 700;" xml:space="preserve">
<style type="text/css">
	.st0{fill:#BF9B30;}
</style>
<g>
	<path class="st0" d="M404.1,362.9c-4.1,0-7.4,3.3-7.4,7.4v136.8H99c-11.7,0-23,4.4-31.5,12.5V208.7c0-44.6,28.1-57,42.2-60.4V480
		c0,4.1,3.3,7.4,7.4,7.4c4.1,0,7.4-3.3,7.4-7.4V147h179.2c4.1,0,7.4-3.3,7.4-7.4c0-4.1-3.3-7.4-7.4-7.4H117c-0.1,0-0.1,0-0.2,0
		s-0.1,0-0.2,0c-0.6,0-64,3.9-64,76.4l0,344.7c0,12.3,4.9,24,13.6,32.7c8.7,8.7,20.4,13.6,32.7,13.6h37.1v45.5
		c0,2.8,1.6,5.4,4.1,6.6c2.5,1.3,5.5,1,7.7-0.7l35.3-26.6l35.3,26.6c2.2,1.7,5.2,2,7.7,0.7c2.5-1.3,4.1-3.8,4.1-6.6v-84.4h138.1
		c1.1,8.9,4.9,17.3,10.7,24.2H255.1c-4.1,0-7.4,3.3-7.4,7.4c0,4.1,3.3,7.4,7.4,7.4h149c3.7,0,6.9-2.8,7.3-6.5
		c0.5-3.7-1.9-7.2-5.5-8.1c-9-2.9-16.4-9.5-20.2-18.1c-3.9-8.6-3.9-18.5,0-27.2c3.8-8.6,11.2-15.3,20.2-18.2
		c0.2-0.1,0.4-0.1,0.7-0.2c0.2-0.1,0.4-0.1,0.6-0.2c0.3-0.1,0.6-0.3,0.8-0.4c0.1-0.1,0.3-0.1,0.4-0.2c0.8-0.5,1.4-1.2,1.9-1.9
		c0.1-0.1,0.2-0.3,0.2-0.4c0.2-0.2,0.3-0.5,0.4-0.8c0.1-0.2,0.1-0.4,0.2-0.5c0.1-0.3,0.2-0.5,0.2-0.8c0-0.2,0.1-0.4,0.1-0.6
		c0-0.3,0.1-0.6,0.1-0.8c0-0.1,0-0.2,0-0.2l0-144.2C411.5,366.2,408.2,362.9,404.1,362.9L404.1,362.9z M215.6,630.4l-27.9-21
		c-2.6-2-6.2-2-8.9,0l-27.9,21v-69.6h64.8L215.6,630.4z M368.5,546L117,546c-4.1,0-7.4,3.3-7.4,7.4c0,4.1,3.3,7.4,7.4,7.4h19.1v24.2
		H99c-11.3,0-21.7-6-27.3-15.8c-5.6-9.8-5.6-21.8,0-31.5c5.6-9.8,16-15.8,27.3-15.8h280.3C373.4,528.6,369.6,537,368.5,546
		L368.5,546z"/>
	<path class="st0" d="M609.4,47.5H375.3c-10.1,0-19.7,4-26.8,11.1c-7.1,7.1-11.1,16.7-11.1,26.8v220.4c0,10,4,19.7,11.1,26.8
		c7.1,7.1,16.7,11.1,26.8,11.1H485v76.6c0,3,1.8,5.7,4.6,6.8c2.8,1.1,5.9,0.5,8-1.6l81.7-81.8h30.1c10.1,0,19.7-4,26.8-11.1
		c7.1-7.1,11.1-16.7,11.1-26.8V85.4c0-10-4-19.7-11.1-26.8C629.1,51.5,619.4,47.5,609.4,47.5L609.4,47.5z M632.6,305.8
		c0,6.1-2.4,12-6.8,16.4c-4.3,4.3-10.2,6.8-16.4,6.8h-33.2c-2,0-3.8,0.8-5.2,2.2l-71.3,71.4v-66.2c0-2-0.8-3.8-2.2-5.2
		c-1.4-1.4-3.3-2.2-5.2-2.2h-117c-6.1,0-12-2.4-16.4-6.8c-4.3-4.3-6.8-10.2-6.8-16.4V85.4c0-6.1,2.4-12,6.8-16.4
		c4.3-4.3,10.2-6.8,16.4-6.8h234.1c6.1,0,12,2.4,16.4,6.8c4.3,4.3,6.8,10.2,6.8,16.4L632.6,305.8z"/>
	<path class="st0" d="M487.6,142.5c-3.6-1.5-7.6-1.9-11.4-1.1c-3.8,0.8-7.3,2.7-10,5.5l-19.4,19.7H423c-5.6,0-11,2.2-14.9,6.2
		c-4,4-6.2,9.3-6.2,14.9v39.6c0,5.6,2.2,11,6.2,14.9c4,4,9.3,6.2,14.9,6.2h23.8l19.4,19.7l0,0c3.7,3.7,8.6,5.8,13.9,5.8
		c5.2,0,10.2-2,13.9-5.7c3.7-3.7,5.8-8.7,5.8-13.9v-93.7c0-3.9-1.1-7.7-3.3-10.9C494.3,146.4,491.2,143.9,487.6,142.5L487.6,142.5z
		 M485,254.2c0,2-1.2,3.7-3,4.5c-1.8,0.7-3.9,0.3-5.3-1.1l-21.5-21.9c-1.4-1.4-3.3-2.2-5.3-2.2H423c-3.5,0-6.4-2.9-6.4-6.4v-39.6
		c0-3.5,2.9-6.4,6.4-6.4h26.9c2,0,3.9-0.8,5.3-2.2l21.5-21.9c1.4-1.4,3.5-1.8,5.3-1.1c1.8,0.7,3,2.5,3,4.5L485,254.2z"/>
	<path class="st0" d="M520.4,185.1c-3.6,1.8-5.1,6.3-3.3,9.9c3.9,7.8,3.9,17,0,24.8c-0.9,1.7-1.1,3.8-0.4,5.7
		c0.6,1.9,1.9,3.4,3.7,4.3c1.8,0.9,3.8,1,5.7,0.4c1.9-0.6,3.4-2,4.3-3.7c6-12,6-26,0-38C528.5,184.8,524.1,183.3,520.4,185.1
		L520.4,185.1z"/>
	<path class="st0" d="M546.8,172.8c-3.6,1.8-5.1,6.3-3.3,9.9c7.8,15.5,7.8,33.8,0,49.4c-0.9,1.8-1.1,3.8-0.4,5.7
		c0.6,1.9,1.9,3.4,3.7,4.3c1.8,0.9,3.8,1,5.7,0.4s3.4-2,4.3-3.7c9.8-19.7,9.8-42.9,0-62.6C554.9,172.5,550.5,171,546.8,172.8
		L546.8,172.8z"/>
	<path class="st0" d="M574.4,159.9c-1.7,0.9-3.1,2.4-3.7,4.3c-0.6,1.9-0.5,3.9,0.4,5.6c11.8,23.6,11.8,51.5,0,75.1
		c-1.8,3.6-0.3,8.1,3.3,9.9c3.6,1.8,8.1,0.4,9.9-3.3c13.9-27.8,13.9-60.5,0-88.4C582.5,159.6,578.1,158.1,574.4,159.9L574.4,159.9z"
		/>
</g>
</svg>
