<?xml version="1.0" encoding="utf-8"?>
<!-- Generator: Adobe Illustrator 26.3.1, SVG Export Plug-In . SVG Version: 6.00 Build 0)  -->
<svg version="1.1" id="Layer_1" xmlns="http://www.w3.org/2000/svg" xmlns:xlink="http://www.w3.org/1999/xlink" x="0px" y="0px"
	 viewBox="0 0 700 700" style="enable-background:new 0 0 700 700;" xml:space="preserve">
<style type="text/css">
	.st0{fill:#BF9B30;}
</style>
<g>
	<path class="st0" d="M214.7,432c9.2,63.4,64.4,111.2,128.5,110.9H355h0.4c63.9,0,119-47.6,128.2-110.9
		c9.5-65.6-22.7-102.1-51.1-134.3c-16.6-18.7-32.2-36.4-37.3-57.8c-0.9-3.8-4.7-6.3-8.5-5.6c-3.9,0.7-6.6,4.2-6.2,8.1
		c1.9,18.6-7,33.1-14.4,41.9c-16-81.7-60.8-123.4-62.8-125.2c-2.6-2.3-6.4-2.6-9.3-0.6c-2.9,2-4,5.7-2.7,8.9
		c9.7,24.6-9,61.3-30.8,103.8C235.3,320.6,206.7,376.7,214.7,432L214.7,432z M352.7,525.8h-0.2h-6.6h-0.2
		c-30.3,0-56.4-22.6-60.7-52.5c-4-27.5,11.3-57.4,24.7-83.7c8.1-15.9,15.6-30.4,18.6-43.6c7.7,12,16.7,30.5,20.3,55.3
		c0.4,2.6,2.1,4.8,4.5,5.8c2.4,1,5.2,0.7,7.3-0.8c0.5-0.4,8.2-6,13.5-16c4.1,5.8,8.9,11.3,13.6,16.6c15.7,17.8,30.6,34.6,26,66.3
		C409.1,503.2,383,525.8,352.7,525.8L352.7,525.8z M308.6,188.1c15.2,20.5,37.2,58.2,45.1,112.4c0.4,2.6,2.1,4.8,4.5,5.8
		c2.4,1,5.2,0.7,7.3-0.8c1-0.7,18.3-13.5,26.3-35.6c7.9,13.2,18.5,25.2,29.5,37.7c27.5,31.2,56,63.5,47.5,122.2
		c-5.2,36-27.3,66.2-57.5,83.3c8.8-10.5,14.8-23.4,16.9-37.7c5.6-38.5-13.9-60.6-29.6-78.3c-9.1-10.3-17.6-19.9-20.3-31.2
		c-0.9-3.8-4.7-6.3-8.5-5.6c-3.9,0.7-6.6,4.2-6.2,8.1c0.6,6.1-1,11.3-3.3,15.4c-10.3-42.3-33.7-64.1-34.8-65.1
		c-2.6-2.3-6.4-2.6-9.3-0.6c-2.9,2-4,5.7-2.7,8.9c4.9,12.5-5.8,33.6-17.2,55.9c-14.5,28.3-30.9,60.4-26.2,92.6
		c2.1,14.3,8.2,27.3,17,37.8c-30.3-17-52.5-47.3-57.7-83.4c-7.3-50.6,20.1-104.4,44.4-151.9C291,244.3,306.5,214.1,308.6,188.1
		L308.6,188.1z"/>
	<path class="st0" d="M526.3,245.8c1.4,2.4,3.9,3.7,6.5,3.7c1.3,0,2.6-0.3,3.7-1l69-39.8c3.6-2.1,4.8-6.6,2.7-10.2
		c-2.1-3.6-6.7-4.8-10.2-2.7l-69,39.8C525.4,237.7,524.2,242.2,526.3,245.8L526.3,245.8z"/>
	<path class="st0" d="M641.4,340.3h-79.7c-4.1,0-7.5,3.3-7.5,7.5c0,4.1,3.3,7.5,7.5,7.5l79.7,0c4.1,0,7.5-3.3,7.5-7.5
		C648.8,343.6,645.5,340.3,641.4,340.3z"/>
	<path class="st0" d="M606.6,487.1l-69-39.8c-3.6-2.1-8.1-0.8-10.2,2.7c-2.1,3.6-0.8,8.1,2.7,10.2l69,39.8c1.2,0.7,2.5,1,3.7,1
		c2.6,0,5.1-1.3,6.5-3.7C611.4,493.7,610.2,489.2,606.6,487.1L606.6,487.1z"/>
	<path class="st0" d="M171,462.2c3.6-2.1,4.8-6.6,2.7-10.2c-2.1-3.6-6.6-4.8-10.2-2.7l-69,39.8c-3.6,2.1-4.8,6.6-2.7,10.2
		c1.4,2.4,3.9,3.7,6.5,3.7c1.3,0,2.6-0.3,3.7-1L171,462.2z"/>
	<path class="st0" d="M145.8,350c0-4.1-3.3-7.5-7.5-7.5H58.6c-4.1,0-7.5,3.3-7.5,7.5c0,4.1,3.3,7.5,7.5,7.5h79.7
		C142.5,357.5,145.8,354.1,145.8,350L145.8,350z"/>
	<path class="st0" d="M100.9,197.7c-3.6-2.1-8.1-0.8-10.2,2.7c-2.1,3.6-0.8,8.1,2.7,10.2l69,39.8c1.2,0.7,2.5,1,3.7,1
		c2.6,0,5.1-1.3,6.5-3.7c2.1-3.6,0.8-8.1-2.7-10.2L100.9,197.7z"/>
</g>
</svg>
