<?xml version="1.0" encoding="UTF-8"?><svg id="Layer_2" xmlns="http://www.w3.org/2000/svg" viewBox="0 0 82.31 82.31"><defs><style>.cls-1{font-family:PingFangTC-Regular-B5pc-H, 'PingFang TC';font-size:14px;}.cls-1,.cls-2{fill:#fff;}.cls-3{fill:#f5ca7f;}</style></defs><g id="Layer_3"><g><g><circle class="cls-3" cx="41.16" cy="41.16" r="41.16"/><path class="cls-2" d="M53.06,27.97v-3.68c0-2.18-1.79-3.97-3.97-3.97h-5.29c-1.02,0-1.94,.4-2.64,1.03-.7-.63-1.63-1.03-2.64-1.03h-5.29c-2.18,0-3.97,1.79-3.97,3.97v3.68c-.81,.73-1.32,1.77-1.32,2.94v7.93h2.64v-2.64h21.16v2.64h2.64v-7.93c0-1.16-.52-2.21-1.32-2.94Zm-9.26-5h5.29c.73,0,1.32,.6,1.32,1.32v2.64h-7.93v-2.64c0-.73,.6-1.32,1.32-1.32Zm-11.9,1.32c0-.73,.6-1.32,1.32-1.32h5.29c.73,0,1.32,.6,1.32,1.32v2.64h-7.93v-2.64Zm-1.32,9.26v-2.64c0-.73,.6-1.32,1.32-1.32h18.51c.73,0,1.32,.6,1.32,1.32v2.64H30.58Z"/></g><text class="cls-1" transform="translate(27.16 61.29)"><tspan x="0" y="0">酒店</tspan></text></g></g></svg>