<?xml version="1.0" encoding="UTF-8"?><svg id="Layer_2" xmlns="http://www.w3.org/2000/svg" viewBox="0 0 82.31 82.31"><defs><style>.cls-1{font-family:PingFangTC-Regular-B5pc-H, 'PingFang TC';font-size:14px;}.cls-1,.cls-2{fill:#fff;}.cls-3{fill:#233a71;}</style></defs><g id="Layer_3"><g><circle class="cls-3" cx="41.16" cy="41.16" r="41.16"/><path class="cls-2" d="M35.78,31.18l3.62-3.62-8.98-8.96c-1.99,1.99-1.99,5.23,0,7.24l5.36,5.34Zm8.67-2.31c1.96,.91,4.71,.27,6.74-1.76,2.44-2.44,2.92-5.95,1.04-7.83-1.87-1.87-5.37-1.41-7.83,1.04-2.03,2.03-2.67,4.78-1.76,6.74l-12.48,12.48,1.8,1.8,8.81-8.78,8.8,8.8,1.8-1.8-8.8-8.8,1.88-1.88Z"/><text class="cls-1" transform="translate(27.16 61.29)"><tspan x="0" y="0">餐廳</tspan></text></g></g></svg>