<?xml version="1.0" encoding="UTF-8"?><svg id="Layer_2" xmlns="http://www.w3.org/2000/svg" viewBox="0 0 82.31 82.31"><defs><style>.cls-1{font-family:PingFangTC-Regular-B5pc-H, 'PingFang TC';font-size:14px;}.cls-1,.cls-2{fill:#954135;}.cls-3{fill:#fff;}</style></defs><g id="Layer_3"><g><circle class="cls-3" cx="41.16" cy="41.16" r="41.16"/><g><g><path class="cls-2" d="M41.16,20.14v-3.44l-4.58,4.58,4.58,4.58v-3.44c3.79,0,6.87,3.08,6.87,6.87,0,3.4-2.48,6.22-5.73,6.77v2.31c4.52-.56,8.02-4.41,8.02-9.08,0-5.06-4.1-9.16-9.16-9.16Z"/><path class="cls-2" d="M34.28,29.3c0-1.89,.77-3.61,2.02-4.86l-1.63-1.63c-1.65,1.66-2.68,3.95-2.68,6.48,0,4.67,3.49,8.52,8.02,9.08v-2.31c-3.24-.55-5.73-3.37-5.73-6.77Z"/></g><text class="cls-1" transform="translate(13.16 62.36)"><tspan x="0" y="0">重新開始</tspan></text></g></g></g></svg>