<?xml version="1.0" encoding="UTF-8"?><svg id="Layer_2" xmlns="http://www.w3.org/2000/svg" viewBox="0 0 82.31 82.31"><defs><style>.cls-1{fill:none;}.cls-2{font-family:PingFangTC-Regular-B5pc-H, 'PingFang TC';font-size:14px;}.cls-2,.cls-3{fill:#fff;}.cls-4{fill:#d1684d;}</style></defs><g id="Layer_3"><g><g><circle class="cls-4" cx="41.16" cy="41.16" r="41.16"/><g><rect class="cls-1" x="25.83" y="15.95" width="30.64" height="30.64"/><path class="cls-3" d="M50.09,19.78h-17.88c-1.42,0-2.55,1.15-2.55,2.55v17.88c0,1.4,1.14,2.55,2.55,2.55h17.88c1.4,0,2.55-1.15,2.55-2.55V22.34c0-1.4-1.14-2.55-2.55-2.55Zm0,20.43h-17.88v-15.32h17.88v15.32Zm-7.02-7.66c0,1.06-.86,1.92-1.92,1.92s-1.92-.86-1.92-1.92,.86-1.92,1.92-1.92,1.92,.86,1.92,1.92Zm-1.92-5.11c-3.49,0-6.46,2.12-7.66,5.11,1.2,2.99,4.18,5.11,7.66,5.11s6.46-2.12,7.66-5.11c-1.2-2.99-4.18-5.11-7.66-5.11Zm0,8.3c-1.76,0-3.19-1.43-3.19-3.19s1.43-3.19,3.19-3.19,3.19,1.43,3.19,3.19-1.43,3.19-3.19,3.19Z"/></g></g><text class="cls-2" transform="translate(27.16 63.45)"><tspan x="0" y="0">檢視</tspan></text></g></g></svg>