<svg width="120" height="120" viewBox="0 0 120 120" fill="none" xmlns="http://www.w3.org/2000/svg">
<path d="M83.6105 49.7744V42.4797C83.6105 38.6112 80.4052 35.0744 76.5368 34.9639C74.8789 34.9639 73.4421 35.406 72.3368 36.2902C71.0105 34.6323 69.021 33.527 66.7 33.527C65.1526 33.527 63.8263 33.9691 62.6105 34.8534C61.2842 33.0849 59.1842 31.8691 56.8631 31.8691C54.5421 31.8691 52.4421 33.0849 51.1158 34.8534C49.4579 33.6376 47.1368 33.1955 44.8158 33.8586C41.8316 34.8534 39.8421 37.8376 39.8421 41.0428V47.6744C37.3 49.2218 35.421 51.8744 34.9789 54.9691L33.7631 64.5849C33.1 69.7797 34.6474 74.9744 38.0737 78.8428L46.5842 88.4586V93.9849H45.3684C43.9316 93.9849 42.7158 95.2007 42.7158 96.6376V109.348C42.7158 110.785 43.9316 112.001 45.3684 112.001H77.6421C79.0789 112.001 80.2947 110.785 80.2947 109.348V96.6376C80.2947 95.2007 79.0789 93.9849 77.6421 93.9849H76.4263V88.4586L77.421 87.7955C82.2842 84.8112 85.1579 79.6165 85.2684 73.8691C85.3789 68.0112 85.0474 59.6112 83.2789 51.8744C83.3895 51.3218 83.6105 50.5481 83.6105 49.7744ZM73.7737 42.1481C73.7737 40.6007 74.9895 39.4955 76.4263 39.4955C77.8631 39.4955 79.0789 40.7112 79.0789 42.1481V49.7744C79.0789 51.2112 77.8631 52.427 76.4263 52.427C74.9895 52.427 73.7737 51.2112 73.7737 49.7744V42.1481ZM63.9368 40.7112C63.9368 39.2744 65.1526 38.0586 66.5895 38.0586C68.0263 38.0586 69.2421 39.2744 69.2421 40.7112V51.1007C69.2421 52.6481 68.0263 53.7534 66.5895 53.7534C65.1526 53.7534 63.9368 52.5376 63.9368 51.1007V40.7112ZM54.1 39.0534C54.1 37.6165 55.3158 36.4007 56.7526 36.4007C58.1895 36.4007 59.4052 37.6165 59.4052 39.0534V47.1218C58.521 46.6797 57.6368 46.4586 56.6421 46.4586H54.1V39.0534ZM44.2631 40.7112C44.2631 39.2744 45.4789 38.0586 46.9158 38.0586C48.3526 38.0586 49.5684 39.2744 49.5684 40.7112V46.3481L45.0368 46.2376C44.8158 46.2376 44.4842 46.2376 44.2631 46.2376V40.7112ZM71.3421 106.143C69.5737 106.143 68.1368 104.706 68.1368 102.938C68.1368 101.169 69.5737 99.7323 71.3421 99.7323C73.1105 99.7323 74.5474 101.169 74.5474 102.938C74.5474 104.706 73.1105 106.143 71.3421 106.143ZM80.7368 73.8691C80.7368 78.0691 78.5263 81.827 74.9895 84.0376L72.8895 85.3639C72.2263 85.806 71.7842 86.4691 71.7842 87.2428V93.9849H51.0052V87.6849C51.0052 87.1323 50.7842 86.5797 50.4526 86.1376L41.3895 75.8586C38.8474 72.9849 37.6316 69.006 38.1842 65.1376L39.4 55.5218C39.7316 52.7586 42.1631 50.7691 45.0368 50.7691L56.6421 50.9902C58.0789 50.9902 59.1842 52.206 59.1842 53.6428C59.1842 54.4165 58.8526 55.0797 58.4105 55.5218C57.8579 56.0744 57.1947 56.2955 56.5316 56.2955L48.5737 55.9639C47.4684 55.8534 46.4737 56.7376 46.2526 57.8428L45.3684 62.8165C45.1474 64.0323 46.0316 65.2481 47.2474 65.3586C48.4631 65.5797 49.6789 64.6955 49.7895 63.4797L50.2316 60.9376C58.0789 64.5849 57.5263 72.3218 57.5263 72.6534C57.4158 73.8691 58.3 74.9744 59.5158 75.0849H59.7368C60.8421 75.0849 61.8368 74.2007 61.9474 73.0955C62.2789 70.0007 61.3947 64.6955 57.4158 60.606C58.9631 60.3849 60.2895 59.7218 61.5052 58.727C62.0579 58.2849 62.3895 57.6218 62.721 57.0691C63.8263 57.8428 65.2631 58.2849 66.7 58.2849C69.021 58.2849 71.0105 57.1797 72.3368 55.5218C73.5526 56.406 74.9895 56.9586 76.5368 56.9586C77.6421 56.9586 78.6368 56.7376 79.6316 56.1849C80.5158 62.4849 80.7368 69.1165 80.7368 73.8691Z" fill="#409F97"/>
<path d="M60.4005 19.4895C61.6163 19.4895 62.611 18.4947 62.611 17.2789V9.21053C62.611 7.99474 61.6163 7 60.4005 7C59.1847 7 58.1899 7.99474 58.1899 9.21053V17.2789C58.1899 18.4947 59.1847 19.4895 60.4005 19.4895Z" fill="#409F97"/>
<path d="M38.4051 23.8003C38.8472 24.574 39.6209 24.9056 40.3946 24.9056C40.7262 24.9056 41.1683 24.7951 41.4999 24.574C42.6051 23.9108 42.9367 22.5845 42.2736 21.4793L38.2946 14.6266C37.6315 13.5214 36.3051 13.1898 35.1999 13.853C34.0946 14.5161 33.763 15.8424 34.4262 16.9477L38.4051 23.8003Z" fill="#409F97"/>
<path d="M26.8005 35.4056L19.8373 31.4267C18.732 30.7635 17.4057 31.2056 16.7426 32.2003C16.0794 33.3056 16.5215 34.6319 17.5163 35.2951L24.4794 39.274C24.811 39.4951 25.2531 39.6056 25.5847 39.6056C26.3584 39.6056 27.132 39.1635 27.5742 38.5003C28.2373 37.3951 27.9057 36.0688 26.8005 35.4056Z" fill="#409F97"/>
<path d="M22.4895 57.399C22.4895 56.1832 21.4947 55.1885 20.2789 55.1885H12.2105C10.9947 55.1885 10 56.1832 10 57.399C10 58.6148 10.9947 59.6095 12.2105 59.6095H20.2789C21.4947 59.6095 22.4895 58.6148 22.4895 57.399Z" fill="#409F97"/>
<path d="M24.5898 75.5263L17.6266 79.5052C16.5214 80.1684 16.1898 81.4947 16.853 82.6C17.2951 83.3736 18.0687 83.7052 18.8424 83.7052C19.174 83.7052 19.6161 83.5947 19.9477 83.3736L26.9108 79.3947C28.0161 78.7315 28.3477 77.4052 27.6845 76.2999C27.0214 75.3052 25.5845 74.8631 24.5898 75.5263Z" fill="#409F97"/>
<path d="M103.174 79.5052L96.2104 75.5263C95.1051 74.8631 93.7788 75.3052 93.1156 76.2999C92.4525 77.4052 92.8946 78.7315 93.8893 79.3947L100.852 83.3736C101.184 83.5947 101.626 83.7052 101.958 83.7052C102.731 83.7052 103.505 83.2631 103.947 82.6C104.61 81.4947 104.279 80.1684 103.174 79.5052Z" fill="#409F97"/>
<path d="M108.589 55.1885H100.521C99.3053 55.1885 98.3105 56.1832 98.3105 57.399C98.3105 58.6148 99.3053 59.6095 100.521 59.6095H108.589C109.805 59.6095 110.8 58.6148 110.8 57.399C110.8 56.1832 109.805 55.1885 108.589 55.1885Z" fill="#409F97"/>
<path d="M95.1056 39.6051C95.4372 39.6051 95.8793 39.4946 96.2109 39.2736L103.174 35.2946C104.279 34.6315 104.611 33.3051 103.948 32.1999C103.285 31.0946 101.958 30.763 100.853 31.4262L93.8898 35.4051C92.7846 36.0683 92.453 37.3946 93.1161 38.4999C93.5582 39.163 94.3319 39.6051 95.1056 39.6051Z" fill="#409F97"/>
<path d="M85.6004 13.7411C84.4952 13.078 83.1689 13.5201 82.5057 14.5148L78.5268 21.478C77.8636 22.5832 78.3057 23.9095 79.3004 24.5727C79.632 24.7937 80.0741 24.9043 80.4057 24.9043C81.1794 24.9043 81.9531 24.4622 82.3952 23.799L86.3741 16.8358C87.0373 15.7306 86.7057 14.4043 85.6004 13.7411Z" fill="#409F97"/>
</svg>
