<?xml version="1.0" encoding="utf-8"?>
<!-- Generator: Adobe Illustrator 26.3.1, SVG Export Plug-In . SVG Version: 6.00 Build 0)  -->
<svg version="1.1" id="Layer_1" xmlns="http://www.w3.org/2000/svg" xmlns:xlink="http://www.w3.org/1999/xlink" x="0px" y="0px"
	 viewBox="0 0 700 700" style="enable-background:new 0 0 700 700;" xml:space="preserve">
<style type="text/css">
	.st0{fill:#BF9B30;}
</style>
<g>
	<path class="st0" d="M184.5,356.9h-6.9c-3.8,0-6.9-3.1-6.9-6.9c0-3.8,3.1-6.9,6.9-6.9h6.9c3.8,0,6.9,3.1,6.9,6.9
		C191.3,353.8,188.3,356.9,184.5,356.9z"/>
	<path class="st0" d="M332.9,438.6c3.5-2.1,86-53.5,86-102.4c0.6-10.3-2-20.5-7.3-29.4s-13.3-15.7-22.7-19.9
		c-19.1-7.9-41.4-3.1-59.6,12.3c-18.2-15.4-40.6-20.2-59.6-12.3c-9.4,4.2-17.4,11.1-22.7,19.9c-5.4,8.8-7.9,19-7.3,29.4
		c0,48.9,82.5,100.3,86,102.4C327.9,440,330.7,440,332.9,438.6L332.9,438.6z M253.5,336.2c-0.6-7.6,1.3-15.1,5.1-21.6
		c3.8-6.5,9.6-11.7,16.4-14.9c4.3-1.8,9.1-2.7,13.8-2.7c13.6,0.6,26.4,6.5,35.7,16.5c2.7,2.7,7.1,2.7,9.8,0
		c14.9-14.9,33.9-20.2,49.4-13.8c6.9,3.2,12.6,8.4,16.4,14.9c3.8,6.6,5.6,14,5.1,21.6c0,32.6-51.7,72.8-75.9,88.4
		C305.2,409,253.5,368.8,253.5,336.2L253.5,336.2z"/>
	<path class="st0" d="M453.5,350c0-32.9-13.1-64.5-36.3-87.8c-23.3-23.3-54.9-36.3-87.8-36.3s-64.5,13.1-87.8,36.3
		c-23.3,23.3-36.3,54.9-36.3,87.8s13.1,64.5,36.3,87.8c23.3,23.3,54.9,36.3,87.8,36.3c32.9-0.1,64.5-13.1,87.7-36.4
		C440.3,414.4,453.4,382.9,453.5,350L453.5,350z M218.9,350c0-29.3,11.7-57.3,32.3-78c20.7-20.7,48.8-32.3,78-32.3
		c29.3,0,57.3,11.7,78,32.3c20.7,20.7,32.3,48.8,32.3,78c0,29.3-11.7,57.3-32.3,78c-20.7,20.7-48.8,32.3-78,32.3
		c-29.3-0.1-57.3-11.7-78-32.4C230.7,407.3,219,379.3,218.9,350z"/>
	<path class="st0" d="M370.7,163.7h-41.4c-49.4,0-96.8,19.7-131.7,54.5c-35,35-54.5,82.3-54.5,131.7s19.7,96.8,54.5,131.7
		c34.9,34.9,82.3,54.5,131.7,54.5h41.4c49.4,0,96.8-19.7,131.7-54.5C537.3,446.8,557,399.4,557,350s-19.7-96.8-54.5-131.7
		C467.5,183.4,420.1,163.7,370.7,163.7z M534.1,294.8h-26.8c-3.7-12-8.7-23.5-14.7-34.5h25.4C524.6,271.2,530,282.8,534.1,294.8z
		 M507.2,405.2h26.8l0,0c-4.1,12-9.4,23.6-16.1,34.5h-25.4C498.5,428.7,503.5,417.1,507.2,405.2L507.2,405.2z M510.9,391.4
		c2.6-11.3,4.1-22.9,4.5-34.5H543c-0.4,11.7-2.1,23.2-4.9,34.5H510.9z M515.4,343.1c-0.4-11.6-2-23.2-4.5-34.5H538
		c2.8,11.3,4.4,22.9,4.9,34.5H515.4z M508.6,246.5h-24.5c-6.6-9.9-14.2-19.1-22.6-27.6h21.1C492.2,227.2,500.9,236.4,508.6,246.5z
		 M464.1,205.1h-17.9c-11.2-9.1-23.4-16.8-36.3-23.1C429.1,186.6,447.5,194.4,464.1,205.1L464.1,205.1z M156.9,350
		c0-45.7,18.1-89.6,50.5-121.9c32.3-32.3,76.2-50.5,121.9-50.5s89.6,18.1,121.9,50.5c32.3,32.3,50.5,76.2,50.5,121.9
		s-18.1,89.6-50.5,121.9c-32.3,32.3-76.2,50.5-121.9,50.5c-45.7-0.1-89.6-18.3-121.9-50.6C175.1,439.6,157,395.7,156.9,350
		L156.9,350z M446.2,494.9h17.9l0,0c-16.6,10.8-35,18.6-54.2,23.1C422.8,511.6,435,503.9,446.2,494.9L446.2,494.9z M482.6,481.1
		h-21.1c8.4-8.4,15.9-17.7,22.6-27.6h24.5C500.9,463.6,492.2,472.8,482.6,481.1z"/>
	<path class="st0" d="M329.3,212.1c1.8,0,3.6-0.8,4.9-2c1.3-1.3,2-3,2-4.9v-6.9c0-3.8-3.1-6.9-6.9-6.9c-3.8,0-6.9,3.1-6.9,6.9v6.9
		c0,1.8,0.8,3.6,2,4.9C325.6,211.3,327.5,212.1,329.3,212.1z"/>
	<path class="st0" d="M250.9,228c0.9,1.6,2.4,2.8,4.2,3.3c1.8,0.5,3.7,0.3,5.2-0.7c1.6-0.9,2.8-2.5,3.2-4.2c0.4-1.8,0.2-3.7-0.7-5.2
		l-3.5-6c-1.9-3.3-6.1-4.4-9.4-2.5c-3.3,1.9-4.4,6.1-2.5,9.4L250.9,228z"/>
	<path class="st0" d="M194.4,280.1l6,3.5c1.6,0.9,3.5,1.2,5.2,0.7c1.8-0.4,3.3-1.6,4.2-3.2c0.9-1.6,1.1-3.5,0.7-5.2
		c-0.5-1.8-1.6-3.3-3.3-4.2l-6-3.5c-3.3-1.9-7.5-0.8-9.4,2.5C190.1,274,191.2,278.2,194.4,280.1L194.4,280.1z"/>
	<path class="st0" d="M200.4,416.5l-6,3.5c-1.6,0.9-2.8,2.4-3.3,4.2c-0.5,1.8-0.3,3.7,0.7,5.2c0.9,1.6,2.5,2.8,4.2,3.2
		c1.8,0.4,3.7,0.2,5.2-0.7l6-3.5c1.6-0.9,2.8-2.4,3.3-4.2c0.5-1.8,0.3-3.7-0.7-5.2c-0.9-1.6-2.5-2.8-4.2-3.2
		C203.9,415.3,202,415.5,200.4,416.5z"/>
	<path class="st0" d="M260.3,469.5c-1.6-0.9-3.5-1.1-5.2-0.7c-1.8,0.5-3.3,1.6-4.2,3.2l-3.5,6c-0.9,1.6-1.2,3.5-0.7,5.2
		c0.4,1.8,1.6,3.3,3.2,4.2s3.5,1.2,5.2,0.7c1.8-0.5,3.3-1.6,4.2-3.3l3.5-6c0.9-1.6,1.1-3.5,0.7-5.2
		C263.1,471.9,262,470.4,260.3,469.5L260.3,469.5z"/>
	<path class="st0" d="M336.2,501.7v-6.9c0-3.8-3.1-6.9-6.9-6.9c-3.8,0-6.9,3.1-6.9,6.9v6.9c0,3.8,3.1,6.9,6.9,6.9
		C333.1,508.7,336.2,505.6,336.2,501.7z"/>
	<path class="st0" d="M407.7,472c-0.9-1.6-2.4-2.8-4.2-3.3c-1.8-0.5-3.7-0.3-5.2,0.7c-1.6,0.9-2.8,2.5-3.2,4.2
		c-0.4,1.8-0.2,3.7,0.7,5.2l3.5,6c1.9,3.3,6.1,4.4,9.4,2.5c3.3-1.9,4.4-6.1,2.5-9.4L407.7,472z"/>
	<path class="st0" d="M464.2,419.9l-6-3.5c-1.6-0.9-3.5-1.2-5.2-0.7c-1.8,0.4-3.3,1.6-4.2,3.2c-0.9,1.6-1.1,3.5-0.7,5.2
		c0.5,1.8,1.6,3.3,3.3,4.2l6,3.5c3.3,1.9,7.5,0.8,9.4-2.5C468.6,426,467.5,421.8,464.2,419.9L464.2,419.9z"/>
	<path class="st0" d="M474.2,356.9h6.9c3.8,0,6.9-3.1,6.9-6.9c0-3.8-3.1-6.9-6.9-6.9h-6.9c-3.8,0-6.9,3.1-6.9,6.9
		C467.3,353.8,470.4,356.9,474.2,356.9z"/>
	<path class="st0" d="M454.8,284.5c1.2,0,2.4-0.3,3.5-0.9l6-3.5c3.3-1.9,4.4-6.1,2.5-9.4c-1.9-3.3-6.1-4.4-9.4-2.5l-6,3.5
		c-2.7,1.6-4,4.7-3.2,7.7C448.9,282.4,451.7,284.5,454.8,284.5L454.8,284.5z"/>
	<path class="st0" d="M398.3,230.5c1.6,0.9,3.5,1.1,5.2,0.7c1.8-0.5,3.3-1.6,4.2-3.2l3.5-6c1.9-3.3,0.8-7.5-2.5-9.4
		s-7.5-0.8-9.4,2.5l-3.5,6c-0.9,1.6-1.1,3.5-0.7,5.2C395.6,228.1,396.7,229.6,398.3,230.5L398.3,230.5z"/>
</g>
</svg>
