<svg width="80" height="80" viewBox="0 0 80 80" fill="none" xmlns="http://www.w3.org/2000/svg">
<path d="M6.85715 70.8571H7.35544C8.25258 72.912 10.2834 74.2857 12.5714 74.2857C14.8594 74.2857 16.8903 72.912 17.7874 70.8571H21.0709C21.968 72.912 23.9977 74.2857 26.2869 74.2857C28.576 74.2857 30.6057 72.912 31.5029 70.8571H32C32.632 70.8571 33.1429 70.3451 33.1429 69.7143V64C33.1429 63.6217 33.1223 63.2423 33.088 62.8571H70.8571C72.7474 62.8571 74.2857 61.3188 74.2857 59.4286C74.2857 57.5383 72.7474 56 70.8571 56H67.936C68.3291 55.3246 68.5714 54.5508 68.5714 53.7143C68.5714 53.0834 68.0606 52.5714 67.4286 52.5714H65.1429V41.1428C65.1429 40.512 64.632 40 64 40H43.4286C42.7966 40 42.2857 40.512 42.2857 41.1428V52.5714H40C39.368 52.5714 38.8571 53.0834 38.8571 53.7143C38.8571 54.5508 39.0994 55.3246 39.4926 56H30.5291C29.5417 54.6308 28.3383 53.4766 26.9714 52.5714H29.7143C30.3463 52.5714 30.8572 52.0594 30.8572 51.4286V44.1348C31.56 43.3314 32 42.2926 32 41.1428C32 39.704 31.3189 38.4343 30.2766 37.5966C28.8732 33.3028 25.0229 30.2331 20.5714 29.7794V27.2183C21.8983 26.7451 22.8572 25.488 22.8572 24C22.8572 22.1097 21.3189 20.5714 19.4286 20.5714C17.5383 20.5714 16 22.1097 16 24C16 25.488 16.9589 26.7451 18.2857 27.2183V29.7794C13.8332 30.2331 9.98287 33.3028 8.58058 37.5966C7.53829 38.4343 6.85715 39.704 6.85715 41.1428C6.85715 42.2914 7.29715 43.3303 8.00001 44.1348V51.4286C8.00001 52.0594 8.51087 52.5714 9.14287 52.5714H11.864C8.16229 55.0297 5.71429 59.2331 5.71429 64V69.7143C5.71429 70.3451 6.22515 70.8571 6.85715 70.8571ZM12.5714 72C11.5783 72 10.6629 71.5668 10.0309 70.8571H15.1109C14.48 71.5668 13.5646 72 12.5714 72ZM26.2857 72C25.2926 72 24.3772 71.5668 23.7452 70.8571H28.8252C28.1943 71.5668 27.2789 72 26.2857 72ZM72 59.4286C72 60.0583 71.488 60.5714 70.8571 60.5714H31.7829H27.4286C26.7977 60.5714 26.2857 60.0583 26.2857 59.4286C26.2857 58.7988 26.7977 58.2857 27.4286 58.2857H29.9577H43.4286H64H70.8571C71.488 58.2857 72 58.7988 72 59.4286ZM44.5714 42.2857H62.8571V52.5714H61.7143V44.5714C61.7143 43.9406 61.2034 43.4286 60.5714 43.4286H46.8571C46.2251 43.4286 45.7143 43.9406 45.7143 44.5714V52.5714H44.5714V42.2857ZM59.4286 52.5714H48V45.7143H59.4286V52.5714ZM41.4503 54.8571H43.4286H46.8571H60.5714H64H65.9783C65.5829 55.5394 64.8446 56 64 56H43.4286C42.584 56 41.8446 55.5394 41.4503 54.8571ZM17.1429 50.2857V48H21.7143V50.2857H17.1429ZM28.9497 42.8331C28.7371 43.024 28.4983 43.1714 28.2423 43.272C28.224 43.2788 28.2057 43.2823 28.1874 43.2891C28.0777 43.3291 27.9669 43.3634 27.8537 43.3851C27.7154 43.4114 27.5737 43.4286 27.4286 43.4286C26.168 43.4286 25.1429 42.4034 25.1429 41.1428C25.1429 39.8823 26.168 38.8571 27.4286 38.8571C27.6286 38.8571 27.8263 38.8914 28.0183 38.944C28.0594 38.9554 28.0983 38.968 28.1383 38.9817C28.3246 39.0434 28.5074 39.1223 28.6754 39.232C28.6777 39.2331 28.68 39.2343 28.6823 39.2354C29.3029 39.6446 29.7143 40.3451 29.7143 41.1428C29.7143 41.8068 29.4252 42.4 28.9714 42.8183C28.9646 42.824 28.9566 42.8263 28.9497 42.8331ZM19.4286 22.8571C20.0594 22.8571 20.5714 23.3703 20.5714 24C20.5714 24.6297 20.0594 25.1428 19.4286 25.1428C18.7977 25.1428 18.2857 24.6297 18.2857 24C18.2857 23.3703 18.7977 22.8571 19.4286 22.8571ZM11.0034 43.3851C10.8903 43.3623 10.7783 43.328 10.6697 43.288C10.6514 43.2811 10.6332 43.2777 10.6149 43.2708C10.36 43.1703 10.12 43.0217 9.90744 42.832C9.90058 42.8263 9.89258 42.8228 9.88572 42.8171C9.43201 42.4 9.14287 41.8068 9.14287 41.1428C9.14287 40.3451 9.55429 39.6446 10.1749 39.2354C10.1772 39.2343 10.1794 39.2343 10.1817 39.232C10.3497 39.1223 10.5326 39.0434 10.7189 38.9817C10.7589 38.9691 10.7977 38.9554 10.8389 38.944C11.0309 38.8914 11.2286 38.8571 11.4286 38.8571C12.6892 38.8571 13.7143 39.8823 13.7143 41.1428C13.7143 42.4034 12.6892 43.4286 11.4286 43.4286C11.2834 43.4286 11.1417 43.4114 11.0034 43.3851ZM10.2857 45.5668C10.3269 45.5771 10.3692 45.5817 10.4103 45.5908C10.4823 45.6068 10.5543 45.6206 10.6263 45.6331C10.8903 45.6811 11.1577 45.7143 11.4286 45.7143C13.9497 45.7143 16 43.664 16 41.1428C16 40.8297 15.968 40.5234 15.9074 40.2286C15.8857 40.1246 15.8434 40.0286 15.8149 39.9268C15.7634 39.7406 15.7177 39.552 15.6434 39.376C15.5943 39.2583 15.5223 39.1531 15.4629 39.04C15.3863 38.8926 15.3177 38.7406 15.2252 38.6034C15.1497 38.4903 15.0537 38.3931 14.9692 38.288C14.872 38.1668 14.7829 38.04 14.6732 37.9291C14.5749 37.8286 14.4594 37.7474 14.3509 37.6571C14.2366 37.5611 14.1292 37.456 14.0046 37.3714C13.8869 37.2914 13.7554 37.232 13.6309 37.1623C13.4994 37.0891 13.3749 37.008 13.2366 36.9474C13.1052 36.8903 12.9634 36.8571 12.8263 36.8126C12.68 36.7657 12.5394 36.7086 12.3874 36.6754C12.2457 36.6457 12.0972 36.64 11.952 36.624C11.8069 36.6068 11.6674 36.5748 11.5189 36.5726C13.1269 33.8023 16.1337 32 19.4286 32C22.7234 32 25.7303 33.8023 27.3394 36.5726C27.1909 36.576 27.0503 36.608 26.9063 36.624C26.7611 36.6411 26.6114 36.6457 26.4709 36.6754C26.3189 36.7074 26.1783 36.7646 26.032 36.8114C25.8949 36.856 25.752 36.8891 25.6206 36.9463C25.4823 37.0057 25.3577 37.088 25.2274 37.16C25.1017 37.2297 24.9703 37.2891 24.8526 37.3703C24.7292 37.4548 24.6206 37.56 24.5063 37.656C24.3989 37.7463 24.2823 37.8286 24.1829 37.928C24.0743 38.0377 23.9851 38.1657 23.8869 38.2868C23.8011 38.392 23.7063 38.4891 23.6309 38.6023C23.5394 38.7383 23.4732 38.888 23.3966 39.0331C23.336 39.1474 23.264 39.2548 23.2137 39.3748C23.1406 39.5486 23.096 39.7348 23.0446 39.9188C23.016 40.0228 22.9714 40.12 22.9497 40.2274C22.8891 40.5234 22.8572 40.8297 22.8572 41.1428C22.8572 43.664 24.9074 45.7143 27.4286 45.7143C27.6994 45.7143 27.9669 45.6811 28.2297 45.6331C28.3029 45.6206 28.3749 45.6068 28.4457 45.5908C28.4869 45.5817 28.5292 45.5771 28.5703 45.5668V50.2857H23.9989V46.8571C23.9989 46.2263 23.488 45.7143 22.856 45.7143H15.9989C15.3669 45.7143 14.856 46.2263 14.856 46.8571V50.2857H10.2857V45.5668ZM8.00001 64C8.00001 57.6983 13.1269 52.5714 19.4286 52.5714C22.536 52.5714 25.4537 53.8228 27.5829 56H27.4286C25.5383 56 24 57.5383 24 59.4286C24 61.3188 25.5383 62.8571 27.4286 62.8571H30.7943C30.8366 63.2457 30.8572 63.624 30.8572 64V68.5714H30.6949H21.8754H16.9806H8.16229H8.00001V64Z" fill="#F4EBEA"/>
<path d="M28.5714 28.5714H41.1429C41.1429 30.4617 42.6811 32 44.5714 32H46.1509L48.1211 35.9394C48.2983 36.2937 48.6469 36.5314 49.0411 36.5669C49.0743 36.5703 49.1097 36.5714 49.1429 36.5714C49.5006 36.5714 49.84 36.4034 50.0571 36.1143L53.1429 32H70.8571C72.7474 32 74.2857 30.4617 74.2857 28.5714V9.14287C74.2857 7.25258 72.7474 5.71429 70.8571 5.71429H44.5714C42.6811 5.71429 41.1429 7.25258 41.1429 9.14287V12.5714H35.4286C33.5383 12.5714 32 14.1097 32 16C32 17.8903 33.5383 19.4286 35.4286 19.4286H41.1429V21.7143H28.5714C26.6811 21.7143 25.1429 23.2526 25.1429 25.1429C25.1429 27.0332 26.6811 28.5714 28.5714 28.5714ZM28.5714 24H42.2857C42.9177 24 43.4286 23.488 43.4286 22.8572V18.2857C43.4286 17.6549 42.9177 17.1429 42.2857 17.1429H35.4286C34.7977 17.1429 34.2857 16.6297 34.2857 16C34.2857 15.3703 34.7977 14.8572 35.4286 14.8572H42.2857C42.9177 14.8572 43.4286 14.3452 43.4286 13.7143V9.14287C43.4286 8.51315 43.9406 8.00001 44.5714 8.00001H70.8571C71.488 8.00001 72 8.51315 72 9.14287V28.5714C72 29.2012 71.488 29.7143 70.8571 29.7143H52.5714C52.2126 29.7143 51.8731 29.8834 51.6571 30.1714L49.3383 33.264L47.88 30.3463C47.6857 29.9589 47.2903 29.7143 46.8571 29.7143H44.5714C43.9406 29.7143 43.4286 29.2012 43.4286 28.5714V27.4286C43.4286 26.7977 42.9177 26.2857 42.2857 26.2857H28.5714C27.9406 26.2857 27.4286 25.7726 27.4286 25.1429C27.4286 24.5132 27.9406 24 28.5714 24Z" fill="#F4EBEA"/>
<path d="M69.7143 10.2857H45.7143V12.5714H69.7143V10.2857Z" fill="#F4EBEA"/>
<path d="M69.7143 14.8572H45.7143V17.1429H69.7143V14.8572Z" fill="#F4EBEA"/>
<path d="M51.4286 19.4286H45.7143V21.7143H51.4286V19.4286Z" fill="#F4EBEA"/>
<path d="M58.2857 19.4286H53.7143V21.7143H58.2857V19.4286Z" fill="#F4EBEA"/>
<path d="M29.6137 7.27887C28.864 7.46173 28.1234 7.70516 27.4137 8.00116L28.2949 10.1109C28.8937 9.85944 29.52 9.65373 30.1554 9.4983L29.6137 7.27887Z" fill="#F4EBEA"/>
<path d="M26.5543 11.0057L25.3554 9.05945C24.7006 9.46288 24.072 9.92116 23.4857 10.4229L24.9726 12.16C25.4674 11.7349 26 11.3463 26.5543 11.0057Z" fill="#F4EBEA"/>
<path d="M23.5863 13.5463L21.8491 12.0605C21.3474 12.648 20.8869 13.2765 20.4857 13.9303L22.432 15.1291C22.7726 14.576 23.1611 14.0434 23.5863 13.5463Z" fill="#F4EBEA"/>
<path d="M18.7063 18.1908L20.9269 18.7303C21.08 18.1017 21.2846 17.4765 21.5372 16.8708L19.4286 15.9897C19.1292 16.7051 18.8869 17.4457 18.7063 18.1908Z" fill="#F4EBEA"/>
</svg>
