<svg width="90" height="90" viewBox="0 0 90 90" fill="none" xmlns="http://www.w3.org/2000/svg">
<path d="M67.359 72.1978C67.9035 71.4598 68.1981 70.5672 68.2 69.6501V66.7501C68.2 65.5964 67.7417 64.49 66.9259 63.6742C66.1102 62.8584 65.0037 62.4001 63.85 62.4001H62.1332C61.9478 61.8805 61.6648 61.4012 61.2995 60.9878C63.2926 59.3527 64.9295 57.3264 66.1091 55.0341L72.1991 56.5566C72.3139 56.5851 72.4317 56.5997 72.55 56.6001C72.9036 56.5993 73.2447 56.4695 73.5092 56.2349C73.7737 56.0003 73.9433 55.6771 73.9863 55.3262C74.0292 54.9752 73.9424 54.6207 73.7423 54.3293C73.5422 54.0378 73.2424 53.8295 72.8995 53.7436L67.2242 52.3255C67.861 50.4317 68.1904 48.4481 68.2 46.4501V46.1311L72.9009 44.9566C73.2662 44.8564 73.5778 44.6173 73.769 44.2904C73.9603 43.9635 74.016 43.5747 73.9243 43.2072C73.8327 42.8397 73.6008 42.5227 73.2784 42.3239C72.956 42.1251 72.5686 42.0604 72.1991 42.1436L68.1174 43.1586C67.8589 39.9802 66.9493 36.889 65.445 34.0772C67.2314 31.5364 68.1932 28.5078 68.2 25.4018V20.35C68.2002 20.1328 68.1516 19.9183 68.0577 19.7224C67.9639 19.5264 67.8272 19.3541 67.6578 19.2181C67.4884 19.0821 67.2906 18.9859 67.079 18.9366C66.8674 18.8874 66.6474 18.8862 66.4354 18.9334L59.7161 20.4283C59.6436 20.4443 59.5711 20.4733 59.5 20.4907V20.35C59.4983 19.3632 59.1611 18.4062 58.5437 17.6363C57.9264 16.8664 57.0656 16.3293 56.1027 16.1131L54.5961 13.1H60.95C62.1037 13.1 63.2102 12.6417 64.0259 11.8259C64.8417 11.0102 65.3 9.90371 65.3 8.75002C65.3 7.59632 64.8417 6.48988 64.0259 5.6741C63.2102 4.85831 62.1037 4.40001 60.95 4.40001C60.2699 4.40488 59.6005 4.57085 58.9969 4.88431L53.555 2.55561C51.9328 1.85769 50.1851 1.49848 48.4191 1.50001H47.8594C45.0592 1.48827 42.3304 2.38257 40.0803 4.04936C37.8302 5.71616 36.1796 8.06603 35.3749 10.7481L33.7248 16.1668C32.8028 16.4137 31.9875 16.957 31.4048 17.7129C30.822 18.4689 30.5041 19.3955 30.5 20.35V20.495C30.4275 20.4776 30.355 20.4486 30.2854 20.4327L23.5646 18.9377C23.3529 18.8907 23.1333 18.8917 22.9221 18.9407C22.7108 18.9898 22.5133 19.0856 22.3439 19.2211C22.1746 19.3566 22.0378 19.5284 21.9437 19.7238C21.8495 19.9191 21.8004 20.1332 21.8 20.35V25.4018C21.8091 28.5085 22.7734 31.5372 24.5622 34.0772C23.0532 36.8897 22.1405 39.9832 21.8812 43.1644L17.8009 42.1494C17.4313 42.0662 17.044 42.1309 16.7216 42.3297C16.3992 42.5285 16.1673 42.8455 16.0757 43.213C15.984 43.5805 16.0397 43.9693 16.231 44.2962C16.4222 44.6231 16.7338 44.8622 17.0991 44.9624L21.8 46.1311V46.4501C21.8091 48.448 22.1381 50.4316 22.7744 52.3255L17.0991 53.7436C16.756 53.8296 16.4562 54.038 16.256 54.3296C16.0559 54.6212 15.9693 54.9758 16.0124 55.3269C16.0555 55.6779 16.2254 56.0011 16.4902 56.2356C16.755 56.4701 17.0963 56.5997 17.45 56.6001C17.5687 56.5998 17.687 56.5852 17.8023 56.5566L23.8923 55.0341C25.1914 57.585 27.0544 59.8065 29.34 61.5301L30.5 62.4001H26.15C24.9963 62.4001 23.8898 62.8584 23.0741 63.6742C22.2583 64.49 21.8 65.5964 21.8 66.7501V69.6501C21.8023 70.5658 22.0958 71.457 22.6381 72.1949C20.5457 74.0621 18.8724 76.3513 17.7283 78.9117C16.5842 81.4721 15.9952 84.2457 16 87.0501C16 87.4347 16.1527 87.8035 16.4247 88.0754C16.6966 88.3474 17.0654 88.5001 17.45 88.5001H72.55C72.9346 88.5001 73.3034 88.3474 73.5753 88.0754C73.8473 87.8035 74 87.4347 74 87.0501C74.0019 84.2463 73.4112 81.4738 72.2667 78.9143C71.1222 76.3547 69.4498 74.0659 67.359 72.1978ZM65.3 66.7501V69.6501C65.3 70.0347 65.1473 70.4035 64.8753 70.6754C64.6034 70.9473 64.2346 71.1001 63.85 71.1001H62.4V65.3001H63.85C64.2346 65.3001 64.6034 65.4529 64.8753 65.7248C65.1473 65.9967 65.3 66.3655 65.3 66.7501ZM53.7 76.9001V63.8501C53.7 63.4655 53.8528 63.0967 54.1247 62.8248C54.3966 62.5529 54.7654 62.4001 55.15 62.4001H58.05C58.4346 62.4001 58.8034 62.5529 59.0753 62.8248C59.3473 63.0967 59.5 63.4655 59.5 63.8501V76.9001H53.7ZM60.3439 23.2602L65.3 22.1582V25.4018C65.2948 27.4878 64.7562 29.5378 63.7355 31.357C62.2609 29.3241 60.4661 27.5441 58.4212 26.0862C59.0465 25.368 59.4166 24.4631 59.4739 23.5125C59.7639 23.4255 60.0496 23.324 60.3439 23.2602ZM62.4 8.75002C62.4 9.0368 62.315 9.31714 62.1557 9.5556C61.9963 9.79405 61.7699 9.9799 61.5049 10.0896C61.24 10.1994 60.9484 10.2281 60.6671 10.1722C60.3859 10.1162 60.1275 9.97811 59.9247 9.77532C59.7219 9.57254 59.5838 9.31417 59.5279 9.0329C59.4719 8.75163 59.5007 8.46008 59.6104 8.19513C59.7201 7.93017 59.906 7.70371 60.1444 7.54438C60.3829 7.38506 60.6632 7.30002 60.95 7.30002C61.3346 7.30002 61.7034 7.45278 61.9753 7.72471C62.2473 7.99664 62.4 8.36545 62.4 8.75002ZM38.1502 11.592C38.7762 9.50628 40.0599 7.67891 41.8098 6.38271C43.5596 5.08652 45.6818 4.39101 47.8594 4.40001H48.4191C49.794 4.39819 51.1548 4.67696 52.4182 5.21926L56.9132 7.14632C56.5113 8.12155 56.4947 9.21302 56.8668 10.2H53.1461L52.105 8.10187C51.9331 7.75768 51.6315 7.49588 51.2666 7.37406C50.9017 7.25223 50.5033 7.28037 50.1591 7.45227C49.8149 7.62417 49.5531 7.92575 49.4313 8.29068C49.3095 8.65561 49.3376 9.05398 49.5095 9.39817L50.9595 12.2982L52.8039 16H36.8075L38.1502 11.592ZM33.4 20.35C33.4 19.9655 33.5527 19.5967 33.8247 19.3247C34.0966 19.0528 34.4654 18.9 34.85 18.9H55.15C55.5346 18.9 55.9034 19.0528 56.1753 19.3247C56.4473 19.5967 56.6 19.9655 56.6 20.35V23.25C56.6 23.6346 56.4473 24.0034 56.1753 24.2753C55.9034 24.5473 55.5346 24.7 55.15 24.7H34.85C34.4654 24.7 34.0966 24.5473 33.8247 24.2753C33.5527 24.0034 33.4 23.6346 33.4 23.25V20.35ZM24.7 25.4018V22.1582L29.6561 23.2602C29.9533 23.3254 30.2361 23.4284 30.5261 23.5168C30.583 24.4666 30.9532 25.3707 31.5788 26.0877C29.5338 27.5454 27.7386 29.3249 26.2631 31.357C25.2429 29.5377 24.7048 27.4877 24.7 25.4018ZM31.08 59.2101C29.3339 57.8861 27.8797 56.2162 26.8083 54.3047L29.4023 53.6566C29.7676 53.5564 30.0792 53.3173 30.2704 52.9904C30.4617 52.6635 30.5174 52.2747 30.4257 51.9072C30.3341 51.5397 30.1022 51.2227 29.7798 51.0239C29.4574 50.8252 29.07 50.7604 28.7005 50.8436L25.5859 51.6222C25.0579 50.0887 24.7679 48.4833 24.7261 46.8619L28.7005 47.8566C28.8149 47.885 28.9322 47.8996 29.05 47.9001C29.4035 47.8993 29.7446 47.7694 30.0091 47.5348C30.2736 47.3002 30.4433 46.9771 30.4862 46.6261C30.5291 46.2752 30.4424 45.9207 30.2422 45.6292C30.0421 45.3378 29.7424 45.1295 29.3994 45.0436L24.7362 43.8836C24.9281 40.5698 25.9255 37.3528 27.6419 34.5117C29.3583 31.6706 31.742 29.2912 34.5861 27.5797C34.6745 27.5797 34.7586 27.6058 34.8485 27.6058H55.15C55.2399 27.6058 55.324 27.5841 55.4125 27.5797C58.2562 29.2916 60.6396 31.6711 62.356 34.5121C64.0724 37.3531 65.07 40.5699 65.2623 43.8836L60.5991 45.0436C60.2561 45.1295 59.9562 45.3379 59.7561 45.6295C59.556 45.9211 59.4693 46.2758 59.5124 46.6269C59.5556 46.9779 59.7255 47.3011 59.9903 47.5356C60.255 47.77 60.5964 47.8997 60.95 47.9001C61.0688 47.8998 61.1871 47.8852 61.3024 47.8566L65.2768 46.8619C65.235 48.4833 64.945 50.0887 64.417 51.6222L61.3024 50.8436C60.9329 50.7604 60.5455 50.8252 60.2231 51.0239C59.9007 51.2227 59.6688 51.5397 59.5772 51.9072C59.4855 52.2747 59.5412 52.6635 59.7325 52.9904C59.9237 53.3173 60.2353 53.5564 60.6006 53.6566L63.1932 54.3047C62.1222 56.2169 60.6673 57.887 58.92 59.2101L58.4763 59.5436C58.3351 59.5217 58.1928 59.5072 58.05 59.5001H55.15C54.2535 59.5038 53.3801 59.7844 52.6492 60.3035C51.9183 60.8226 51.3656 61.5549 51.0668 62.4001H35.3328L31.08 59.2101ZM24.7 66.7501C24.7 66.3655 24.8527 65.9967 25.1247 65.7248C25.3966 65.4529 25.7654 65.3001 26.15 65.3001H50.8V71.1001H26.15C25.7654 71.1001 25.3966 70.9473 25.1247 70.6754C24.8527 70.4035 24.7 70.0347 24.7 69.6501V66.7501ZM18.9594 85.6001C19.1487 83.3298 19.7931 81.1208 20.854 79.1048C21.915 77.0887 23.3709 75.3068 25.135 73.8653C25.4666 73.951 25.8074 73.9962 26.15 74.0001H50.8V81.2501C50.8 81.6347 50.9528 82.0035 51.2247 82.2754C51.4966 82.5474 51.8654 82.7001 52.25 82.7001C52.6346 82.7001 53.0034 82.5474 53.2753 82.2754C53.5472 82.0035 53.7 81.6347 53.7 81.2501V79.8001H55.15V81.2501C55.15 81.6347 55.3028 82.0035 55.5747 82.2754C55.8466 82.5474 56.2155 82.7001 56.6 82.7001C56.9846 82.7001 57.3534 82.5474 57.6253 82.2754C57.8973 82.0035 58.05 81.6347 58.05 81.2501V79.8001H59.5V81.2501C59.5 81.6347 59.6528 82.0035 59.9247 82.2754C60.1966 82.5474 60.5655 82.7001 60.95 82.7001C61.3346 82.7001 61.7034 82.5474 61.9753 82.2754C62.2473 82.0035 62.4 81.6347 62.4 81.2501V74.0001H63.85C64.1985 73.9967 64.5452 73.9504 64.8824 73.8624C66.641 75.3081 68.092 77.0917 69.1494 79.1078C70.2069 81.1238 70.8495 83.3315 71.0391 85.6001H18.9594Z" fill="#F3B9B3"/>
<path d="M55.1501 45C55.5347 45 55.9035 44.8472 56.1754 44.5753C56.4474 44.3033 56.6001 43.9345 56.6001 43.55V42.0999C56.6001 41.7154 56.4474 41.3466 56.1754 41.0746C55.9035 40.8027 55.5347 40.6499 55.1501 40.6499C54.7656 40.6499 54.3968 40.8027 54.1248 41.0746C53.8529 41.3466 53.7001 41.7154 53.7001 42.0999V43.55C53.7001 43.9345 53.8529 44.3033 54.1248 44.5753C54.3968 44.8472 54.7656 45 55.1501 45Z" fill="#F3B9B3"/>
<path d="M36.3002 42.0999C36.3002 41.7154 36.1474 41.3466 35.8755 41.0746C35.6036 40.8027 35.2347 40.6499 34.8502 40.6499C34.4656 40.6499 34.0968 40.8027 33.8249 41.0746C33.5529 41.3466 33.4002 41.7154 33.4002 42.0999V43.55C33.4002 43.9345 33.5529 44.3033 33.8249 44.5753C34.0968 44.8472 34.4656 45 34.8502 45C35.2347 45 35.6036 44.8472 35.8755 44.5753C36.1474 44.3033 36.3002 43.9345 36.3002 43.55V42.0999Z" fill="#F3B9B3"/>
<path d="M49.3499 59.5001C50.5036 59.5001 51.61 59.0418 52.4258 58.226C53.2416 57.4103 53.6999 56.3038 53.6999 55.1501C53.6999 54.7656 53.5471 54.3967 53.2752 54.1248C53.0033 53.8529 52.6345 53.7001 52.2499 53.7001C51.8653 53.7001 51.4965 53.8529 51.2246 54.1248C50.9527 54.3967 50.7999 54.7656 50.7999 55.1501C50.7999 55.5347 50.6471 55.9035 50.3752 56.1754C50.1033 56.4474 49.7345 56.6001 49.3499 56.6001H47.8999C47.5153 56.6001 47.1465 56.4474 46.8746 56.1754C46.6027 55.9035 46.4499 55.5347 46.4499 55.1501V53.4464C47.6115 53.0221 48.6275 52.2746 49.3782 51.2919C50.1289 50.3092 50.5829 49.1324 50.6868 47.9001C50.6985 47.5432 50.6374 47.1877 50.5072 46.8551C50.3771 46.5226 50.1807 46.22 49.9299 45.9658C48.941 44.9798 47.3851 44.9842 45.5683 44.9987H44.4315C42.5305 44.9813 40.8659 44.9784 39.8379 46.0021C39.5916 46.2517 39.3981 46.5485 39.2691 46.8746C39.14 47.2007 39.078 47.5495 39.0868 47.9001C39.2395 49.1486 39.7383 50.3296 40.527 51.3094C41.3157 52.2893 42.3628 53.029 43.5499 53.4449V55.1501C43.5499 55.5347 43.3971 55.9035 43.1252 56.1754C42.8533 56.4474 42.4844 56.6001 42.0999 56.6001H40.6499C40.2653 56.6001 39.8965 56.4474 39.6246 56.1754C39.3526 55.9035 39.1999 55.5347 39.1999 55.1501C39.1999 54.7656 39.0471 54.3967 38.7752 54.1248C38.5033 53.8529 38.1344 53.7001 37.7499 53.7001C37.3653 53.7001 36.9965 53.8529 36.7246 54.1248C36.4526 54.3967 36.2999 54.7656 36.2999 55.1501C36.2999 56.3038 36.7582 57.4103 37.574 58.226C38.3897 59.0418 39.4962 59.5001 40.6499 59.5001H42.0999C43.1735 59.4964 44.2072 59.0932 44.9999 58.3691C45.7926 59.0932 46.8263 59.4964 47.8999 59.5001H49.3499ZM42.0013 48.0263C42.801 47.9009 43.6115 47.8586 44.4199 47.9001H45.5799C46.3152 47.8669 47.052 47.9013 47.781 48.0031C47.6925 48.9673 46.4165 50.8001 44.9999 50.8001C43.5078 50.8001 42.1463 48.9383 42.0013 48.0263Z" fill="#F3B9B3"/>
</svg>
