<svg width="90" height="90" viewBox="0 0 90 90" fill="none" xmlns="http://www.w3.org/2000/svg">
<path d="M57 24.6C56.5 24.1 56.2 23.5 56.2 22.7C56.2 21.2 57.4 20 58.9 20C60.4 20 61.6 21.2 61.6 22.7C61.6 23.4 61.3 24.1 60.8 24.6H63.3C63.5 24 63.7 23.4 63.7 22.7C63.7 20 61.5 17.8 58.8 17.8C56.1 17.8 53.9 20 53.9 22.7C53.9 23.4 54 24 54.3 24.6H57Z" fill="#81956C"/>
<path d="M57.3 12C55.1 12 53.3 10.2 53.3 8C53.3 5.8 55.1 4 57.3 4C59.5 4 61.3 5.8 61.3 8C61.3 10.2 59.5 12 57.3 12ZM57.3 6.2C56.3 6.2 55.5 7 55.5 8C55.5 9 56.3 9.8 57.3 9.8C58.3 9.8 59.1 9 59.1 8C59.1 7 58.3 6.2 57.3 6.2Z" fill="#81956C"/>
<path d="M26.2 71C26.2 71 27.9 72.7 30.2 75.4C32.3 77.9 32.6 81.7 30.2 84.3C29.1 85.5 27.7 86.1 26.2 86.1C24.8 86.1 23.3 85.5 22.2 84.3C19.8 81.7 20.1 78 22.2 75.4C24.5 72.7 26.2 71 26.2 71Z" fill="#81956C"/>
<path d="M38.5 71C38.5 71 40.2 72.7 42.5 75.4C44.6 77.9 44.9 81.7 42.5 84.3C41.4 85.5 40 86.1 38.5 86.1C37.1 86.1 35.6 85.5 34.5 84.3C32.1 81.7 32.4 78 34.5 75.4C36.8 72.7 38.5 71 38.5 71Z" fill="#81956C"/>
<path d="M50.9 71C50.9 71 52.6 72.7 54.9 75.4C57 77.9 57.3 81.7 54.9 84.3C53.8 85.5 52.4 86.1 50.9 86.1C49.5 86.1 48 85.5 46.9 84.3C44.5 81.7 44.8 78 46.9 75.4C49.2 72.7 50.9 71 50.9 71Z" fill="#81956C"/>
<path d="M63.2 71C63.2 71 64.9 72.7 67.2 75.4C69.3 77.9 69.6 81.7 67.2 84.3C66.1 85.5 64.7 86.1 63.2 86.1C61.8 86.1 60.3 85.5 59.2 84.3C56.8 81.7 57.1 78 59.2 75.4C61.6 72.7 63.2 71 63.2 71Z" fill="#81956C"/>
<path d="M29.1 26.4H30.3C30.2 26.1 30.1 25.7 30 25.4C29.8 25.8 29.5 26.1 29.1 26.4Z" fill="#81956C"/>
<path d="M81.8 23.5H47.3C47.1 24.7 46.5 25.7 45.6 26.5H81.7C82.1 26.5 82.4 26.8 82.4 27.2C82.4 27.6 82.1 27.7 81.8 27.7H75.7V60.6C75.7 63.9 73 66.7 69.6 66.7H19.8C16.5 66.7 13.7 64 13.7 60.6V27.7H7.6C7.2 27.7 6.9 27.4 6.9 27C6.9 26.6 7.2 26.3 7.6 26.3H19.9C19.1 25.5 18.4 24.5 18.1 23.3H7.6C5.6 23.3 4 24.9 4 26.9C4 28.9 5.6 30.7 7.6 30.7H10.7V60.6C10.7 65.6 14.8 69.6 19.7 69.6H69.6C74.6 69.6 78.6 65.5 78.6 60.6V30.7H81.7C83.7 30.7 85.3 29.1 85.3 27.1C85.3 25.1 83.8 23.5 81.8 23.5Z" fill="#81956C"/>
<path d="M48.3 14.2L48.6 11.3C48.7 10.1 47.9 9.1 46.7 8.9C45.5 8.7 44.5 9.6 44.3 10.8L44.1 13.7" fill="#81956C"/>
<path d="M49.4 14.3L47.3 14L47.6 11.1C47.6 10.8 47.6 10.5 47.4 10.3C47.2 10.1 47 9.9 46.7 9.9C46.4 9.9 46.1 9.9 45.9 10.1C45.7 10.3 45.5 10.5 45.5 10.8L45.2 13.7L43.1 13.4L43.4 10.5C43.5 9.6 43.9 8.9 44.6 8.4C45.3 7.9 46.1 7.6 47 7.7C47.9 7.8 48.6 8.2 49.1 8.9C49.6 9.6 49.9 10.4 49.8 11.3L49.4 14.3Z" fill="#81956C"/>
<path d="M26.1 10.8L14.3 9.4C13.4 9.3 12.7 9.9 12.6 10.7C12.5 11.5 13.1 12.3 13.9 12.3L25.1 13.7C25.1 12.6 25.5 11.6 26.1 10.8Z" fill="#81956C"/>
<path d="M78.4 17L40.9 12.5C41.8 13.4 42.4 14.5 42.7 15.7L78.1 19.9C78.2 19.9 78.2 19.9 78.3 19.9C79 19.9 79.7 19.3 79.8 18.6C79.8 17.9 79.2 17.1 78.4 17Z" fill="#81956C"/>
<path d="M43.8 16.9C43.6 12.7 39.9 9.3 35.6 9.6C34.3 8.2 32.5 7.3 30.6 7.3C27 7.3 24.1 10.1 24 13.7C19.9 14 16.7 17.4 16.7 21.5C16.7 23.8 17.7 25.9 19.3 27.3C19.9 27 20.6 26.8 21.3 26.8C23 26.8 24.5 27.8 25.2 29.3C26.8 29.1 28.3 28.5 29.5 27.5C30.5 29.4 32.4 30.6 34.6 30.6C36.6 30.6 38.4 29.6 39.4 28C40.3 28.5 41.3 28.7 42.3 28.7C45.6 28.7 48.3 26 48.3 22.7C48.4 19.9 46.5 17.5 43.8 16.9ZM42.4 26.6C41.4 26.6 40.5 26.2 39.8 25.6L38.6 24.5L38.1 26C37.6 27.5 36.2 28.4 34.7 28.4C32.9 28.4 31.3 27 31.1 25.2L30.9 23.5L32.1 22.3L32.7 21.5L30.1 18.5L30 19.8C30 19.8 30.3 21.2 30 22.5C29.8 23.6 29.1 24.7 29.1 24.7C28 26.2 26.3 27.1 24.5 27.1C21.4 27.1 18.8 24.6 18.8 21.4C18.8 18.2 21.3 15.7 24.5 15.7C24.7 15.7 24.8 15.7 25 15.7L26.4 15.8L26.2 14.7C26.2 14.5 26.1 14.3 26.1 14C26.1 11.5 28.1 9.5 30.6 9.5C32 9.5 33.4 10.2 34.2 11.4L34.6 11.9L35.3 11.8C38.7 11.3 41.7 13.9 41.7 17.2C41.7 17.4 41.7 17.5 41.7 17.7L41.6 18.8L42.7 18.9C44.7 19 46.3 20.7 46.3 22.7C46.3 24.8 44.5 26.6 42.4 26.6Z" fill="#81956C"/>
<path d="M21.4 36.5C18.4 36.5 16 34.1 16 31.1C16 28.1 18.4 25.7 21.4 25.7C24.4 25.7 26.8 28.1 26.8 31.1C26.8 34.1 24.4 36.5 21.4 36.5ZM21.4 27.9C19.6 27.9 18.2 29.4 18.2 31.1C18.2 32.9 19.7 34.3 21.4 34.3C23.1 34.3 24.6 32.8 24.6 31.1C24.6 29.4 23.2 27.9 21.4 27.9Z" fill="#81956C"/>
<path d="M67.8 53.8C65.8 53.8 64.2 52.2 64.2 50.2C64.2 48.2 65.8 46.6 67.8 46.6C69.8 46.6 71.4 48.2 71.4 50.2C71.4 52.2 69.8 53.8 67.8 53.8ZM67.8 48.7C67 48.7 66.3 49.4 66.3 50.2C66.3 51 67 51.7 67.8 51.7C68.6 51.7 69.3 51 69.3 50.2C69.3 49.4 68.6 48.7 67.8 48.7Z" fill="#81956C"/>
<path d="M69.2 45.1H68.9C67.5 45.1 66.3 43.9 66.3 42.5V30.2C66.3 28.8 67.5 27.6 68.9 27.6H69.2C70.6 27.6 71.8 28.8 71.8 30.2V42.6C71.8 44 70.6 45.1 69.2 45.1ZM69 29.7C68.8 29.7 68.6 29.9 68.6 30.1V42.5C68.6 42.7 68.8 42.9 69 42.9H69.3C69.5 42.9 69.7 42.7 69.7 42.5V30.2C69.7 30 69.5 29.8 69.3 29.8H69V29.7Z" fill="#81956C"/>
</svg>
