<svg width="90" height="90" viewBox="0 0 90 90" fill="none" xmlns="http://www.w3.org/2000/svg">
<path d="M63.8434 77.5127H48.2202C37.985 77.5127 29.2698 70.1933 27.4206 60.2449C27.2564 59.3612 27.8396 58.5117 28.7232 58.3475C29.6069 58.1832 30.4564 58.7664 30.6207 59.6501C32.1845 68.0635 39.5602 74.2579 48.2202 74.2579H63.8434C65.2815 74.2579 66.6962 74.0886 68.0675 73.757C68.4825 73.6567 68.9203 73.7234 69.2865 73.9429L79.3578 79.9776C79.7433 80.2086 80.2431 80.0833 80.4741 79.6978C80.5905 79.5034 80.6207 79.2693 80.5572 79.0517L77.6026 68.9226C77.4549 68.4165 77.5616 67.8702 77.8888 67.4569C80.3726 64.3188 81.745 60.4445 81.745 56.3563C81.745 51.1919 79.5483 46.3855 75.7732 43.0088C75.1033 42.4096 75.046 41.3808 75.6452 40.7109C76.2444 40.041 77.2733 39.9837 77.9432 40.5829C82.4015 44.5707 84.9999 50.2559 84.9999 56.3563C84.9999 60.8938 83.5655 65.2161 80.9567 68.7978L83.6818 78.1403C83.9991 79.228 83.8484 80.3988 83.2661 81.3708C82.1111 83.2983 79.6123 83.9245 77.6849 82.7696L68.1717 77.0693C66.7584 77.3632 65.3102 77.5127 63.8434 77.5127Z" fill="#ECD3B5"/>
<path d="M11.4836 61.0989L26.2385 51.3617L27.3271 51.4308C27.7796 51.4596 28.2345 51.474 28.6913 51.474H48.2203C59.9047 51.474 69.3768 42.0019 69.3768 30.3176C69.3768 18.6332 59.9047 9.1611 48.2203 9.1611H28.6913C17.0069 9.1611 7.53484 18.6332 7.53484 30.3176C7.53484 35.4125 9.33784 40.2205 12.5711 44.02L13.6257 45.2592L10.2417 60.2404C10.1929 60.4565 10.2343 60.6831 10.3563 60.8679C10.6038 61.243 11.1085 61.3464 11.4836 61.0989ZM27.1208 54.6791L13.2764 63.8155C11.401 65.0531 8.87732 64.5361 7.63967 62.6607C7.02973 61.7364 6.82288 60.6035 7.06687 59.5233L10.0923 46.1293C6.46745 41.8697 4.28 36.3491 4.28 30.3176C4.28 16.8356 15.2093 5.90627 28.6913 5.90627H48.2203C61.7023 5.90627 72.6316 16.8356 72.6316 30.3176C72.6316 43.7995 61.7023 54.7288 48.2203 54.7288H28.6913C28.1637 54.7288 27.6401 54.7121 27.1208 54.6791Z" fill="#ECD3B5"/>
<path d="M23.8089 22.1804C22.9101 22.1804 22.1814 21.4518 22.1814 20.553C22.1814 19.6542 22.9101 18.9255 23.8089 18.9255H53.9161C54.8149 18.9255 55.5435 19.6542 55.5435 20.553C55.5435 21.4518 54.8149 22.1804 53.9161 22.1804H23.8089Z" fill="#ECD3B5"/>
<path d="M23.8089 31.9449C22.9101 31.9449 22.1814 31.2163 22.1814 30.3175C22.1814 29.4187 22.9101 28.6901 23.8089 28.6901H53.9161C54.8149 28.6901 55.5435 29.4187 55.5435 30.3175C55.5435 31.2163 54.8149 31.9449 53.9161 31.9449H23.8089Z" fill="#ECD3B5"/>
<path d="M23.8089 41.7095C22.9101 41.7095 22.1814 40.9809 22.1814 40.0821C22.1814 39.1833 22.9101 38.4547 23.8089 38.4547H45.779C46.6778 38.4547 47.4064 39.1833 47.4064 40.0821C47.4064 40.9809 46.6778 41.7095 45.779 41.7095H23.8089Z" fill="#ECD3B5"/>
</svg>
