<svg width="91" height="91" viewBox="0 0 91 91" fill="none" xmlns="http://www.w3.org/2000/svg">
<path fill-rule="evenodd" clip-rule="evenodd" d="M19.2362 23.8138V30.6195H12.521V23.8138H19.2362ZM17.1388 25.9395H14.6183V28.4939H17.1388V25.9395ZM22.6818 26.1539H43.4259V28.2796H22.6818V26.1539ZM80.625 47.9348H43.0379V54.6129H80.625V47.9348ZM43.0379 45.8093H80.625V39.1312H43.0379V45.8093ZM46.6139 41.407H61.9479V43.5327H46.6139V41.407ZM65.9036 41.4075H69.4368V43.5332H65.9036V41.4075ZM73.5159 41.4075H77.0491V43.5332H73.5159V41.4075ZM80.625 56.7386H43.0378V63.4167H80.625V56.7386ZM46.6138 50.2108H61.9478V52.3364H46.6138V50.2108ZM65.9035 50.2113H69.4367V52.3369H65.9035V50.2113ZM73.5158 50.2113H77.049V52.3369H73.5158V50.2113ZM80.6249 65.5424H43.0377V72.2205H80.6249V65.5424ZM46.6137 59.0144H61.9477V61.1401H46.6137V59.0144ZM65.9035 59.015H69.4367V61.1407H65.9035V59.015ZM73.5157 59.015H77.0489V61.1407H73.5157V59.015ZM80.6248 74.3461H43.0376V81.0242H80.6248V74.3461ZM46.6137 67.8182H61.9477V69.9439H46.6137V67.8182ZM65.9034 67.8188H69.4366V69.9444H65.9034V67.8188ZM73.5156 67.8188H77.0488V69.9444H73.5156V67.8188ZM46.6137 76.622H61.9477V78.7476H46.6137V76.622ZM65.9034 76.6225H69.4366V78.7481H65.9034V76.6225ZM73.5156 76.6225H77.0488V78.7481H73.5156V76.6225ZM82.7221 83.1498V37.0055H48.2771V23.9168L52.061 23.9169V14.1215H48.2771V8.14978H20.6215L8.72239 20.209C8.72806 34.2024 8.72757 48.1958 8.72757 62.1891H40.9404V83.1498H82.7221ZM46.1796 37.0055V23.9168L42.3959 23.9169V14.1215H46.1796V10.2754H22.1039V21.7158H10.8118L10.8164 60.0635H40.9405V37.0055H46.1796ZM20.0069 11.7781V19.5903H12.2985L20.0069 11.7781ZM31.6634 67.5832V76.0207H23.3379V67.5832H31.6634ZM29.566 69.7088V73.8952H25.4352V69.7088H29.566ZM49.9639 16.2472V21.7911H44.4936V16.2472H49.9639ZM78.1248 18.9954V27.3123H69.9183V18.9954H78.1248ZM76.0274 21.121V25.1866H72.0157V21.121H76.0274ZM62.7885 27.9138V35.0161H55.7803V27.9138H62.7885ZM60.6911 30.0392V32.8904H57.8777V30.0392H60.6911ZM19.2361 35.6058V42.4115H12.5209V35.6058H19.2361ZM17.1387 37.7315V40.2859H14.6182V37.7315H17.1387ZM22.6817 37.9459H38.2708V40.0716H22.6817V37.9459ZM19.236 47.3979V54.2036H12.5208V47.3979H19.236ZM17.1386 49.5236V52.078H14.6181V49.5236H17.1386ZM22.6816 49.7381H38.2707V51.8637H22.6816V49.7381Z" fill="#81956C"/>
</svg>
