<svg width="91" height="91" viewBox="0 0 91 91" fill="none" xmlns="http://www.w3.org/2000/svg">
<path d="M85.5838 29.7213C85.5722 27.4154 84.7903 25.1795 83.3623 23.3689C81.9343 21.5584 79.9421 20.2771 77.7023 19.7287C77.8139 19.2098 77.8699 18.6806 77.8695 18.1498C77.8674 16.1045 77.054 14.1435 75.6078 12.6973C74.1615 11.251 72.2005 10.4376 70.1552 10.4355C69.5861 10.4353 69.0189 10.5 68.4645 10.6284C67.9681 9.07964 66.9929 7.72846 65.6793 6.76954C64.3657 5.81063 62.7816 5.29351 61.1552 5.29269C59.2529 5.2878 57.418 5.99611 56.0123 7.27783C54.6067 5.99611 52.7717 5.2878 50.8695 5.29269C49.2431 5.29351 47.659 5.81063 46.3454 6.76954C45.0318 7.72846 44.0566 9.07964 43.5602 10.6284C43.0058 10.5 42.4386 10.4353 41.8695 10.4355C40.7865 10.4364 39.7159 10.6658 38.7278 11.109C37.7396 11.5521 36.8561 12.1989 36.1352 13.007H32.8695C28.147 13.0113 23.615 14.8694 20.2486 18.1814C16.8823 21.4934 14.9507 25.9946 14.8695 30.7164L5.98777 49.745C5.89535 49.9413 5.85409 50.1577 5.86785 50.3742C5.88161 50.5907 5.94994 50.8003 6.06646 50.9833C6.18298 51.1663 6.34392 51.3168 6.53428 51.4209C6.72465 51.5249 6.93825 51.5791 7.1552 51.5784H14.8695V72.1498C14.8695 72.4908 15.0049 72.8179 15.2461 73.059C15.4872 73.3001 15.8142 73.4355 16.1552 73.4355H29.0123V83.7213C29.0123 84.0623 29.1478 84.3893 29.3889 84.6304C29.63 84.8715 29.9571 85.007 30.2981 85.007H59.8695C60.2105 85.007 60.5375 84.8715 60.7786 84.6304C61.0197 84.3893 61.1552 84.0623 61.1552 83.7213V65.9437L65.9895 52.4077C67.1453 51.4723 68.0051 50.2218 68.4645 48.8077C69.0188 48.9376 69.5859 49.0044 70.1552 49.007C72.2005 49.0049 74.1615 48.1915 75.6078 46.7453C77.054 45.299 77.8674 43.338 77.8695 41.2927C77.8699 40.762 77.8139 40.2327 77.7023 39.7138C79.9421 39.1654 81.9343 37.8841 83.3623 36.0736C84.7903 34.263 85.5722 32.0272 85.5838 29.7213ZM58.6596 65.2893C58.6094 65.4278 58.5838 65.5739 58.5838 65.7213V82.4355H31.5838V72.1498C31.5838 71.8088 31.4483 71.4818 31.2072 71.2407C30.9661 70.9996 30.639 70.8641 30.2981 70.8641H17.4409V50.2927C17.4409 49.9517 17.3055 49.6247 17.0643 49.3835C16.8232 49.1424 16.4962 49.007 16.1552 49.007H9.17377L17.3201 31.5508C17.3996 31.3806 17.4409 31.1949 17.4409 31.007C17.4453 26.9164 19.0723 22.9947 21.9647 20.1022C24.8572 17.2098 28.7789 15.5828 32.8695 15.5784H34.6052C34.3096 16.4036 34.1574 17.2733 34.1552 18.1498C34.1548 18.6806 34.2108 19.2098 34.3223 19.7287C32.0771 20.2667 30.0784 21.5452 28.6486 23.358C27.2188 25.1709 26.4413 27.4124 26.4413 29.7213C26.4413 32.0301 27.2188 34.2716 28.6486 36.0845C30.0784 37.8973 32.0771 39.1758 34.3223 39.7138C34.2108 40.2327 34.1548 40.762 34.1552 41.2927C34.1572 43.338 34.9706 45.299 36.4169 46.7453C37.8632 48.1915 39.8242 49.0049 41.8695 49.007C42.4385 49.0065 43.0057 48.9418 43.5602 48.8141C44.0566 50.3629 45.0318 51.7141 46.3454 52.673C47.659 53.6319 49.2431 54.149 50.8695 54.1498C52.7717 54.1547 54.6067 53.4464 56.0123 52.1647C56.8986 52.9825 57.9693 53.5742 59.1333 53.8893C60.2973 54.2045 61.5202 54.2339 62.6981 53.975L58.6596 65.2893ZM75.9191 37.4034C75.7146 37.4198 75.517 37.485 75.3428 37.5933C75.1686 37.7017 75.0229 37.8502 74.9178 38.0264C74.8127 38.2026 74.7513 38.4014 74.7388 38.6061C74.7262 38.8109 74.7628 39.0157 74.8455 39.2034C75.1427 39.8599 75.297 40.5721 75.2981 41.2927C75.3017 42.1529 75.0886 43.0002 74.6784 43.7563C74.2682 44.5125 73.6741 45.1531 72.951 45.619C72.2279 46.085 71.3991 46.3613 70.541 46.4224C69.683 46.4836 68.8233 46.3276 68.0415 45.9688C67.8567 45.8852 67.6547 45.8465 67.4521 45.8559C67.2495 45.8653 67.052 45.9224 66.8757 46.0228C66.6994 46.1231 66.5493 46.2637 66.4378 46.4331C66.3262 46.6024 66.2563 46.7958 66.2338 46.9974C66.1292 48.0239 65.7158 48.9946 65.0481 49.7812C64.3804 50.5679 63.4898 51.1335 62.4939 51.4034C61.498 51.6734 60.4437 51.6349 59.4701 51.2931C58.4965 50.9514 57.6495 50.3223 57.0409 49.4891C56.9211 49.3294 56.7659 49.1998 56.5873 49.1106C56.4088 49.0213 56.2119 48.9748 56.0123 48.9748C55.8127 48.9748 55.6159 49.0213 55.4374 49.1106C55.2588 49.1998 55.1035 49.3294 54.9838 49.4891C54.375 50.3214 53.5282 50.9495 52.5551 51.2908C51.5821 51.632 50.5285 51.6703 49.5332 51.4006C48.538 51.1309 47.6478 50.5659 46.9802 49.78C46.3126 48.9942 45.8988 48.0244 45.7935 46.9987C45.7709 46.7971 45.701 46.6037 45.5895 46.4343C45.4779 46.2649 45.3279 46.1244 45.1516 46.024C44.9753 45.9237 44.7777 45.8666 44.5751 45.8572C44.3725 45.8478 44.1706 45.8865 43.9858 45.9701C43.0379 46.4046 41.9799 46.5394 40.9534 46.3566C39.9268 46.1738 38.9805 45.682 38.2408 44.947C37.5012 44.212 37.0035 43.2687 36.8143 42.2433C36.625 41.2179 36.7532 40.1591 37.1818 39.2085C37.2645 39.0208 37.3011 38.816 37.2885 38.6113C37.2759 38.4065 37.2145 38.2077 37.1094 38.0315C37.0043 37.8553 36.8586 37.7069 36.6844 37.5985C36.5103 37.4901 36.3127 37.425 36.1082 37.4085C34.1766 37.2544 32.3739 36.3782 31.0593 34.9545C29.7448 33.5308 29.0148 31.6642 29.0148 29.7264C29.0148 27.7886 29.7448 25.922 31.0593 24.4983C32.3739 23.0746 34.1766 22.1984 36.1082 22.0443C36.3127 22.0278 36.5103 21.9627 36.6844 21.8543C36.8586 21.7459 37.0043 21.5975 37.1094 21.4213C37.2145 21.2451 37.2759 21.0463 37.2885 20.8415C37.3011 20.6368 37.2645 20.432 37.1818 20.2443C36.8829 19.5864 36.7278 18.8724 36.7266 18.1498C36.723 17.2896 36.9361 16.4423 37.3463 15.6862C37.7565 14.9301 38.3506 14.2894 39.0737 13.8235C39.7968 13.3575 40.6256 13.0812 41.4836 13.0201C42.3417 12.9589 43.2013 13.1149 43.9832 13.4737C44.168 13.5573 44.3699 13.596 44.5726 13.5866C44.7752 13.5772 44.9727 13.5201 45.149 13.4198C45.3253 13.3195 45.4753 13.1789 45.5869 13.0095C45.6985 12.8401 45.7684 12.6467 45.7909 12.4451C45.8954 11.4186 46.3089 10.4479 46.9766 9.66129C47.6443 8.87464 48.5349 8.30901 49.5308 8.03907C50.5267 7.76914 51.581 7.8076 52.5546 8.14938C53.5281 8.49117 54.3752 9.12019 54.9838 9.9534C55.1089 10.1051 55.2659 10.2272 55.4438 10.311C55.6216 10.3949 55.8157 10.4383 56.0123 10.4383C56.2089 10.4383 56.4031 10.3949 56.5809 10.311C56.7587 10.2272 56.9158 10.1051 57.0409 9.9534C57.6494 9.12023 58.4964 8.49121 59.4698 8.14937C60.4433 7.80753 61.4975 7.76896 62.4934 8.03874C63.4892 8.30853 64.3798 8.87398 65.0476 9.66045C65.7154 10.4469 66.129 11.4174 66.2338 12.4438C66.2563 12.6454 66.3262 12.8388 66.4378 13.0082C66.5493 13.1776 66.6994 13.3182 66.8757 13.4185C67.052 13.5188 67.2495 13.576 67.4521 13.5853C67.6547 13.5947 67.8567 13.556 68.0415 13.4724C68.9894 13.0379 70.0473 12.9031 71.0739 13.0859C72.1005 13.2688 73.0468 13.7605 73.7864 14.4956C74.526 15.2306 75.0237 16.1738 75.213 17.1992C75.4022 18.2246 75.274 19.2834 74.8455 20.234C74.7628 20.4217 74.7262 20.6265 74.7388 20.8313C74.7513 21.036 74.8127 21.2348 74.9178 21.411C75.0229 21.5872 75.1686 21.7357 75.3428 21.844C75.517 21.9524 75.7146 22.0175 75.9191 22.034C77.8507 22.1881 79.6533 23.0643 80.9679 24.488C82.2825 25.9117 83.0125 27.7783 83.0125 29.7161C83.0125 31.6539 82.2825 33.5205 80.9679 34.9442C79.6533 36.3679 77.8507 37.2441 75.9191 37.3983V37.4034Z" fill="#81956C"/>
<path d="M63.7266 14.6694C61.4934 12.7046 58.5894 11.6753 55.6173 11.795C52.6453 11.9147 49.8334 13.1743 47.7655 15.3124C45.6976 17.4504 44.5324 20.3027 44.5119 23.2771C44.4914 26.2515 45.617 29.1196 47.6552 31.286C48.904 32.5961 49.5954 34.3399 49.5838 36.1499V38.7213C49.5871 39.5162 49.8359 40.2907 50.2962 40.9388C50.7564 41.5869 51.4057 42.0769 52.1552 42.3419V43.8642C52.1552 44.8871 52.5616 45.8682 53.2849 46.5916C54.0083 47.3149 54.9894 47.7213 56.0123 47.7213C57.0353 47.7213 58.0164 47.3149 58.7397 46.5916C59.4631 45.8682 59.8695 44.8871 59.8695 43.8642V42.3419C60.6189 42.0769 61.2682 41.5869 61.7285 40.9388C62.1888 40.2907 62.4376 39.5162 62.4409 38.7213V36.1499C62.4168 34.3583 63.0936 32.6281 64.327 31.3284C65.4101 30.2101 66.256 28.8845 66.8141 27.4312C67.3723 25.9779 67.6311 24.4268 67.575 22.8711C67.5189 21.3153 67.1491 19.7869 66.4878 18.3775C65.8265 16.9681 64.8873 15.7069 63.7266 14.6694ZM56.0123 45.1499C55.6713 45.1499 55.3443 45.0144 55.1032 44.7733C54.8621 44.5322 54.7266 44.2052 54.7266 43.8642V42.5784H57.298V43.8642C57.298 44.2052 57.1626 44.5322 56.9215 44.7733C56.6803 45.0144 56.3533 45.1499 56.0123 45.1499ZM58.5838 40.007H53.4409C53.0999 40.007 52.7729 39.8716 52.5318 39.6304C52.2906 39.3893 52.1552 39.0623 52.1552 38.7213V37.4356H59.8695V38.7213C59.8695 39.0623 59.734 39.3893 59.4929 39.6304C59.2518 39.8716 58.9248 40.007 58.5838 40.007ZM62.4808 29.54C61.0824 30.9935 60.1944 32.8621 59.9505 34.8642H52.0729C51.8133 32.851 50.9158 30.9738 49.5118 29.5079C48.2908 28.2328 47.4719 26.6268 47.1568 24.8897C46.8418 23.1527 47.0445 21.3614 47.7399 19.7387C48.4352 18.116 49.5924 16.7337 51.0674 15.7637C52.5425 14.7938 54.2702 14.279 56.0355 14.2836C57.8009 14.2881 59.526 14.8118 60.996 15.7893C62.466 16.7669 63.616 18.1551 64.303 19.7814C64.99 21.4076 65.1835 23.2 64.8595 24.9353C64.5355 26.6707 63.7082 28.2725 62.4808 29.5413V29.54Z" fill="#81956C"/>
<path d="M57.2981 16.8641H54.7266V22.0069H49.5838V24.5784H54.7266V29.7212H57.2981V24.5784H62.4409V22.0069H57.2981V16.8641Z" fill="#81956C"/>
<path d="M43.9729 53.332C43.5714 52.4273 42.916 51.6585 42.0862 51.119C41.2564 50.5794 40.2879 50.2922 39.2981 50.2922C38.3083 50.2922 37.3397 50.5794 36.5099 51.119C35.6801 51.6585 35.0247 52.4273 34.6232 53.332C33.7185 53.7335 32.9497 54.3889 32.4102 55.2187C31.8706 56.0485 31.5834 57.0171 31.5834 58.0069C31.5834 58.9967 31.8706 59.9652 32.4102 60.795C32.9497 61.6248 33.7185 62.2802 34.6232 62.6817C35.0247 63.5864 35.6801 64.3552 36.5099 64.8948C37.3397 65.4343 38.3083 65.7216 39.2981 65.7216C40.2879 65.7216 41.2564 65.4343 42.0862 64.8948C42.916 64.3552 43.5714 63.5864 43.9729 62.6817C44.8776 62.2802 45.6464 61.6248 46.186 60.795C46.7255 59.9652 47.0127 58.9967 47.0127 58.0069C47.0127 57.0171 46.7255 56.0485 46.186 55.2187C45.6464 54.3889 44.8776 53.7335 43.9729 53.332ZM42.6036 60.4497C42.4 60.5109 42.2148 60.6216 42.0644 60.7719C41.9141 60.9223 41.8034 61.1075 41.7422 61.3111C41.5882 61.8398 41.2668 62.3043 40.8263 62.6347C40.3858 62.9652 39.85 63.1438 39.2993 63.1438C38.7487 63.1438 38.2129 62.9652 37.7724 62.6347C37.3319 62.3043 37.0105 61.8398 36.8565 61.3111C36.7953 61.1075 36.6846 60.9223 36.5343 60.7719C36.3839 60.6216 36.1987 60.5109 35.9951 60.4497C35.4664 60.2957 35.0019 59.9743 34.6715 59.5338C34.341 59.0933 34.1624 58.5575 34.1624 58.0069C34.1624 57.4562 34.341 56.9204 34.6715 56.4799C35.0019 56.0394 35.4664 55.718 35.9951 55.564C36.1987 55.5028 36.3839 55.3921 36.5343 55.2418C36.6846 55.0915 36.7953 54.9062 36.8565 54.7026C37.0105 54.1739 37.3319 53.7095 37.7724 53.379C38.2129 53.0485 38.7487 52.8699 39.2993 52.8699C39.85 52.8699 40.3858 53.0485 40.8263 53.379C41.2668 53.7095 41.5882 54.1739 41.7422 54.7026C41.8034 54.9062 41.9141 55.0915 42.0644 55.2418C42.2148 55.3921 42.4 55.5028 42.6036 55.564C43.1323 55.718 43.5968 56.0394 43.9272 56.4799C44.2577 56.9204 44.4363 57.4562 44.4363 58.0069C44.4363 58.5575 44.2577 59.0933 43.9272 59.5338C43.5968 59.9743 43.1323 60.2957 42.6036 60.4497Z" fill="#81956C"/>
<path d="M30.2981 68.2926C31.7182 68.2926 32.8695 67.1414 32.8695 65.7212C32.8695 64.301 31.7182 63.1498 30.2981 63.1498C28.8779 63.1498 27.7266 64.301 27.7266 65.7212C27.7266 67.1414 28.8779 68.2926 30.2981 68.2926Z" fill="#81956C"/>
</svg>
