<svg width="90" height="90" viewBox="0 0 90 90" fill="none" xmlns="http://www.w3.org/2000/svg">
<path d="M72.3764 18.7103C66.1742 14.2828 58.4111 12.8388 50.1003 14.4599L50.7712 9.05156C50.8671 8.27505 50.6206 7.49853 50.1003 6.91274C49.5801 6.32695 48.8407 6 48.0603 6H42.9397C42.1593 6 41.4199 6.32695 40.8997 6.91274C40.3794 7.49853 40.1329 8.27505 40.2288 9.05156L40.8997 14.4463C32.5889 12.8251 24.8258 14.2692 18.6236 18.6967C10.6003 24.4183 6 34.4449 6 46.1743C6 67.5761 23.7168 85 45.5 85C67.2832 85 85 67.5761 85 46.1743C85 34.4313 80.3997 24.4183 72.3764 18.6967V18.7103ZM42.9397 8.72461H48.0603L47.2662 15.1138C46.6775 15.2773 46.1024 15.4544 45.5137 15.6451C44.925 15.4544 44.3362 15.2773 43.7612 15.1138L42.9534 8.72461H42.9397ZM20.2255 20.9172C24.3055 18.0019 29.1797 16.5306 34.4646 16.5306C37.8601 16.5306 41.4199 17.1436 45.0619 18.3697C45.3494 18.4651 45.6506 18.4651 45.9381 18.3697C55.2484 15.2364 64.0794 16.1355 70.7745 20.9309C71.6919 21.5848 72.5544 22.3068 73.3759 23.0833C66.0646 20.3587 57.0009 19.7048 56.508 19.6639C55.8097 19.6367 55.2073 20.0862 55.0704 20.7538C54.9335 21.4213 55.3168 22.0888 55.9603 22.3068C64.6133 25.3038 66.6945 31.3389 67.0094 35.6165C60.3964 25.5763 46.4584 22.334 45.7875 22.1842C45.5958 22.1433 45.3905 22.1433 45.1851 22.1842C44.5142 22.334 30.5763 25.5763 23.9633 35.6165C24.2645 31.3525 26.3593 25.3175 35.0123 22.3204C35.6558 22.0888 36.0392 21.4349 35.9023 20.7674C35.7653 20.0998 35.1629 19.6503 34.4646 19.6775C33.9718 19.7048 24.9217 20.3723 17.5967 23.0969C18.4182 22.3204 19.2808 21.5984 20.1981 20.9445L20.2255 20.9172ZM13.4619 28.2328L13.4893 28.26C16.8984 25.658 22.7721 24.1459 27.4683 23.3149C19.0069 30.1673 21.6357 40.875 21.6768 41.0112C21.8274 41.597 22.3477 42.0057 22.9501 42.0329C23.5388 42.0738 24.1002 41.6924 24.2919 41.1202C28.2213 29.7722 43.1861 25.5218 45.5137 24.9224C47.8276 25.5218 62.8061 29.7858 66.7355 41.1202C66.9272 41.6651 67.4475 42.0329 68.0225 42.0329C68.0362 42.0329 68.0636 42.0329 68.0773 42.0329C68.6797 42.0057 69.2 41.597 69.3506 41.0112C69.378 40.8886 72.0205 30.1809 63.5591 23.3149C68.2553 24.1459 74.1426 25.658 77.5381 28.26L77.5655 28.2328C80.6187 33.178 82.2754 39.3492 82.2754 46.188C82.2754 46.8691 82.248 47.5503 82.2069 48.2314H8.80676C8.76568 47.5503 8.7383 46.8691 8.7383 46.188C8.7383 39.3628 10.395 33.178 13.4482 28.2328H13.4619ZM45.5137 82.289C26.8932 82.289 11.4629 68.6115 9.08059 50.956H16.7615V55.0429C16.7615 55.7922 17.3776 56.4052 18.1307 56.4052C18.8837 56.4052 19.4998 55.7922 19.4998 55.0429V50.956H23.6073V52.3183C23.6073 53.0676 24.2234 53.6806 24.9764 53.6806C25.7295 53.6806 26.3456 53.0676 26.3456 52.3183V50.956H30.453V55.0429C30.453 55.7922 31.0692 56.4052 31.8222 56.4052C32.5752 56.4052 33.1913 55.7922 33.1913 55.0429V50.956H37.2988V52.3183C37.2988 53.0676 37.9149 53.6806 38.6679 53.6806C39.421 53.6806 40.0371 53.0676 40.0371 52.3183V50.956H44.1445V55.0429C44.1445 55.7922 44.7607 56.4052 45.5137 56.4052C46.2667 56.4052 46.8828 55.7922 46.8828 55.0429V50.956H50.9903V52.3183C50.9903 53.0676 51.6064 53.6806 52.3594 53.6806C53.1125 53.6806 53.7286 53.0676 53.7286 52.3183V50.956H57.836V55.0429C57.836 55.7922 58.4522 56.4052 59.2052 56.4052C59.9582 56.4052 60.5743 55.7922 60.5743 55.0429V50.956H64.6818V52.3183C64.6818 53.0676 65.2979 53.6806 66.051 53.6806C66.804 53.6806 67.4201 53.0676 67.4201 52.3183V50.956H71.5276V55.0429C71.5276 55.7922 72.1437 56.4052 72.8967 56.4052C73.6497 56.4052 74.2659 55.7922 74.2659 55.0429V50.956H81.9468C79.5645 68.6115 64.1341 82.289 45.5137 82.289ZM42.7617 43.7494C43.3367 44.7439 44.3636 45.3297 45.5137 45.3297C46.6638 45.3297 47.6906 44.7439 48.2657 43.7494L50.5659 39.7988C51.1409 38.8043 51.1409 37.6191 50.5659 36.6382C49.9908 35.6437 48.964 35.0579 47.8139 35.0579H43.2272C42.0771 35.0579 41.0503 35.6437 40.4752 36.6382C39.9002 37.6327 39.9002 38.8179 40.4752 39.7988L42.7754 43.7494H42.7617ZM42.8438 37.9869C42.8849 37.9052 43.0081 37.7689 43.2272 37.7689H47.8139C48.0329 37.7689 48.1425 37.9052 48.1972 37.9869C48.252 38.0686 48.3068 38.2321 48.1972 38.4228L45.8971 42.3735C45.7875 42.5642 45.6095 42.5915 45.5137 42.5915C45.4179 42.5915 45.2399 42.5642 45.1303 42.3735L42.8302 38.4228C42.7206 38.2321 42.7754 38.0686 42.8302 37.9869H42.8438Z" fill="#EEDFB1"/>
</svg>
