<svg width="90" height="90" viewBox="0 0 90 90" fill="none" xmlns="http://www.w3.org/2000/svg">
<path d="M18.292 59.7877C20.324 57.2917 23.27 55.6533 26.4974 55.2948C21.6599 51.7967 21.0834 44.8008 25.3092 40.5645C29.099 36.7782 35.2443 36.7782 39.0306 40.5645C43.2634 44.7973 42.6833 51.8001 37.8423 55.2948C40.5915 55.6041 43.1438 56.8346 45.0986 58.7471C47.0603 56.8276 49.6056 55.5971 52.3583 55.2948C47.5208 51.7967 46.9443 44.8008 51.17 40.5645C54.9599 36.7782 61.0979 36.7782 64.8914 40.5645C69.1242 44.7973 68.5442 51.8001 63.7032 55.2948C66.9305 55.6534 69.8766 57.2917 71.9087 59.7877L72.1899 60.1323V86.0991H18L18.0141 60.1323L18.292 59.7877ZM46.336 61.0112V61.8831H53.7645C57.9973 61.8831 60.198 67.044 57.157 70.0851C56.2922 70.9569 55.0828 71.4948 53.7645 71.4948H36.4044C34.3583 71.4948 33.2614 74.0015 34.7521 75.4956C35.181 75.9175 35.7646 76.1846 36.4044 76.1846H46.3323V83.6377H69.7359L69.7394 61.0108C68.8605 60.0264 67.7917 59.2073 66.5859 58.6343C65.3097 58.0261 63.8789 57.6851 62.3601 57.6851H53.7152C50.7972 57.6815 48.273 58.9089 46.336 61.0112ZM23.629 58.6347C22.4231 59.2077 21.3509 60.0269 20.4754 61.0112V83.6381H43.8791V78.6459H36.4048C32.172 78.6459 29.9713 73.4849 33.0123 70.4439C33.8841 69.5791 35.0865 69.0342 36.4048 69.0342H53.7649C55.818 69.0342 56.9079 66.5275 55.4172 65.0404C54.9954 64.6115 54.4047 64.3478 53.7649 64.3478H43.8793V61.0151C42.9969 60.0306 41.9246 59.2115 40.7223 58.6385C39.4496 58.0303 38.0153 57.6893 36.5036 57.6893H27.8586C26.3363 57.6823 24.9087 58.0229 23.629 58.6347ZM32.179 40.1847C28.1852 40.1847 24.9368 43.4261 24.9368 47.4269C24.9368 51.4276 28.1782 54.6691 32.179 54.6691C36.1797 54.6691 39.4212 51.4276 39.4212 47.4269C39.4177 43.4261 36.1797 40.1847 32.179 40.1847ZM63.1588 42.3081C60.3322 39.4781 55.7478 39.4781 52.9213 42.3081C50.0947 45.1347 50.0947 49.7191 52.9213 52.5456C55.7513 55.3722 60.3357 55.3722 63.1588 52.5456C65.9888 49.7191 65.9888 45.1347 63.1588 42.3081ZM45.9742 9.81003L45.032 10.6046L44.2374 9.80651C40.7359 6.30497 35.0754 6.29444 31.5708 9.79597C28.0728 13.294 28.0728 18.9715 31.5708 22.4626L45.1095 36.0013L58.641 22.4626C62.1391 18.968 62.1391 13.2934 58.641 9.79597C52.7383 3.88972 46.6843 9.18425 45.9742 9.81003ZM45.1515 7.31046C47.4542 5.54916 53.9476 1.61517 60.3849 8.05226C64.8427 12.51 64.8427 19.7415 60.3849 24.2028L45.1128 39.4821L29.8335 24.2028C25.3757 19.745 25.3757 12.5136 29.8335 8.05226C33.9995 3.88274 40.6515 3.61553 45.1515 7.31046Z" fill="#81956C"/>
</svg>
