<svg width="90" height="90" viewBox="0 0 90 90" fill="none" xmlns="http://www.w3.org/2000/svg">
<path d="M71.1992 24.2442H58.7774C60.0017 23.7217 61.0617 23.1245 61.7485 22.4377C65.2272 18.9142 65.2272 13.181 61.7485 9.65755C60.0464 7.94059 57.792 7 55.3883 7C52.9995 7 50.745 7.94059 49.043 9.65755C47.6097 11.1207 46.5646 14.2262 45.8181 17.3167C45.0716 14.2262 44.0265 11.1058 42.5783 9.65755C40.8912 7.94059 38.6367 7 36.2479 7C33.8591 7 31.6047 7.94059 29.9027 9.65755C26.424 13.181 26.424 18.9142 29.9027 22.4377C30.5745 23.1245 31.6345 23.7217 32.8737 24.2442H20.437C17.9735 24.2442 15.958 26.2598 15.958 28.7232V80.1573C15.958 82.6208 17.9735 84.6363 20.437 84.6363H71.1992C73.6627 84.6363 75.6782 82.6208 75.6782 80.1573V28.7232C75.6782 26.2598 73.6627 24.2442 71.1992 24.2442ZM51.178 11.7478C52.3127 10.6131 53.8057 9.98601 55.3883 9.98601C56.9858 9.98601 58.4788 10.6131 59.5985 11.7627C61.9426 14.1216 61.9426 17.9736 59.5985 20.3475C57.9861 21.9749 52.0141 23.3036 47.6097 23.9456C48.2517 19.4517 49.5655 13.3901 51.178 11.7478ZM32.0227 20.3325C29.6787 17.9736 29.6787 14.1216 32.0227 11.7478C33.1574 10.6131 34.6504 9.98601 36.2479 9.98601C37.8454 9.98601 39.3385 10.6131 40.4582 11.7627C42.0707 13.3901 43.3845 19.4666 44.0265 23.9456C39.6072 23.2887 33.6352 21.9599 32.0227 20.3325ZM39.8461 81.6503H20.437C19.6158 81.6503 18.944 80.9785 18.944 80.1573V43.1755H39.8461V81.6503ZM39.8461 40.1895H18.944V28.7083C18.944 27.8872 19.6158 27.2153 20.437 27.2153H39.8461V40.1895ZM48.8041 81.6503H42.8321V27.2302H48.8041V81.6503ZM72.6922 80.1573C72.6922 80.9785 72.0204 81.6503 71.1992 81.6503H51.7901V43.1755H72.6922V80.1573ZM72.6922 40.1895H51.7901V27.2153H71.1992C72.0204 27.2153 72.6922 27.8872 72.6922 28.7083V40.1895Z" fill="#C3E4DC"/>
<path d="M24.4231 59.091L23.7513 63.0176C23.6617 63.5849 23.8857 64.1373 24.3485 64.4807C24.8113 64.8092 25.4235 64.854 25.9161 64.5852L29.3948 62.7339L32.8586 64.5703C33.0826 64.6897 33.3215 64.7495 33.5603 64.7495C33.8739 64.7495 34.1725 64.6599 34.4263 64.4658C34.8891 64.1373 35.1131 63.57 35.0235 63.0026L34.3516 59.076L37.1734 56.299C37.5765 55.8959 37.7258 55.3137 37.5467 54.7762C37.3675 54.2387 36.9047 53.8505 36.3523 53.7609L32.4704 53.1936L30.7386 49.6253C30.2309 48.5951 28.5588 48.5951 28.0511 49.6253L26.3193 53.1936L22.4374 53.7609C21.8701 53.8505 21.4073 54.2387 21.243 54.7762C21.0639 55.3137 21.2132 55.9109 21.6163 56.299L24.4231 59.091ZM27.5286 56.0452C28.0213 55.9706 28.4393 55.672 28.6483 55.2241L29.3948 53.7012L30.1414 55.2241C30.3653 55.672 30.7833 55.9706 31.2611 56.0452L32.9482 56.299L31.709 57.5233C31.3656 57.8667 31.2014 58.3594 31.291 58.8372L31.5746 60.5392L30.0966 59.7479C29.8726 59.6285 29.6337 59.5687 29.3948 59.5687C29.156 59.5687 28.9171 59.6285 28.6931 59.7479L27.2151 60.5392L27.4987 58.8372C27.5734 58.3594 27.4241 57.8667 27.0807 57.5233L25.8415 56.299L27.5286 56.0452Z" fill="#C3E4DC"/>
</svg>
