<svg width="90" height="90" viewBox="0 0 90 90" fill="none" xmlns="http://www.w3.org/2000/svg">
<path d="M43.4687 54.5044L40.6553 65.7578C40.6034 65.9652 40.5994 66.1818 40.6437 66.391C40.6879 66.6001 40.7793 66.7965 40.9109 66.9651C41.0424 67.1336 41.2107 67.27 41.4028 67.3638C41.595 67.4576 41.806 67.5063 42.0198 67.5063C42.135 67.5062 42.2498 67.492 42.3616 67.4641L47.9883 66.0575C48.1687 66.0136 48.3385 65.9346 48.4882 65.8248C48.6378 65.7151 48.7643 65.5768 48.8602 65.418C48.9562 65.2592 49.0198 65.0829 49.0473 64.8994C49.0749 64.7159 49.0659 64.5287 49.0208 64.3487C48.9757 64.1687 48.8954 63.9994 48.7846 63.8505C48.6738 63.7017 48.5346 63.5762 48.3751 63.4814C48.2156 63.3866 48.0389 63.3242 47.8552 63.298C47.6715 63.2718 47.4844 63.2821 47.3047 63.3285L43.954 64.1655L46.1976 55.1881C46.244 55.0084 46.2544 54.8213 46.2281 54.6376C46.2019 54.4539 46.1396 54.2772 46.0447 54.1177C45.9499 53.9582 45.8245 53.819 45.6756 53.7082C45.5267 53.5974 45.3574 53.5171 45.1774 53.472C44.9974 53.4269 44.8103 53.4179 44.6268 53.4454C44.4432 53.473 44.267 53.5366 44.1082 53.6325C43.9493 53.7285 43.811 53.855 43.7013 54.0046C43.5916 54.1542 43.5125 54.3241 43.4687 54.5044Z" fill="#81956C"/>
<path d="M38.1444 50.6713C37.7829 50.5797 37.3998 50.6353 37.0793 50.826C36.7588 51.0167 36.5272 51.3269 36.4353 51.6884C36.4241 51.7348 35.234 56.253 32.1731 56.253C29.1122 56.253 27.9221 51.7348 27.9109 51.6884C27.8198 51.3265 27.5888 51.0156 27.2685 50.8241C26.9483 50.6325 26.565 50.5761 26.2032 50.6671C25.8413 50.7581 25.5304 50.9892 25.3389 51.3095C25.1473 51.6297 25.0909 52.0129 25.1819 52.3748C25.2508 52.6477 26.9149 59.0664 32.1731 59.0664C37.4312 59.0664 39.0953 52.6477 39.1643 52.3748C39.2541 52.0137 39.1973 51.6317 39.0062 51.3124C38.815 50.9932 38.5052 50.7626 38.1444 50.6713Z" fill="#81956C"/>
<path d="M57.4932 59.0664C62.7514 59.0664 64.4155 52.6477 64.4844 52.3748C64.5295 52.1956 64.5388 52.0093 64.5119 51.8265C64.4849 51.6437 64.4223 51.468 64.3274 51.3095C64.2326 51.1509 64.1075 51.0125 63.9592 50.9023C63.8109 50.7921 63.6423 50.7122 63.4631 50.6671C63.284 50.622 63.0977 50.6127 62.9149 50.6396C62.7321 50.6666 62.5564 50.7292 62.3978 50.8241C62.2392 50.9189 62.1009 51.044 61.9907 51.1923C61.8804 51.3406 61.8005 51.5092 61.7554 51.6884C61.7442 51.7348 60.5541 56.253 57.4932 56.253C54.4323 56.253 53.2422 51.7348 53.231 51.6884C53.14 51.3265 52.9089 51.0156 52.5886 50.8241C52.2684 50.6325 51.8852 50.5761 51.5233 50.6671C51.1614 50.7581 50.8505 50.9892 50.659 51.3095C50.4675 51.6297 50.411 52.0129 50.502 52.3748C50.571 52.6477 52.2351 59.0664 57.4932 59.0664Z" fill="#81956C"/>
<path d="M43.4265 19.6795C44.2033 19.6795 44.8331 19.0497 44.8331 18.2728C44.8331 17.4959 44.2033 16.8661 43.4265 16.8661C42.6496 16.8661 42.0198 17.4959 42.0198 18.2728C42.0198 19.0497 42.6496 19.6795 43.4265 19.6795Z" fill="#81956C"/>
<path d="M49.0532 19.6795C49.8301 19.6795 50.4599 19.0497 50.4599 18.2728C50.4599 17.4959 49.8301 16.8661 49.0532 16.8661C48.2763 16.8661 47.6465 17.4959 47.6465 18.2728C47.6465 19.0497 48.2763 19.6795 49.0532 19.6795Z" fill="#81956C"/>
<path d="M37.7998 19.6795C38.5767 19.6795 39.2065 19.0497 39.2065 18.2728C39.2065 17.4959 38.5767 16.8661 37.7998 16.8661C37.0229 16.8661 36.3931 17.4959 36.3931 18.2728C36.3931 19.0497 37.0229 19.6795 37.7998 19.6795Z" fill="#81956C"/>
<path d="M74.3733 43.7631V35.1529C74.3733 34.1921 74.3381 31.338 63.1199 29.4587V18.2728C63.1199 9.74131 54.286 2.79938 43.4265 2.79938C32.5669 2.79938 23.733 9.74131 23.733 18.2728C23.7908 20.3718 24.3226 22.4306 25.2884 24.295C26.2543 26.1595 27.6293 27.7815 29.3105 29.0395C22.2026 29.9482 15.293 31.7164 15.293 35.1529V43.7631C12.0872 44.5481 9.66629 47.9536 9.66629 52.033C9.66629 56.1658 12.1561 59.6065 15.4337 60.3324C16.0963 67.6734 19.481 74.5011 24.9223 79.4733C30.3635 84.4455 37.4679 87.2026 44.8388 87.2026C52.2097 87.2026 59.314 84.4455 64.7553 79.4733C70.1966 74.5011 73.5812 67.6734 74.2439 60.3324C77.5102 59.6065 80 56.1658 80 52.033C80 47.9536 77.5791 44.5481 74.3733 43.7631ZM15.293 57.3136C14.3843 56.7767 13.6411 55.9999 13.1448 55.0684C12.6485 54.1369 12.4184 53.0867 12.4796 52.033C12.4184 50.9793 12.6485 49.9291 13.1448 48.9976C13.6411 48.0661 14.3843 47.2893 15.293 46.7523V57.3136ZM26.5464 18.2728C26.5464 11.2929 34.1185 5.61273 43.4265 5.61273C52.7344 5.61273 60.3066 11.2929 60.3066 18.2728V32.2256L55.559 28.4276C55.3493 28.2596 55.0958 28.1552 54.8285 28.1268C54.5613 28.0984 54.2915 28.1471 54.0511 28.2672C50.7224 29.8543 47.1102 30.7606 43.4265 30.9329C34.1185 30.9329 26.5464 25.2527 26.5464 18.2728ZM71.56 57.6597C71.56 64.7481 68.7441 71.5461 63.7319 76.5584C58.7196 81.5706 51.9215 84.3865 44.8331 84.3865C37.7448 84.3865 30.9467 81.5706 25.9344 76.5584C20.9222 71.5461 18.1063 64.7481 18.1063 57.6597V38.4754C25.293 42.1314 43.8611 42.1863 44.8331 42.1863C45.8052 42.1863 64.3733 42.1314 71.56 38.4754V57.6597ZM44.8331 39.3729C28.2344 39.3729 18.7773 36.6411 18.1063 35.2331V35.2049C18.4805 34.3778 22.6218 32.4239 33.1577 31.4491C36.3645 32.9768 39.8744 33.762 43.4265 33.7462C47.243 33.6087 50.9967 32.7331 54.4801 31.1678L60.8341 36.2515C61.041 36.4172 61.2905 36.521 61.5538 36.551C61.8172 36.5811 62.0837 36.5361 62.3226 36.4213C62.5615 36.3064 62.7631 36.1265 62.9042 35.902C63.0452 35.6776 63.12 35.4179 63.1199 35.1529V32.3072C69.4499 33.417 71.3982 34.7843 71.5698 35.0854C70.948 36.6243 61.4825 39.3729 44.8331 39.3729ZM74.3733 57.3136V46.7523C75.282 47.2893 76.0252 48.0661 76.5215 48.9976C77.0178 49.9291 77.2479 50.9793 77.1866 52.033C77.2479 53.0867 77.0178 54.1369 76.5215 55.0684C76.0252 55.9999 75.282 56.7767 74.3733 57.3136Z" fill="#81956C"/>
</svg>
