<svg width="80" height="80" viewBox="0 0 80 80" fill="none" xmlns="http://www.w3.org/2000/svg">
<path d="M40.0001 74.9999C40.4154 74.9999 40.9669 74.7486 41.2345 74.4938L56.4912 60.135C57.1843 59.4646 57.2646 58.3785 56.5612 57.5969C55.9324 56.8982 54.7059 56.8808 54.023 57.5269L41.7953 69.0533V6.79476C41.7953 5.80344 40.9917 4.99988 40.0004 4.99988C39.0091 4.99988 38.2055 5.80344 38.2055 6.79476V69.0533L25.9777 57.5269C25.2949 56.8809 24.0986 56.9267 23.4396 57.5969C22.7439 58.3046 22.8059 59.4748 23.5096 60.135L38.7663 74.4938C39.1801 74.9156 39.5786 74.9928 40.0001 74.9999Z" fill="#D3E4F5"/>
</svg>
