<svg width="90" height="90" viewBox="0 0 90 90" fill="none" xmlns="http://www.w3.org/2000/svg">
<path d="M83.6463 74.7685C82.8359 74.6387 82.0831 75.2147 81.9669 76.0269C81.5324 79.0693 78.8812 81.3636 75.8018 81.3636C73.4093 81.3636 71.1989 79.9663 70.1712 77.8028C69.8197 77.0645 68.9335 76.7535 68.1934 77.0987C67.4533 77.4503 67.1378 78.3374 67.4903 79.0784C69.0075 82.2695 72.2707 84.3321 75.8027 84.3321C80.3505 84.3321 84.2647 80.9417 84.9074 76.4479C85.0219 75.6366 84.4576 74.8848 83.6463 74.7685Z" fill="#D3E4F5"/>
<path d="M78.489 63.9889L74.7425 40.7447H76.9024C77.876 40.7447 78.827 40.3499 79.5077 39.6684C80.1964 38.9823 80.5912 38.0313 80.5912 37.0568V29.9533C80.5912 28.9788 80.1964 28.026 79.5149 27.3499C78.8316 26.6621 77.8796 26.2654 76.9024 26.2654H70.2911C67.5552 26.2654 65.2565 28.1414 64.5957 30.6727H61.4757C60.6554 30.6727 59.991 31.338 59.991 32.1574C59.991 32.9768 60.6554 33.6421 61.4757 33.6421H64.3992V59.1958C64.3992 62.9125 61.3757 65.9378 57.6544 65.9378C55.701 65.9378 53.8386 65.0968 52.5441 63.6301C51.2514 62.1688 50.6483 60.2163 50.8908 58.2763L51.7994 51.0132C53.1697 50.4742 54.1451 49.1454 54.1451 47.5868V45.3809C54.1451 43.8097 53.5321 42.3304 52.4179 41.2153C51.3199 40.1173 49.8018 39.489 48.2522 39.489H28.4156C26.8659 39.489 25.3479 40.1173 24.2481 41.2153C23.1357 42.3304 22.5227 43.8097 22.5227 45.3809V47.5868C22.5227 49.6178 24.1733 51.2702 26.2034 51.2738C22.6381 53.9601 20.3186 58.215 20.3186 63.0135V74.0348C20.3186 74.8542 20.983 75.5195 21.8033 75.5195H26.0736C26.8019 80.5045 31.1587 84.3339 36.2547 84.3339C41.4092 84.3339 45.72 80.528 46.4439 75.5195H74.2341C76.275 75.5195 78.251 74.92 79.9476 73.7878L84.3386 70.8616C84.9615 70.446 85.1778 69.632 84.8434 68.9631C83.5534 66.3823 81.2159 64.6055 78.489 63.9889ZM26.2115 48.3053C25.8148 48.3053 25.4921 47.9825 25.4921 47.5859V45.38C25.4921 44.6129 25.804 43.8584 26.3476 43.3139C26.893 42.7712 27.6466 42.4575 28.4156 42.4575H48.2513C49.0193 42.4575 49.773 42.7703 50.3174 43.3139C50.8619 43.8593 51.1747 44.6129 51.1747 45.38V47.5859C51.1747 47.9825 50.852 48.3053 50.4554 48.3053H26.2115ZM36.2547 81.3636C32.7741 81.3636 29.775 78.8558 29.0808 75.5186H43.4276C42.7371 78.8693 39.7749 81.3636 36.2547 81.3636ZM64.9788 71.535L64.7246 72.55H23.288V63.0126C23.288 56.5392 28.5544 51.2738 35.0269 51.2738H48.7732L47.9439 57.9076C47.5959 60.6931 48.4613 63.4958 50.3184 65.5953C52.1754 67.7002 54.8482 68.9063 57.658 68.9063C63.0118 68.9063 67.3677 64.5496 67.3677 59.1958V33.6412H70.2911C71.1105 33.6412 71.7758 32.9759 71.7758 32.1565C71.7758 31.3371 71.1105 30.6718 70.2911 30.6718H67.7869C68.2971 29.8154 69.2238 29.234 70.2911 29.234H76.9024C77.0926 29.234 77.2774 29.3097 77.4145 29.4485C77.5461 29.5801 77.6218 29.7631 77.6218 29.9533V37.0568C77.6218 37.2461 77.5461 37.43 77.4091 37.5671C77.2765 37.7005 77.0917 37.7762 76.9024 37.7762H72.9991C72.5646 37.7762 72.1508 37.9673 71.8696 38.2981C71.5874 38.629 71.4648 39.0671 71.5333 39.4962L75.4394 63.7338H74.9697C70.2361 63.7338 66.1264 66.9421 64.9788 71.535ZM78.3006 71.3168C77.0926 72.1228 75.6864 72.55 74.2341 72.55H67.7851L67.859 72.2562C68.6757 68.9857 71.6 66.7032 74.9706 66.7032H76.3832C78.416 66.7032 80.2802 67.6308 81.4936 69.1894L78.3006 71.3168Z" fill="#D3E4F5"/>
<path d="M37.231 65.937H30.6197C29.8002 65.937 29.1358 66.6023 29.1358 67.4217C29.1358 68.2411 29.8002 68.9064 30.6197 68.9064H37.231C38.0513 68.9064 38.7157 68.2411 38.7157 67.4217C38.7157 66.6023 38.0513 65.937 37.231 65.937Z" fill="#D3E4F5"/>
<path d="M37.231 60.4551H30.6197C29.8002 60.4551 29.1358 61.1204 29.1358 61.9398C29.1358 62.7592 29.8002 63.4245 30.6197 63.4245H37.231C38.0513 63.4245 38.7157 62.7592 38.7157 61.9398C38.7157 61.1204 38.0513 60.4551 37.231 60.4551Z" fill="#D3E4F5"/>
<path d="M45.6019 25.5343V24.0902H48.5668C50.477 24.0902 52.0303 22.5361 52.0303 20.6268V13.956C52.0303 12.0458 50.4761 10.4926 48.5668 10.4926H45.6019V9.04301C45.6019 7.18149 44.0866 5.66614 42.2242 5.66614H9.0495C7.18708 5.66614 5.67172 7.18149 5.67172 9.04301V25.5343C5.67172 27.3959 7.18708 28.9112 9.0495 28.9112H42.2251C44.0875 28.9121 45.6019 27.3959 45.6019 25.5343ZM48.5668 13.462C48.8445 13.462 49.0617 13.6783 49.0617 13.9569V20.6277C49.0617 20.8963 48.8355 21.1226 48.5668 21.1226H45.6019V13.462H48.5668ZM8.64023 25.5343V9.04301C8.64023 8.81855 8.82413 8.63465 9.0486 8.63465H42.2242C42.4495 8.63465 42.6325 8.81855 42.6325 9.04301V25.5343C42.6325 25.7588 42.4495 25.9427 42.2242 25.9427H9.0495C8.82413 25.9427 8.64023 25.7588 8.64023 25.5343Z" fill="#D3E4F5"/>
<path d="M15.074 12.0873C14.2537 12.0873 13.5893 12.7526 13.5893 13.572V21.4895C13.5893 22.3089 14.2537 22.9742 15.074 22.9742C15.8934 22.9742 16.5578 22.3089 16.5578 21.4895V13.572C16.5578 12.7526 15.8934 12.0873 15.074 12.0873Z" fill="#D3E4F5"/>
<path d="M22.0008 12.0873C21.1814 12.0873 20.517 12.7526 20.517 13.572V21.4895C20.517 22.3089 21.1814 22.9742 22.0008 22.9742C22.8211 22.9742 23.4855 22.3089 23.4855 21.4895V13.572C23.4855 12.7526 22.8211 12.0873 22.0008 12.0873Z" fill="#D3E4F5"/>
<path d="M28.9285 12.0873C28.1091 12.0873 27.4447 12.7526 27.4447 13.572V21.4895C27.4447 22.3089 28.1091 22.9742 28.9285 22.9742C29.7489 22.9742 30.4132 22.3089 30.4132 21.4895V13.572C30.4132 12.7526 29.7489 12.0873 28.9285 12.0873Z" fill="#D3E4F5"/>
</svg>
