<svg width="90" height="90" viewBox="0 0 90 90" fill="none" xmlns="http://www.w3.org/2000/svg">
<path fill-rule="evenodd" clip-rule="evenodd" d="M21.1111 73.5042C21.9006 73.5039 22.6651 73.7812 23.2707 74.2878L32.6733 69.768C32.5998 69.0751 32.7432 68.3764 33.0838 67.7685C33.4245 67.1607 33.9455 66.6736 34.5749 66.3746C35.2043 66.0756 35.9111 65.9795 36.5975 66.0996C37.2839 66.2196 37.9161 66.5498 38.4067 67.0447C38.7446 67.3849 39.005 67.7941 39.1699 68.2444C39.3349 68.6947 39.4005 69.1753 39.3622 69.6533L48.6216 74.4311C49.2546 73.8418 50.0902 73.5189 50.955 73.5296C51.8198 73.5403 52.6473 73.8837 53.2656 74.4884L65.5158 69.5578C65.4884 68.7668 65.7408 67.9914 66.2286 67.3682C66.7164 66.7449 67.4084 66.3136 68.1829 66.1502C68.9573 65.9868 69.7645 66.1017 70.4626 66.4747C71.1607 66.8478 71.7048 67.455 71.9993 68.1897C72.2938 68.9243 72.3199 69.7393 72.0728 70.4912C71.8257 71.2431 71.3214 71.8839 70.6486 72.3007C69.9757 72.7175 69.1775 72.8836 68.3942 72.77C67.6109 72.6563 66.8928 72.27 66.3662 71.6791L54.2784 76.5333C54.3223 77.003 54.2668 77.4766 54.1157 77.9234C53.9645 78.3703 53.7211 78.7803 53.4012 79.1269C53.0813 79.4736 52.6921 79.749 52.2588 79.9355C51.8255 80.1219 51.3578 80.2151 50.8862 80.209C50.4145 80.203 49.9494 80.0978 49.5211 79.9003C49.0927 79.7028 48.7107 79.4174 48.3998 79.0626C48.0889 78.7079 47.8561 78.2917 47.7165 77.8412C47.5769 77.3906 47.5337 76.9157 47.5896 76.4473L38.4544 71.7556C38.1461 72.075 37.7778 72.3304 37.3706 72.5071C36.9634 72.6839 36.5253 72.7786 36.0814 72.7857C35.6376 72.7928 35.1967 72.7122 34.784 72.5485C34.3713 72.3849 33.995 72.1414 33.6767 71.832L24.4364 76.2849C24.5539 76.9618 24.4606 77.6585 24.1692 78.2806C23.8778 78.9028 23.4024 79.4205 22.8072 79.7637C22.2121 80.1069 21.5259 80.259 20.8414 80.1996C20.157 80.1401 19.5073 79.8718 18.9803 79.4311C18.4532 78.9904 18.0742 78.3985 17.8945 77.7354C17.7149 77.0722 17.7431 76.3699 17.9756 75.7234C18.208 75.0769 18.6334 74.5174 19.1942 74.1205C19.755 73.7236 20.4241 73.5085 21.1111 73.5042ZM52.8833 7.99133H77.2118C77.5159 7.99133 77.8075 8.11214 78.0226 8.32718C78.2376 8.54223 78.3584 8.83389 78.3584 9.138V17.0404C78.3584 17.3446 78.2376 17.6362 78.0226 17.8513C77.8075 18.0663 77.5159 18.1871 77.2118 18.1871H52.8833C52.5792 18.1871 52.2876 18.0663 52.0725 17.8513C51.8575 17.6362 51.7367 17.3446 51.7367 17.0404V9.138C51.7367 8.83389 51.8575 8.54223 52.0725 8.32718C52.2876 8.11214 52.5792 7.99133 52.8833 7.99133ZM76.0651 10.2751H54.03V15.8938H76.0651V10.2751ZM27.456 46.6627L20.2224 39.0182C14.1406 45.209 10.6072 53.4593 10.3229 62.1331H20.834C21.1028 56.3519 23.4432 50.8605 27.4273 46.6627H27.456ZM21.8756 37.4129C27.9343 31.9779 35.7181 28.8577 43.8533 28.6027V39.1138C38.404 39.3659 33.2019 41.4615 29.0996 45.0573L21.8756 37.4129ZM58.4638 46.0129L58.2822 49.1949C58.2742 49.3973 58.2078 49.5931 58.0911 49.7587L49.9307 62.1331H66.844C66.683 59.0054 65.8514 55.949 64.4055 53.1709C62.9596 50.3928 60.9332 47.9582 58.4638 46.032V46.0129ZM61.0629 45.2102L68.5162 37.7473C62.403 32.1066 54.4607 28.8598 46.1467 28.6027V39.1138C47.867 39.1972 49.5739 39.4598 51.2398 39.8973L57.1642 34.3838C57.3354 34.2289 57.5494 34.1293 57.7782 34.098C58.0069 34.0667 58.2398 34.1052 58.4463 34.2085C58.6528 34.3117 58.8233 34.4749 58.9356 34.6767C59.0478 34.8785 59.0965 35.1094 59.0753 35.3393L58.6071 43.3373C59.4636 43.92 60.2808 44.5584 61.0533 45.2484L61.0629 45.2102ZM70.9338 36.8969C65.7374 31.7813 59.1447 28.3161 51.9844 26.937C44.8241 25.5579 37.416 26.3264 30.6913 29.146C23.9666 31.9655 18.2256 36.7103 14.19 42.7836C10.1544 48.857 8.00449 55.9879 8.01044 63.2798C8.01044 63.5839 8.13125 63.8756 8.3463 64.0906C8.56134 64.3056 8.853 64.4264 9.15711 64.4264H41.3593C41.6493 65.1889 42.1642 65.8451 42.8358 66.3082C43.5073 66.7713 44.3037 67.0192 45.1194 67.0192C45.9352 67.0192 46.7316 66.7713 47.4031 66.3082C48.0747 65.8451 48.5896 65.1889 48.8796 64.4264H80.8429C81.147 64.4264 81.4387 64.3056 81.6537 64.0906C81.8687 63.8756 81.9896 63.5839 81.9896 63.2798C81.9948 58.4216 81.0402 53.6102 79.1806 49.122C77.321 44.6338 74.5931 40.5572 71.1536 37.1262L70.9338 36.916V36.8969ZM70.1502 39.3527C76.0272 45.5058 79.4293 53.6097 79.7058 62.114H69.1947C68.9233 56.4165 66.6414 50.9995 62.7542 46.8251L70.2076 39.3622L70.1502 39.3527ZM23.156 62.1331C23.3221 59.0048 24.1577 55.9486 25.6064 53.171C27.055 50.3933 29.0829 47.9589 31.5531 46.0322C34.0232 44.1056 36.8782 42.7315 39.9249 42.0028C42.9717 41.2741 46.1394 41.2079 49.214 41.8084L46.9684 43.9011C46.8003 44.0569 46.6836 44.2602 46.634 44.484L42.2958 60.1647C41.7424 60.7003 41.3543 61.3835 41.1778 62.1331H23.156ZM46.7582 63.5856C46.7152 63.3715 46.7186 63.1508 46.768 62.9382C46.8175 62.7255 46.9119 62.526 47.0449 62.3529L56.0176 48.8222L56.6387 38.0627L48.7649 45.4013L44.4267 61.0247C44.2547 61.7222 43.8629 61.6171 43.5571 62.286C42.5347 64.4647 45.9651 65.8216 46.7582 63.5856ZM4.29333 21.6558H85.7067V9.15711C85.7041 7.86793 85.1909 6.63228 84.2793 5.72069C83.3677 4.8091 82.1321 4.29586 80.8429 4.29333H9.17622C8.53625 4.29208 7.90229 4.41689 7.31055 4.66063C6.71881 4.90438 6.18087 5.2623 5.72745 5.71394C5.27404 6.16558 4.91401 6.70211 4.66795 7.29289C4.42188 7.88367 4.29459 8.51714 4.29333 9.15711V21.6558ZM85.7067 23.9778H4.29333V80.8429C4.29586 82.1321 4.8091 83.3677 5.72069 84.2793C6.63228 85.1909 7.86793 85.7041 9.15711 85.7067H80.8238C82.113 85.7041 83.3486 85.1909 84.2602 84.2793C85.1718 83.3677 85.685 82.1321 85.6876 80.8429V23.9778H85.7067ZM9.15711 2C7.26048 2.00504 5.44297 2.76071 4.10184 4.10184C2.76071 5.44297 2.00504 7.26048 2 9.15711V80.8238C1.99999 82.7237 2.75343 84.5461 4.09511 85.8914C5.43678 87.2366 7.25717 87.9949 9.15711 88H80.8238C82.7237 88 84.5461 87.2466 85.8914 85.9049C87.2366 84.5632 87.9949 82.7428 88 80.8429V9.17622C88 7.27628 87.2466 5.45387 85.9049 4.10861C84.5632 2.76336 82.7428 2.00506 80.8429 2H9.15711ZM29.5582 9.72089C30.2235 9.72089 30.8738 9.91816 31.4269 10.2878C31.98 10.6573 32.4112 11.1827 32.6657 11.7973C32.9203 12.4119 32.9869 13.0882 32.8571 13.7406C32.7274 14.3931 32.407 14.9924 31.9366 15.4628C31.4662 15.9332 30.8669 16.2536 30.2144 16.3834C29.562 16.5132 28.8857 16.4465 28.271 16.192C27.6564 15.9374 27.1311 15.5063 26.7615 14.9531C26.3919 14.4 26.1947 13.7497 26.1947 13.0844C26.1947 12.1924 26.549 11.3368 27.1798 10.7061C27.8106 10.0753 28.6662 9.72089 29.5582 9.72089ZM30.3227 12.3296C30.4453 12.4548 30.5354 12.6082 30.5849 12.7763C30.6344 12.9445 30.6418 13.1222 30.6065 13.2939C30.5713 13.4656 30.4943 13.626 30.3826 13.761C30.2708 13.8961 30.1275 14.0016 29.9654 14.0683C29.8033 14.135 29.6273 14.1608 29.4529 14.1436C29.2785 14.1263 29.1109 14.0665 28.965 13.9693C28.8191 13.8722 28.6993 13.7407 28.6162 13.5864C28.533 13.4321 28.489 13.2597 28.488 13.0844C28.4868 12.8713 28.5493 12.6627 28.6674 12.4854C28.7855 12.308 28.9539 12.1699 29.151 12.0888C29.3481 12.0077 29.5648 11.9873 29.7736 12.0302C29.9823 12.0731 30.1735 12.1773 30.3227 12.3296ZM20.5856 9.72089C21.2508 9.72089 21.9011 9.91816 22.4542 10.2878C23.0074 10.6573 23.4385 11.1827 23.6931 11.7973C23.9477 12.4119 24.0143 13.0882 23.8845 13.7406C23.7547 14.3931 23.4344 14.9924 22.9639 15.4628C22.4935 15.9332 21.8942 16.2536 21.2418 16.3834C20.5893 16.5132 19.913 16.4465 19.2984 16.192C18.6838 15.9374 18.1585 15.5063 17.7889 14.9531C17.4193 14.4 17.222 13.7497 17.222 13.0844C17.2245 12.1931 17.5797 11.3391 18.2099 10.7088C18.8402 10.0786 19.6943 9.72341 20.5856 9.72089ZM21.3404 12.3296C21.4631 12.4548 21.5532 12.6082 21.6027 12.7763C21.6521 12.9445 21.6596 13.1222 21.6243 13.2939C21.589 13.4656 21.5121 13.626 21.4003 13.761C21.2885 13.8961 21.1453 14.0016 20.9832 14.0683C20.8211 14.135 20.6451 14.1608 20.4707 14.1436C20.2962 14.1263 20.1287 14.0665 19.9828 13.9693C19.8369 13.8722 19.7171 13.7407 19.6339 13.5864C19.5508 13.4321 19.5067 13.2597 19.5058 13.0844C19.5046 12.8713 19.5671 12.6627 19.6852 12.4854C19.8033 12.308 19.9717 12.1699 20.1688 12.0888C20.3658 12.0077 20.5826 11.9873 20.7914 12.0302C21.0001 12.0731 21.1913 12.1773 21.3404 12.3296ZM11.6129 9.72089C12.2777 9.72278 12.9271 9.92165 13.479 10.2924C14.0308 10.6631 14.4605 11.1891 14.7136 11.8039C14.9667 12.4186 15.032 13.0946 14.9011 13.7465C14.7702 14.3983 14.4491 14.9967 13.9783 15.4662C13.5076 15.9356 12.9082 16.255 12.256 16.3841C11.6038 16.5131 10.928 16.4459 10.314 16.191C9.69991 15.9362 9.17515 15.5051 8.80598 14.9521C8.43681 14.3992 8.23978 13.7493 8.23978 13.0844C8.24231 12.1915 8.5988 11.336 9.23111 10.7055C9.86342 10.075 10.7199 9.72089 11.6129 9.72089ZM12.3678 12.3296C12.4905 12.4548 12.5805 12.6082 12.63 12.7763C12.6795 12.9445 12.6869 13.1222 12.6516 13.2939C12.6164 13.4656 12.5395 13.626 12.4277 13.761C12.3159 13.8961 12.1726 14.0016 12.0105 14.0683C11.8484 14.135 11.6724 14.1608 11.498 14.1436C11.3236 14.1263 11.156 14.0665 11.0101 13.9693C10.8642 13.8722 10.7444 13.7407 10.6613 13.5864C10.5781 13.4321 10.5341 13.2597 10.5331 13.0844C10.5319 12.8713 10.5944 12.6627 10.7125 12.4854C10.8306 12.308 10.999 12.1699 11.1961 12.0888C11.3932 12.0077 11.61 11.9873 11.8187 12.0302C12.0275 12.0731 12.2186 12.1773 12.3678 12.3296ZM69.7011 68.7073C69.5511 68.5585 69.3604 68.4574 69.153 68.4167C68.9456 68.3761 68.7309 68.3978 68.5358 68.479C68.3407 68.5603 68.1741 68.6975 68.0568 68.8733C67.9396 69.0491 67.877 69.2557 67.877 69.467C67.877 69.6783 67.9396 69.8849 68.0568 70.0607C68.1741 70.2365 68.3407 70.3737 68.5358 70.455C68.7309 70.5362 68.9456 70.5579 69.153 70.5173C69.3604 70.4766 69.5511 70.3755 69.7011 70.2267C69.9013 70.0245 70.0135 69.7515 70.0135 69.467C70.0135 69.1825 69.9013 68.9095 69.7011 68.7073ZM36.83 68.7073C36.68 68.5585 36.4893 68.4574 36.2819 68.4167C36.0745 68.3761 35.8598 68.3978 35.6647 68.479C35.4696 68.5603 35.303 68.6975 35.1857 68.8733C35.0685 69.0491 35.0059 69.2557 35.0059 69.467C35.0059 69.6783 35.0685 69.8849 35.1857 70.0607C35.303 70.2365 35.4696 70.3737 35.6647 70.455C35.8598 70.5362 36.0745 70.5579 36.2819 70.5173C36.4893 70.4766 36.68 70.3755 36.83 70.2267C37.0302 70.0245 37.1424 69.7515 37.1424 69.467C37.1424 69.1825 37.0302 68.9095 36.83 68.7073ZM51.6889 76.1129C51.5389 75.964 51.3482 75.8629 51.1408 75.8223C50.9334 75.7817 50.7187 75.8033 50.5236 75.8846C50.3285 75.9658 50.1618 76.103 50.0446 76.2788C49.9274 76.4546 49.8648 76.6612 49.8648 76.8726C49.8648 77.0839 49.9274 77.2905 50.0446 77.4663C50.1618 77.6421 50.3285 77.7793 50.5236 77.8605C50.7187 77.9418 50.9334 77.9634 51.1408 77.9228C51.3482 77.8822 51.5389 77.7811 51.6889 77.6322C51.7891 77.5327 51.8687 77.4144 51.923 77.284C51.9773 77.1536 52.0053 77.0138 52.0053 76.8726C52.0053 76.7313 51.9773 76.5915 51.923 76.4611C51.8687 76.3307 51.7891 76.2124 51.6889 76.1129ZM21.866 76.1129C21.716 75.964 21.5253 75.8629 21.3179 75.8223C21.1105 75.7817 20.8958 75.8033 20.7007 75.8846C20.5056 75.9658 20.339 76.103 20.2217 76.2788C20.1045 76.4546 20.0419 76.6612 20.0419 76.8726C20.0419 77.0839 20.1045 77.2905 20.2217 77.4663C20.339 77.6421 20.5056 77.7793 20.7007 77.8605C20.8958 77.9418 21.1105 77.9634 21.3179 77.9228C21.5253 77.8822 21.716 77.7811 21.866 77.6322C21.9663 77.5327 22.0458 77.4144 22.1001 77.284C22.1544 77.1536 22.1824 77.0138 22.1824 76.8726C22.1824 76.7313 22.1544 76.5915 22.1001 76.4611C22.0458 76.3307 21.9663 76.2124 21.866 76.1129Z" fill="#D3E4F5"/>
</svg>
