<svg xmlns="http://www.w3.org/2000/svg" viewBox="0 0 795 459.55"><defs><style>.cls-1{fill:#fff;}.cls-2{fill:#05386b;}</style></defs><title>Asset 1</title><g id="Layer_2" data-name="Layer 2"><g id="mountain-1"><path class="cls-1" d="M239.41,401.75c5.68,11,11.73,26.53,20.52,24.64,13.65-2.94,24.72-13.72,33.7-19.13,8.27-5,19.45-12.42,42.4-10.26s90.78,27,107.74,33.5,45.89,17.29,62.85,23.78,33.92,7.56,51.88,0,66.34-35.13,90.29-42.69,52.37-18.92,76.32-18.92,41.9,7.57,50.87,7.57S799.85,390,793.44,377c-8-16.21-37.91-29.18-60.85-33.5-27.68-5.21-70.83-3.24-109.74,7.57,0,0,50.88-45.39,101.26-39.45,0,0-57.37-50.25-117.22-21.07,0,0,26.43-25.4,50.38-25.4,0,0-11-19.45-42.9-21.62S429.81,264.07,365,291.09c0,0-160.56-90.36-216.43-96.85,0,0-4.54-29.06-45.45-37.7,0,0,7,41.06-7,61.6,0,0-9-29.18-19.95-42.15S53.7,152.75,39.23,149c-15.33-4-34.41-.54-38.4,5.94s7.48,17.84,13,28.1c5.58,10.46,12,24.86,13.46,40.53,1.55,16.16,1,41.07-.5,54.58-1.56,14.11-1,42.15,4,51.87s16,18.37,28.94,20.54a406.82,406.82,0,0,0,53.87,4.32c16,0,61.35-.54,82.8,10.81C218.5,377.37,233.55,390.38,239.41,401.75Z"/><path class="cls-2" d="M283.38,354s24.43-28.34,50.82-32.25S452.44,330.56,511.07,354L616.6,247.5,540.38,124.38s-26.38-49.84-59.6,0c-8.8,12.7-12.71,19.54-12.71,19.54L396.74,17.86s-12.71-30.29-34.2,0S283.38,140,283.38,140L245.27,101.9s-14.65-19.54-28.33,0S90.88,291.48,90.88,291.48s69.38-2.94,91.85,1S280.45,317.86,283.38,354Z"/><path class="cls-1" d="M511.07,358.41a4.37,4.37,0,0,1-1.63-.31c-57.24-22.9-148-35.93-174.6-32-24.42,3.62-47.89,30.5-48.13,30.77a4.4,4.4,0,0,1-7.71-2.52c-2.55-31.51-72-53.24-97-57.58-21.76-3.79-90.23-1-90.92-.92a4.4,4.4,0,0,1-3.85-6.82c1.12-1.7,112.57-170.3,126.12-189.67,4.84-6.9,10.47-10.46,16.76-10.56,9.74-.12,17.12,8.45,18.48,10.16l34,34c12-19.12,57.82-91.58,76.35-117.69C366.74,4.34,374.72-.79,382.69.1c11,1.22,17.06,13.73,18,15.79l67.55,119.38c2.08-3.28,5-7.76,8.93-13.4,11-16.53,22.84-24.61,35.13-24,18.75,1,30.74,22.17,31.9,24.32l76.15,123a4.4,4.4,0,0,1-.61,5.41L514.19,357.11A4.38,4.38,0,0,1,511.07,358.41ZM346.25,316.68c36.23,0,112.36,12.27,163.73,32.18L611,246.87,536.65,126.69a1.35,1.35,0,0,1-.15-.26c-.1-.18-10.34-19.08-24.68-19.79-9-.44-18.17,6.35-27.39,20.18-8.59,12.41-12.5,19.22-12.54,19.28a4.4,4.4,0,0,1-3.82,2.22h0a4.4,4.4,0,0,1-3.81-2.23L392.91,20c-.08-.15-.16-.31-.23-.47-1.18-2.77-5.46-10.13-11-10.72-4.48-.49-9.86,3.52-15.58,11.57-21.18,29.84-78.44,121-79,121.94a4.4,4.4,0,0,1-6.84.77L242.16,105a4.51,4.51,0,0,1-.4-.47c-1.49-2-6.47-7-11.55-6.93-3.3.07-6.56,2.36-9.67,6.81-11.89,17-99.79,149.86-121.28,182.35,19.41-.65,66.08-1.8,84.23,1.35a260.45,260.45,0,0,1,58.78,19c23.92,11.3,38.53,24,43.6,37.89,9.07-8.91,27.61-24.66,47.68-27.63A90.56,90.56,0,0,1,346.25,316.68Z"/><path class="cls-1" d="M417.25,227.47a4.34,4.34,0,0,1-2.36-.69,4.41,4.41,0,0,1-1.34-6.08l57.35-89.56a4.4,4.4,0,0,1,7.41,4.74L421,225.44A4.4,4.4,0,0,1,417.25,227.47Z"/><path class="cls-1" d="M471,237.24a4.39,4.39,0,0,1-3.7-6.77l32.25-50.36a4.39,4.39,0,0,1,7.4,4.74l-32.24,50.37A4.39,4.39,0,0,1,471,237.24Z"/><path class="cls-1" d="M474.57,188.38a4.39,4.39,0,0,1-3.71-6.76l21.84-34.2a4.4,4.4,0,0,1,7.42,4.73l-21.84,34.2A4.38,4.38,0,0,1,474.57,188.38Z"/><path class="cls-1" d="M440.71,241.15a4.39,4.39,0,0,1-3.71-6.76l18.57-29.08A4.4,4.4,0,0,1,463,210l-18.56,29.08A4.4,4.4,0,0,1,440.71,241.15Z"/><path class="cls-1" d="M220.84,242.13a4.4,4.4,0,0,1-3.7-6.77l74.59-116.82a4.4,4.4,0,0,1,7.41,4.73L224.55,240.1A4.4,4.4,0,0,1,220.84,242.13Z"/><path class="cls-1" d="M164.16,226.86a4.34,4.34,0,0,1-2.36-.69,4.4,4.4,0,0,1-1.34-6.08l44.95-70.4a4.4,4.4,0,1,1,7.41,4.74l-44.95,70.4A4.4,4.4,0,0,1,164.16,226.86Z"/><path class="cls-1" d="M289.24,194.25a4.41,4.41,0,0,1-3.7-6.77l57.65-90.3a4.4,4.4,0,0,1,7.42,4.74L293,192.21A4.39,4.39,0,0,1,289.24,194.25Z"/><path class="cls-1" d="M342,157.84a4.34,4.34,0,0,1-2.36-.69,4.39,4.39,0,0,1-1.34-6.07l24.43-38.26a4.4,4.4,0,0,1,7.41,4.73l-24.43,38.26A4.38,4.38,0,0,1,342,157.84Z"/></g></g></svg>