<svg width="90" height="90" viewBox="0 0 90 90" fill="none" xmlns="http://www.w3.org/2000/svg">
<path d="M62 42C61.7348 42 61.4804 42.1054 61.2929 42.2929C61.1053 42.4804 61 42.7348 61 43V44.34L58.25 41.59C58.063 41.4017 57.8089 41.2954 57.5435 41.2944C57.2782 41.2935 57.0233 41.398 56.835 41.585C56.6467 41.772 56.5404 42.0261 56.5394 42.2915C56.5385 42.5568 56.643 42.8117 56.83 43L59.83 46H58C57.7348 46 57.4804 46.1054 57.2929 46.2929C57.1053 46.4804 57 46.7348 57 47C57 47.2652 57.1053 47.5196 57.2929 47.7071C57.4804 47.8946 57.7348 48 58 48H62C62.2652 48 62.5196 47.8946 62.7071 47.7071C62.8946 47.5196 63 47.2652 63 47V43C63 42.7348 62.8946 42.4804 62.7071 42.2929C62.5196 42.1054 62.2652 42 62 42Z" fill="#81956C"/>
<path d="M30 46H27.66L30.66 43C30.8238 42.8087 30.9094 42.5626 30.8997 42.311C30.89 42.0593 30.7857 41.8205 30.6076 41.6424C30.4295 41.4643 30.1907 41.36 29.9391 41.3503C29.6874 41.3406 29.4413 41.4262 29.25 41.59L26 44.84V43C26 42.7348 25.8946 42.4804 25.7071 42.2929C25.5196 42.1054 25.2652 42 25 42C24.7348 42 24.4804 42.1054 24.2929 42.2929C24.1054 42.4804 24 42.7348 24 43V47C24 47.2652 24.1054 47.5196 24.2929 47.7071C24.4804 47.8946 24.7348 48 25 48H30C30.2652 48 30.5196 47.8946 30.7071 47.7071C30.8946 47.5196 31 47.2652 31 47C31 46.7348 30.8946 46.4804 30.7071 46.2929C30.5196 46.1054 30.2652 46 30 46Z" fill="#81956C"/>
<path d="M70.41 6H66V5C66 4.73478 65.8946 4.48043 65.7071 4.29289C65.5196 4.10536 65.2652 4 65 4H25C24.7348 4 24.4804 4.10536 24.2929 4.29289C24.1054 4.48043 24 4.73478 24 5V6H19.59C18.1083 6.00264 16.6879 6.59244 15.6402 7.64019C14.5924 8.68795 14.0026 10.1083 14 11.59V80.41C14.0026 81.8918 14.5924 83.3121 15.6402 84.3598C16.6879 85.4076 18.1083 85.9974 19.59 86H70.41C71.8918 85.9974 73.3121 85.4076 74.3598 84.3598C75.4076 83.3121 75.9974 81.8918 76 80.41V11.59C75.9974 10.1083 75.4076 8.68795 74.3598 7.64019C73.3121 6.59244 71.8918 6.00264 70.41 6ZM26 6H64V7C64.0031 8.26761 63.5246 9.48909 62.6614 10.4173C61.7981 11.3456 60.6145 11.9113 59.35 12H31C29.6935 11.9391 28.4568 11.3928 27.532 10.468C26.6072 9.54318 26.0609 8.30647 26 7V6ZM74 80.41C73.9974 81.3613 73.6183 82.2729 72.9456 82.9456C72.2729 83.6183 71.3613 83.9974 70.41 84H19.59C18.6387 83.9974 17.7271 83.6183 17.0544 82.9456C16.3817 82.2729 16.0026 81.3613 16 80.41V11.59C16.0026 10.6387 16.3817 9.72709 17.0544 9.0544C17.7271 8.38172 18.6387 8.00264 19.59 8H24H24.09C24.3852 9.63801 25.2313 11.126 26.4881 12.2172C27.7448 13.3085 29.3368 13.9375 31 14H59.35C60.9789 13.9418 62.534 13.3064 63.7375 12.2073C64.9411 11.1081 65.7146 9.61692 65.92 8H70.4C71.3531 8 72.2672 8.37791 72.9421 9.05088C73.6169 9.72385 73.9974 10.637 74 11.59V80.41Z" fill="#81956C"/>
<path d="M45 17.75C35.86 17.75 28.42 22.75 28.42 29C28.42 35.25 35.86 40.25 45 40.25C54.14 40.25 61.58 35.2 61.58 29C61.58 22.8 54.14 17.75 45 17.75ZM45 38.25C37 38.25 30.42 34.1 30.42 29C30.42 23.9 37 19.75 45 19.75C53 19.75 59.58 23.9 59.58 29C59.58 34.1 53 38.25 45 38.25Z" fill="#81956C"/>
<path d="M36 27H53C53.2652 27 53.5196 26.8946 53.7071 26.7071C53.8946 26.5196 54 26.2652 54 26C54 25.7348 53.8946 25.4804 53.7071 25.2929C53.5196 25.1054 53.2652 25 53 25H36C35.7348 25 35.4804 25.1054 35.2929 25.2929C35.1054 25.4804 35 25.7348 35 26C35 26.2652 35.1054 26.5196 35.2929 26.7071C35.4804 26.8946 35.7348 27 36 27Z" fill="#81956C"/>
<path d="M56 30H34C33.7348 30 33.4804 30.1054 33.2929 30.2929C33.1054 30.4804 33 30.7348 33 31C33 31.2652 33.1054 31.5196 33.2929 31.7071C33.4804 31.8946 33.7348 32 34 32H56C56.2652 32 56.5196 31.8946 56.7071 31.7071C56.8946 31.5196 57 31.2652 57 31C57 30.7348 56.8946 30.4804 56.7071 30.2929C56.5196 30.1054 56.2652 30 56 30Z" fill="#81956C"/>
<path d="M41 51H21C20.7348 51 20.4804 51.1054 20.2929 51.2929C20.1054 51.4804 20 51.7348 20 52V63C20 63.2652 20.1054 63.5196 20.2929 63.7071C20.4804 63.8946 20.7348 64 21 64H41C41.2652 64 41.5196 63.8946 41.7071 63.7071C41.8946 63.5196 42 63.2652 42 63V52C42 51.7348 41.8946 51.4804 41.7071 51.2929C41.5196 51.1054 41.2652 51 41 51ZM40 62H22V53H40V62Z" fill="#81956C"/>
<path d="M25 57H34C34.2652 57 34.5196 56.8946 34.7071 56.7071C34.8946 56.5196 35 56.2652 35 56C35 55.7348 34.8946 55.4804 34.7071 55.2929C34.5196 55.1054 34.2652 55 34 55H25C24.7348 55 24.4804 55.1054 24.2929 55.2929C24.1054 55.4804 24 55.7348 24 56C24 56.2652 24.1054 56.5196 24.2929 56.7071C24.4804 56.8946 24.7348 57 25 57Z" fill="#81956C"/>
<path d="M25 60H37C37.2652 60 37.5196 59.8946 37.7071 59.7071C37.8946 59.5196 38 59.2652 38 59C38 58.7348 37.8946 58.4804 37.7071 58.2929C37.5196 58.1054 37.2652 58 37 58H25C24.7348 58 24.4804 58.1054 24.2929 58.2929C24.1054 58.4804 24 58.7348 24 59C24 59.2652 24.1054 59.5196 24.2929 59.7071C24.4804 59.8946 24.7348 60 25 60Z" fill="#81956C"/>
<path d="M25 73H34C34.2652 73 34.5196 72.8946 34.7071 72.7071C34.8946 72.5196 35 72.2652 35 72C35 71.7348 34.8946 71.4804 34.7071 71.2929C34.5196 71.1054 34.2652 71 34 71H25C24.7348 71 24.4804 71.1054 24.2929 71.2929C24.1054 71.4804 24 71.7348 24 72C24 72.2652 24.1054 72.5196 24.2929 72.7071C24.4804 72.8946 24.7348 73 25 73Z" fill="#81956C"/>
<path d="M41 67H21C20.7348 67 20.4804 67.1054 20.2929 67.2929C20.1054 67.4804 20 67.7348 20 68V79C20 79.2652 20.1054 79.5196 20.2929 79.7071C20.4804 79.8946 20.7348 80 21 80H41C41.2652 80 41.5196 79.8946 41.7071 79.7071C41.8946 79.5196 42 79.2652 42 79V68C42 67.7348 41.8946 67.4804 41.7071 67.2929C41.5196 67.1054 41.2652 67 41 67ZM40 78H22V69H40V78Z" fill="#81956C"/>
<path d="M25 76H37C37.2652 76 37.5196 75.8946 37.7071 75.7071C37.8946 75.5196 38 75.2652 38 75C38 74.7348 37.8946 74.4804 37.7071 74.2929C37.5196 74.1054 37.2652 74 37 74H25C24.7348 74 24.4804 74.1054 24.2929 74.2929C24.1054 74.4804 24 74.7348 24 75C24 75.2652 24.1054 75.5196 24.2929 75.7071C24.4804 75.8946 24.7348 76 25 76Z" fill="#81956C"/>
<path d="M69 67H49C48.7348 67 48.4804 67.1054 48.2929 67.2929C48.1054 67.4804 48 67.7348 48 68V79C48 79.2652 48.1054 79.5196 48.2929 79.7071C48.4804 79.8946 48.7348 80 49 80H69C69.2652 80 69.5196 79.8946 69.7071 79.7071C69.8946 79.5196 70 79.2652 70 79V68C70 67.7348 69.8946 67.4804 69.7071 67.2929C69.5196 67.1054 69.2652 67 69 67ZM68 78H50V69H68V78Z" fill="#81956C"/>
<path d="M53 73H62C62.2652 73 62.5196 72.8946 62.7071 72.7071C62.8946 72.5196 63 72.2652 63 72C63 71.7348 62.8946 71.4804 62.7071 71.2929C62.5196 71.1054 62.2652 71 62 71H53C52.7348 71 52.4804 71.1054 52.2929 71.2929C52.1054 71.4804 52 71.7348 52 72C52 72.2652 52.1054 72.5196 52.2929 72.7071C52.4804 72.8946 52.7348 73 53 73Z" fill="#81956C"/>
<path d="M53 76H65C65.2652 76 65.5196 75.8946 65.7071 75.7071C65.8946 75.5196 66 75.2652 66 75C66 74.7348 65.8946 74.4804 65.7071 74.2929C65.5196 74.1054 65.2652 74 65 74H53C52.7348 74 52.4804 74.1054 52.2929 74.2929C52.1054 74.4804 52 74.7348 52 75C52 75.2652 52.1054 75.5196 52.2929 75.7071C52.4804 75.8946 52.7348 76 53 76Z" fill="#81956C"/>
<path d="M69 51H49C48.7348 51 48.4804 51.1054 48.2929 51.2929C48.1054 51.4804 48 51.7348 48 52V63C48 63.2652 48.1054 63.5196 48.2929 63.7071C48.4804 63.8946 48.7348 64 49 64H69C69.2652 64 69.5196 63.8946 69.7071 63.7071C69.8946 63.5196 70 63.2652 70 63V52C70 51.7348 69.8946 51.4804 69.7071 51.2929C69.5196 51.1054 69.2652 51 69 51ZM68 62H59.21C59.2837 61.9363 59.3477 61.8622 59.4 61.78V61.72L62.8 55.19C62.872 55.073 62.919 54.9424 62.9383 54.8064C62.9576 54.6703 62.9486 54.5318 62.9119 54.3994C62.8753 54.267 62.8117 54.1435 62.7253 54.0368C62.6388 53.93 62.5313 53.8422 62.4094 53.7789C62.2875 53.7155 62.1538 53.6779 62.0168 53.6685C61.8797 53.6591 61.7422 53.678 61.6128 53.7241C61.4833 53.7702 61.3648 53.8424 61.2645 53.9364C61.1643 54.0303 61.0844 54.1439 61.03 54.27L58.37 59.39L56.87 57.39C56.7109 57.1778 56.474 57.0376 56.2114 57C55.9489 56.9625 55.6822 57.0309 55.47 57.19C55.2578 57.3491 55.1176 57.586 55.0801 57.8486C55.0425 58.1111 55.1109 58.3778 55.27 58.59L57.72 61.86C57.8054 61.9211 57.8999 61.9683 58 62H50V53H68V62Z" fill="#81956C"/>
</svg>
