<svg width="90" height="90" viewBox="0 0 90 90" fill="none" xmlns="http://www.w3.org/2000/svg">
<path d="M83.3548 74.0042V78.0028C83.3548 78.7377 82.7615 79.3357 82.0323 79.3357C81.303 79.3357 80.7097 78.7377 80.7097 78.0028V61.8958C80.7097 58.283 77.7932 55.3441 74.2085 55.3441C73.2255 55.3441 72.2586 55.5718 71.378 56.0013C71.4263 55.3442 71.4516 54.6806 71.4516 54.0112C71.4516 53.6741 71.443 53.3348 71.4305 52.9957C72.5039 51.8604 73.2343 50.385 73.4396 48.731L73.8733 45.2343C73.9974 44.2331 74.2776 43.2636 74.706 42.3521L85.8727 18.5944L83.4823 17.4531L72.3156 41.2108C71.7667 42.3786 71.4076 43.6208 71.2484 44.9034L70.8148 48.4003C70.5124 50.8391 68.4451 52.6783 66.0061 52.6783C64.4304 52.6783 62.9922 51.9239 62.0901 50.6692L64.4515 48.2894L62.5811 46.4043L58.9131 50.1009C58.2106 50.8088 57.2096 51.1144 56.2357 50.9179L55.3186 50.7332C53.9378 50.4549 52.9357 49.223 52.9357 47.8037C52.9357 47.0056 53.244 46.2554 53.8039 45.6913L56.516 42.958L54.6456 41.073L51.9335 43.8063C51.4034 44.3404 50.9928 44.9625 50.7144 45.6401L49.0492 45.0808C48.0613 44.7491 47.2608 44.0493 46.7951 43.1107C46.3294 42.172 46.2543 41.1069 46.5836 40.1112C47.0416 38.7267 48.2129 37.718 49.6411 37.4781C53.0924 36.8983 56.1183 34.8402 57.9428 31.8314L69.9353 12.0547L67.678 10.6643L56.0745 29.7996C53.1818 28.457 50.0415 27.6481 46.849 27.422L54.1308 11.9301L51.7404 10.7888L43.9434 27.377C35.1774 27.7259 27.495 32.3936 22.9374 39.3233C22.6636 39.293 22.3933 39.2364 22.1304 39.148L19.9521 38.4163C18.9642 38.0846 18.1637 37.3848 17.698 36.4462C17.2323 35.5075 17.1572 34.4424 17.4865 33.4467C17.9445 32.0622 19.1158 31.0535 20.544 30.8136C23.9953 30.2338 27.0212 28.1757 28.8457 25.1669L40.8382 5.39018L38.5812 4L26.5887 23.7768C25.1648 26.1253 22.803 27.7314 20.1092 28.1839C17.7122 28.5866 15.7457 30.28 14.9771 32.6033C14.4244 34.2744 14.5506 36.0626 15.332 37.6381C15.4233 37.8222 15.523 38.0001 15.6293 38.1729C14.7372 39.1415 13.9883 40.2287 13.3978 41.4193L15.7637 42.6115C16.2163 41.6992 16.7847 40.8624 17.4566 40.1104C17.9613 40.4618 18.5176 40.7442 19.1159 40.9453L21.2941 41.6768C21.3688 41.702 21.4438 41.7251 21.5192 41.7475C19.6223 45.4209 18.5484 49.5917 18.5484 54.0112C18.5484 57.9331 19.3937 61.6597 20.9094 65.0163L8.99836 71.8756C7.54683 72.7115 6.64516 74.2774 6.64516 75.962C6.64516 78.5571 8.74029 80.6685 11.3154 80.6685H21.1935C21.9228 80.6685 22.5161 81.2665 22.5161 82.0014C22.5161 82.7363 21.9228 83.3343 21.1935 83.3343H4V86H21.1935C23.3813 86 25.1613 84.2061 25.1613 82.0014C25.1613 79.7967 23.3813 78.0028 21.1935 78.0028H11.3154C10.1988 78.0028 9.29032 77.0873 9.29032 75.962C9.29032 75.2314 9.68131 74.5525 10.3107 74.1901L22.1263 67.3858C26.7132 75.3222 35.2483 80.6685 45 80.6685C57.7703 80.6685 68.4556 71.5014 70.9176 59.354L72.2248 58.5636C72.824 58.2012 73.5099 58.0098 74.2085 58.0098C76.3347 58.0098 78.0645 59.753 78.0645 61.8958V78.0028C78.0645 80.2075 79.8445 82.0014 82.0323 82.0014C84.22 82.0014 86 80.2075 86 78.0028V74.0042H83.3548ZM49.2058 34.8482C46.8088 35.2509 44.8423 36.9443 44.0737 39.2677C43.521 40.9388 43.6472 42.727 44.4286 44.3024C44.5199 44.4865 44.6196 44.6645 44.7259 44.8372C43.834 45.8057 43.0851 46.8928 42.4944 48.0836L44.8603 49.2758C45.3131 48.3633 45.8813 47.5266 46.553 46.7747C47.0578 47.1263 47.6142 47.4087 48.2124 47.6096L50.3135 48.3153C50.4416 49.7307 51.0956 51.0162 52.0918 51.9484L50.4785 54.6583L52.7469 56.0298L54.4017 53.2501C54.5325 53.2866 54.6648 53.3198 54.7995 53.3469L55.7165 53.5317C56.0844 53.6058 56.4542 53.6421 56.8214 53.6421C58.0239 53.6421 59.1954 53.2518 60.1642 52.5245C61.1757 53.8001 62.564 54.6984 64.1273 55.1021C63.5444 56.3644 62.6282 57.4483 61.4597 58.2334L62.9269 60.4514C64.7865 59.2019 66.1735 57.3923 66.9056 55.2874C67.5627 55.2073 68.1954 55.0412 68.7921 54.7992C68.6949 57.8194 68.0425 60.7007 66.9324 63.3411H60.871C60.7263 63.3411 60.5823 63.3378 60.438 63.3358C60.8536 62.6946 61.253 62.0435 61.6339 61.3821L59.3462 60.0437C58.736 61.1032 58.0764 62.1353 57.3722 63.1387C56.3798 63.0242 55.4018 62.8619 54.4403 62.6535C55.0685 61.8155 55.6668 60.9511 56.23 60.0581L53.9978 58.6279C53.2784 59.7687 52.4939 60.8625 51.6546 61.9086C50.7547 61.621 49.8729 61.2925 49.0111 60.9249C49.8349 59.9521 50.6043 58.9338 51.3099 57.8748L49.1139 56.389C48.3251 57.5729 47.4645 58.6895 46.5413 59.7365C44.1382 58.443 41.9257 56.8345 39.9608 54.9622C40.761 53.7958 41.5054 52.593 42.1882 51.3559L39.8767 50.0602C39.3212 51.0665 38.7224 52.049 38.0836 53.0064C37.4686 52.3068 36.8851 51.5782 36.3348 50.8231C40.1742 44.7621 42.3252 37.6341 42.3535 30.1687C43.2228 30.0714 44.1054 30.0196 45 30.0196C48.3197 30.0196 51.5068 30.6882 54.4975 32.0054C53.1005 33.4969 51.2492 34.505 49.2058 34.8482ZM21.1935 54.0112C21.1935 53.1187 21.2438 52.2378 21.3385 51.3703C21.7773 52.3143 22.2473 53.241 22.7511 54.1483C22.2567 54.5368 21.7479 54.911 21.2263 55.2719C21.2048 54.8542 21.1935 54.434 21.1935 54.0112ZM23.8817 42.9459C24.5889 45.5516 25.5556 48.0373 26.7487 50.3771C26.1337 51.071 25.486 51.7395 24.8054 52.3789C23.8372 50.5804 23.0032 48.7055 22.306 46.7597C22.7236 45.4352 23.2526 44.1603 23.8817 42.9459ZM37.0311 31.4036C37.9004 31.0915 38.7923 30.8281 39.7046 30.6185C39.6004 36.9906 37.8351 43.0848 34.7235 48.375C34.1834 47.4616 33.689 46.5171 33.2434 45.5446C35.5282 41.185 36.8276 36.3447 37.0311 31.4036ZM31.9387 42.1873C31.199 39.8916 30.7191 37.4745 30.5359 34.9693C31.7129 34.0592 32.9759 33.2571 34.3111 32.5782C34.0371 35.9417 33.2264 39.1777 31.9387 42.1873ZM33.1436 50.8278C32.601 51.5995 32.0278 52.3503 31.425 53.0782C30.8937 52.2994 30.3924 51.4972 29.9214 50.674C30.531 49.8991 31.1063 49.0964 31.6462 48.2687C32.1065 49.1422 32.6056 49.9963 33.1436 50.8278ZM49.7704 64.076C49.0969 64.7904 48.3947 65.476 47.667 66.1319C46.7572 65.7676 45.8646 65.3677 44.9921 64.9315C45.7253 64.3141 46.4332 63.6653 47.112 62.9869C47.9819 63.3896 48.8692 63.7518 49.7704 64.076ZM50.5082 67.1313C51.2277 66.4303 51.9184 65.7011 52.5809 64.9457C53.5515 65.1988 54.5351 65.4079 55.5297 65.5711C54.8764 66.3702 54.1914 67.1456 53.4779 67.8972C52.4727 67.6839 51.4821 67.4282 50.5082 67.1313ZM42.4993 63.557C40.4144 62.2976 38.4645 60.8285 36.6795 59.1749C37.2733 58.5005 37.847 57.8102 38.3972 57.1031C40.3143 58.897 42.4091 60.4386 44.6391 61.7105C43.9529 62.3616 43.238 62.9764 42.4993 63.557ZM34.7966 57.297C34.1896 56.6448 33.6065 55.9692 33.048 55.2714C33.6461 54.5728 34.2193 53.8542 34.765 53.1162C35.3179 53.8309 35.9013 54.5257 36.5148 55.1983C35.9658 55.915 35.3929 56.6149 34.7966 57.297ZM29.6075 55.1115C28.9905 55.7507 28.3482 56.3677 27.6823 56.962C27.1513 56.2287 26.6431 55.4813 26.1635 54.7169C26.8335 54.1055 27.4813 53.4695 28.1001 52.8054C28.5764 53.5935 29.0784 54.3632 29.6075 55.1115ZM24.1196 56.44C24.601 57.1932 25.1064 57.9321 25.6349 58.6566C24.5486 59.4898 23.4085 60.265 22.2182 60.9772C21.9489 60.0844 21.7287 59.17 21.5635 58.2369C22.4439 57.6781 23.2966 57.0781 24.1196 56.44ZM23.145 63.5195C24.5875 62.6813 25.9624 61.7571 27.2657 60.7557C27.8294 61.4376 28.4143 62.1059 29.0226 62.7585C27.5317 63.9206 25.9662 64.9747 24.3367 65.9159C23.8966 65.1431 23.4991 64.3431 23.145 63.5195ZM29.3125 59.0673C29.9748 58.4815 30.6151 57.8743 31.2328 57.2472C31.7937 57.9338 32.3781 58.5994 32.9834 59.2442C32.3613 59.8708 31.7205 60.4746 31.064 61.0576C30.4559 60.4103 29.8738 59.7455 29.3125 59.0673ZM34.8619 61.1215C34.8636 61.1199 34.8652 61.1182 34.8667 61.1165C36.5061 62.6375 38.2747 64.014 40.1534 65.2281C39.3233 65.7612 38.4679 66.2524 37.5902 66.7011C35.9635 65.5683 34.4124 64.3109 32.9483 62.9376C33.602 62.3524 34.2406 61.7475 34.8619 61.1215ZM40.8015 67.9416C41.4373 67.5573 42.0591 67.1478 42.6688 66.7197C43.5457 67.1957 44.4415 67.6398 45.3564 68.0471C44.5424 68.6672 43.7032 69.253 42.8406 69.8015C41.9204 69.3468 41.0159 68.8587 40.1304 68.3345C40.3551 68.2059 40.5793 68.0761 40.8015 67.9416ZM40.1036 71.3779C37.6405 72.656 35.0299 73.6463 32.3269 74.3116C31.3242 73.6736 30.3714 72.9631 29.4769 72.1858C32.2102 71.7138 34.8482 70.8994 37.3692 69.7522C38.2619 70.3283 39.174 70.8706 40.1036 71.3779ZM43.017 72.8309C44.0218 73.2851 45.0436 73.7001 46.0801 74.0762C44.0937 75.3736 41.9992 76.4927 39.8071 77.4262C38.3967 77.1088 37.0328 76.6661 35.7284 76.1081C38.2671 75.2767 40.7031 74.182 43.017 72.8309ZM45.7271 71.0912C45.8364 71.0146 45.9465 70.9398 46.0551 70.862C46.8005 70.3273 47.5238 69.7682 48.2251 69.1862C49.2076 69.5314 50.2077 69.8366 51.2227 70.1016C50.4249 70.8255 49.6029 71.5141 48.7588 72.1683C47.7338 71.8493 46.7225 71.4899 45.7271 71.0912ZM54.3652 70.7813C56.4848 71.1467 58.6585 71.3385 60.871 71.3385H61.4493C60.4666 72.2863 59.4037 73.1503 58.2721 73.9192C56.1244 73.7844 54.0045 73.481 51.929 73.0155C52.7644 72.3045 53.5768 71.5597 54.3652 70.7813ZM60.871 68.6727C59.4274 68.6727 58.0018 68.5841 56.5984 68.415C57.3035 67.6098 57.9777 66.7804 58.6208 65.9292C59.367 65.98 60.1173 66.0068 60.8711 66.0068H65.6109C65.0759 66.9367 64.4803 67.8269 63.8304 68.6726H60.871V68.6727ZM28.1016 37.1294C28.4825 40.0019 29.23 42.7886 30.3179 45.4312C29.7875 46.3494 29.2064 47.2379 28.5818 48.0968C27.3589 45.4895 26.4343 42.7005 25.8543 39.769C26.5402 38.835 27.2915 37.9528 28.1016 37.1294ZM25.7822 68.1537C27.5666 67.1149 29.2765 65.9472 30.9026 64.6598C32.1415 65.8397 33.4411 66.9397 34.7938 67.9571C32.3528 68.9051 29.7751 69.5369 27.1128 69.8247C26.6454 69.2883 26.2015 68.7309 25.7822 68.1537ZM44.7099 77.9991C46.2922 77.1298 47.8176 76.1618 49.2825 75.098C50.8852 75.5418 52.5164 75.8937 54.1695 76.1508C51.3457 77.3429 48.2481 78.0026 45 78.0026C44.903 78.0028 44.8066 78.0003 44.7099 77.9991Z" fill="#81956C"/>
</svg>
