<?xml version="1.0" encoding="utf-8"?>
<!-- Generator: Adobe Illustrator 26.3.1, SVG Export Plug-In . SVG Version: 6.00 Build 0)  -->
<svg version="1.1" id="Layer_1" xmlns="http://www.w3.org/2000/svg" xmlns:xlink="http://www.w3.org/1999/xlink" x="0px" y="0px"
	 viewBox="0 0 700 700" style="enable-background:new 0 0 700 700;" xml:space="preserve">
<style type="text/css">
	.st0{fill:#EFCD51;}
</style>
<g>
	<path class="st0" d="M491.9,280.3c7.6-47.4,1.6-104.2-21.3-146c-11.1-20.2-29.1-40.5-53.2-43.1c-12.6-1.4-59.2-4.1-73-0.3
		c-24-1.3-49.7-0.2-68.9,15.9c-18.8,15.7-27.6,39.9-36.5,61.9c-10.9,27-21.5,51.5-27.3,80.4c-4.6,23.2-12.2,57.9-0.3,80.3
		c10.2,19.3,33.1,23,52.8,24.7c15.4,1.3,43.4-1.7,54.1,11.9c4,5,3.8,58.3,3.3,58.3l0,0c-6.7-0.4-13.5-0.4-20.2,0.2
		c-5.5-0.6-11-0.6-16.5,0c-2.4,0.2-4.4,0.3-5.9,0.3l0,0c-0.3,0-0.6,0.2-0.7,0.5c-45.9,5.3-46.9,55.6-47.6,92.9v0.5
		c-0.5,22.6-1,31.9-1.9,48.8c-0.2,4.4-0.5,9.3-0.8,15.1c-0.1,1.7-0.3,3.4-0.5,5.2l0,0c-0.8,4.7-0.7,9.5,0.2,14.2
		c1.4,5.2,3.7,8.1,6.6,8.2h0.1c3,0,5.9-3.2,7.8-8.9l0,0c1.4-6.4,1.7-12.9,0.9-19.4c-0.2-2.9-0.4-5.6-0.4-7.9
		c0.1-10.8,0.2-13.9,0.4-18.5c0.1-3.1,0.3-6.9,0.5-14.1c0.2-5.3,0.1-10.7,0.1-16.5c0-24.9-0.1-53.1,14.3-73.6
		c7.8-11.1,16.9-11.2,27.5-11.1c3,0,6,0,9-0.3c2.5,7.3,11.7,15.3,16.4,18.8c19.6,14.5,58.3,15.2,80.9,5.9l0,0
		c7-2.7,13.1-7.3,17.8-13.1c1.4,0.3,2.8,0.5,4.1,0.6c0.8,0.1,1.5,0.2,2.1,0.3c3.3,0.6,7,0.9,10.9,1.2c13.4,1.2,28.6,2.6,35.4,14.1
		c10.3,17.5,10.3,47.3,10.3,71.2c0,5.2,0,10.2,0.1,14.6l0,0c0.3,6.8-0.1,13.7-1.3,20.4c-1.2,6.8-1.6,13.6-1.3,20.5v0.8
		c0.1,4.6,0.2,12.3,4.2,15.1l0,0c1,0.7,2.1,1,3.2,1c1,0,2-0.2,3-0.6c6.8-2.4,6.7-16.6,6.7-25c0-1.7,0-3.2,0-4.2l0,0
		c1.6-20.2,1.2-40.5-1.1-60.6l-0.5-5.8c-0.2-1.9-0.3-3.9-0.5-5.9c-1.7-21.7-3.7-48.6-24.1-59.8c-1.2-0.6-2.5-1.3-3.9-1.9l0,0
		c-4.6-2-9.3-3.6-14.2-4.7c-17.2-4.1-34.7-6.9-52.3-8.4c-0.2,0-0.4,0-0.6,0.1s-0.3,0.3-0.3,0.5c-7.7-1.7-8.1-5.9-10.5-18.3
		c-2-10.1-8.4-33.5-2.1-42.5c6.4-9.1,29.5-8.2,40.3-10.6c12.6-2.8,29.6-4.7,40.9-10.9c19.8-10.9,28.4-43.2,32.4-63.7
		c0.2-1.1,0.4-2.1,0.6-3.2l0,0C491.7,283.9,492,282.1,491.9,280.3L491.9,280.3z M330.9,105.1c16.2,1,32.5-0.4,48.3-4.1
		c20.2-2.8,45.9,2,61.6,14.7c17.1,13.9,20.5,28.9,26.5,48.9c10.5,34.9,16.9,74.8,12.2,112.5c-1,0.7-2.1,1.5-3.1,2.3l0,0
		c-1.4,1.2-2.9,2.2-4.5,3.1c-5.3,2.2-11.2,2.2-16.5,0c-8.4-3.1-16.6-12-24.6-26.4c-1-1.8-1.8-3-2.3-3.8c-1.1-1.7-1.1-1.7-0.1-3.6
		c0.5-0.9,1.1-2.1,1.9-3.9c1.2-2.3,2.6-4.5,4.3-6.4c2.4-2.6,4.2-5.7,5.5-9.1c1.8-5.5,0.9-11.5-2.4-16.2c-4.2-5.5-10.7-8.7-17.7-8.6
		c-11.8-0.2-15.7,6.5-19.5,13.1l0,0c-2,4-4.7,7.6-8.2,10.4c-2.2,1.7-5.1,2.3-7.8,1.6c-6-1.6-11.1-8.5-13.6-13.9
		c-2.2-5.5-2.8-11.5-1.7-17.4c0.7-4.3,0.6-8.7-0.3-12.9c-0.5-2.4-2-4.5-4.1-5.7c-4.1-2.1-10.1,0-15.8,2.1l0,0
		c-2.6,1-5.4,1.9-8.1,2.5c-18.1,3.1-72.2,3.3-77.1-23.2c-2.4-12.8,9.8-29.1,13.8-34.5l0,0c1.1-1.4,2.2-2.7,3.4-3.9
		c2.3-2.2,4.1-4.7,5.4-7.6c0.5-0.3,0.9-0.7,1.4-1C300.5,104.8,315.7,104.1,330.9,105.1L330.9,105.1z M425,350.5
		c-16,3.4-47.5,0.4-58,14.3c-11,14.5-4.5,40-0.8,56.1c1.6,6.9,3.1,18.8,9,23.7c3.5,2.9,16.5,6.3,20.4,4.1
		c-15.6,8.9-29.8,10.7-47.2,9.6c-26.3-1.7-34.7-17.8-36.5-17.8c8.7,0,20.1-5.2,23-13.2c2-5.4,0-18.4,0.3-24.4c1-19,2.1-42.7-17-53.3
		c-21.1-11.8-47.8-1.5-69.9-9.8c-10.1-3.8-23.6-12.3-27-22.1c-4.3-12.4-2.6-31.8-1.1-44.5c3.7-31.7,14-61.9,26.6-91.1
		c1.9-4.5,3.8-9.2,5.8-14l0,0c2.2,5.8,6,10.8,10.9,14.6c14.6,11.9,35.1,14.2,51.4,14.8c0.3,0,31.3,1.1,38.3-1.4
		c0.7,14.3,14.1,44.6,30.3,50.3c5.1,1.8,12.8,1.8,20.3-8.1l0,0c1.6-2.3,2.9-4.8,4-7.4c3.3-7.2,6.7-14.7,14.7-11.5
		c2.5,1,3.8,2.2,4.2,3.7c0.8,3.5-3.6,8.6-8,13.4c-3.8,4.2-7.4,8.2-7.8,11.6c-0.9,7.7,7,17.2,12.8,24.2c1.3,1.5,2.4,2.9,3.3,4.1l0,0
		c6.3,8.6,14.9,15.3,24.8,19.3c5.6,2.4,11.7,3.8,17.8,3.9c2,0,4-0.2,5.9-0.7c-1.5,6-3.3,11.8-5.5,17.6
		C461.7,338,446.7,345.8,425,350.5L425,350.5z"/>
	<path class="st0" d="M305.6,303.6c-3.1,1.2-6.2,2.5-9.7-0.9c-4.7-4.6-2.8-16-1.7-22.9c0.1-0.8,0.2-1.5,0.3-2.1
		c0.4-2.7,1.7-7.2,3.2-12.3c3.7-12.9,8.3-29,4.2-34.1c-0.9-1.1-2.2-1.7-3.7-1.7h-0.1l0,0c-1.1-0.8-2.6-1-3.9-0.4
		c-10,4.5-15.1,53.5-15.1,54c-0.7,7.2-2.9,29,12,35.7l0,0c1.7,0.7,3.6,1,5.4,0.9c6.2,0.2,12.2-1.9,16.9-6c2.3-2.5,2.5-6.3,0.4-9
		C311.6,301.2,308.4,302.5,305.6,303.6L305.6,303.6z"/>
	<path class="st0" d="M244.1,252.3c-0.3,0.9-0.3,1.9-0.1,2.8c0,0.5,0.1,1,0.1,1.5c0.1,0.7,0.3,1.4,0.4,2.1c0.6,2.2,2.3,3.9,4.5,4.5
		s4.6-0.1,6.3-1.7c1.9-1.4,3.2-3.5,3.4-5.9s-0.6-4.7-2.2-6.5c-1.9-1.9-4.6-2.6-7.1-1.9C246.9,247.9,244.9,249.8,244.1,252.3
		L244.1,252.3z"/>
	<path class="st0" d="M338.1,254.1c-0.3,0.9-0.3,1.9-0.1,2.8c0,0.5,0.1,1,0.1,1.5c0.1,0.7,0.3,1.4,0.4,2.1l0,0
		c0.6,2.2,2.3,3.9,4.5,4.5s4.6-0.1,6.3-1.7c1.9-1.4,3.2-3.5,3.4-5.9c0.2-2.4-0.6-4.7-2.2-6.5c-1.9-1.9-4.6-2.6-7.1-1.9
		C340.9,249.6,338.9,251.6,338.1,254.1L338.1,254.1z"/>
</g>
</svg>
