<svg xmlns="http://www.w3.org/2000/svg" xmlns:xlink="http://www.w3.org/1999/xlink" viewBox="0 0 784.22 671.61"><defs><style>.cls-1{opacity:0.3;}.cls-2{fill:#9fcecc;}.cls-3{fill:#05386b;}.cls-4{fill:url(#linear-gradient);}.cls-5{fill:url(#linear-gradient-2);}.cls-6{fill:url(#linear-gradient-3);}.cls-7{fill:url(#New_Gradient_Swatch_6);}.cls-8{fill:url(#New_Gradient_Swatch_6-2);}.cls-9{fill:#efefe6;}</style><linearGradient id="linear-gradient" x1="287.47" y1="403.62" x2="340.16" y2="434.04" gradientTransform="translate(-88.23 63.31) rotate(3.98)" gradientUnits="userSpaceOnUse"><stop offset="0" stop-color="#f9d187"/><stop offset="0.17" stop-color="#f5d28b"/><stop offset="0.35" stop-color="#e8d497"/><stop offset="0.54" stop-color="#d3d8ab"/><stop offset="0.73" stop-color="#b5dec6"/><stop offset="0.92" stop-color="#8fe5ea"/><stop offset="1" stop-color="#7ee8fa"/></linearGradient><linearGradient id="linear-gradient-2" x1="422.94" y1="499.95" x2="512.04" y2="551.4" xlink:href="#linear-gradient"/><linearGradient id="linear-gradient-3" x1="474.07" y1="262.89" x2="756.85" y2="427.2" gradientTransform="translate(4.3 -1.88) rotate(-0.16)" gradientUnits="userSpaceOnUse"><stop offset="0" stop-color="#f9d187"/><stop offset="0.15" stop-color="#f0d390"/><stop offset="0.39" stop-color="#d7d7a7"/><stop offset="0.69" stop-color="#aedfcd"/><stop offset="1" stop-color="#7ee8fa"/></linearGradient><linearGradient id="New_Gradient_Swatch_6" x1="203.04" y1="882.88" x2="219.39" y2="810.84" gradientTransform="matrix(0.93, -0.14, 0.14, 0.94, 147.06, -188.35)" gradientUnits="userSpaceOnUse"><stop offset="0" stop-color="#dad2f3"/><stop offset="0.22" stop-color="#decce7"/><stop offset="0.61" stop-color="#eabbc9"/><stop offset="1" stop-color="#f8a8a4"/></linearGradient><linearGradient id="New_Gradient_Swatch_6-2" x1="669.81" y1="-2856.49" x2="687.83" y2="-2787.11" gradientTransform="matrix(1.05, 0.34, 0.32, -1.01, 523.42, -2568.41)" xlink:href="#New_Gradient_Swatch_6"/></defs><title>Asset 17</title><g id="Layer_2" data-name="Layer 2"><g id="text"><g class="cls-1"><path class="cls-2" d="M768.22,196.45c0-59.92-44.32-108.5-99-108.5-1.79,0-3.56,0-5.33.15a144,144,0,0,1-99.31-31.65C510,12.11,426.11-9.63,336.93,4.07,229.43,20.58,144.75,83.88,116.14,160c-10.48,27.87-28.92,62-54.92,90-33,35.54-58,56-61,112-3.1,57.82,26.92,98.62,75.07,123.45a142.89,142.89,0,0,1,60.86,61.19c29.22,56,89.26,94.36,158.57,94.36A180.29,180.29,0,0,0,415,595.61c27-24,62.27-31.46,98-36.69,20.25-3,65.25-20,80.66-29,57.84-34,112.59-77.7,112.59-149.45q0-3.85-.18-7.65a145.71,145.71,0,0,1,35.28-102C758,251.38,768.22,225.22,768.22,196.45Z"/></g><path class="cls-3" d="M91.76,416.35,58.91,118.78c-2.55-23.12,13-44,34.66-46.39L565.68,20.28c21.61-2.39,41.38,14.59,43.93,37.72l32.85,297.56Z"/><rect class="cls-2" x="61.7" y="382.39" width="614.16" height="37.39" rx="13.18" ry="13.18" transform="translate(-41.78 42.88) rotate(-6.3)"/><circle class="cls-4" cx="195.75" cy="502.92" r="30.41"/><circle class="cls-5" cx="341.64" cy="620.18" r="51.43"/><circle class="cls-6" cx="620.72" cy="341.45" r="163.5"/><path class="cls-7" d="M501,565.87c2.49,16.28-9.52,32.29-26.37,39.39-18.78,7.91-46.33,7.06-46.33,7.06s13.63-9.12,20.61-20.8c3.78-6.33,4.55-15.19,5.37-21.16,1.81-13.11,6.71-22.65,19.66-24.63A23.85,23.85,0,0,1,501,565.87Z"/><path class="cls-8" d="M380.25,522.72c5.33-16.68-4.7-33.81-21.72-40.22C339,475.14,326,483.2,302.87,498c-19.73,12.59-42.78,4.07-42.78,4.07s15,18.9,32.59,28.12,34.86,15.88,48.86,15.4C353.3,545.17,374.92,539.39,380.25,522.72Z"/><path class="cls-9" d="M441.62,177.85C423.81,110.46,336.32,75.12,246.2,98.92S97.47,196.67,115.27,264.06,221.39,369.72,310.68,343c44.57-13.34,53.27-29.34,68.42-41.25,9.82-7.73,21.07-14.6,33.5-13.61,13.63,1.08,28.81,6.7,28.81,6.7s-7.08-15.29-6-32.18C437.14,234.83,446.77,197.38,441.62,177.85Z"/><text></text></g></g></svg>