<svg xmlns="http://www.w3.org/2000/svg" xmlns:xlink="http://www.w3.org/1999/xlink" viewBox="0 0 732 674.42"><defs><style>.cls-1{opacity:0.3;}.cls-2{fill:#9fcecc;}.cls-3{fill:#ea8ba2;}.cls-4{fill:#314b7a;}.cls-5{fill:url(#linear-gradient);}.cls-6{fill:url(#linear-gradient-2);}.cls-7{fill:url(#New_Gradient_Swatch_6);}.cls-8{fill:url(#New_Gradient_Swatch_6-2);}</style><linearGradient id="linear-gradient" x1="1567.68" y1="929.65" x2="1424.03" y2="929.65" gradientTransform="translate(-848.58 -1150.15) rotate(20.55)" gradientUnits="userSpaceOnUse"><stop offset="0" stop-color="#f9d187"/><stop offset="0.17" stop-color="#f5d28b"/><stop offset="0.35" stop-color="#e8d497"/><stop offset="0.54" stop-color="#d2d8ac"/><stop offset="0.74" stop-color="#b3dec8"/><stop offset="0.93" stop-color="#8de5ec"/><stop offset="1" stop-color="#7ee8fa"/></linearGradient><linearGradient id="linear-gradient-2" x1="444.21" y1="338.25" x2="709.34" y2="491.33" gradientUnits="userSpaceOnUse"><stop offset="0" stop-color="#f9d187"/><stop offset="0.15" stop-color="#f4d28c"/><stop offset="0.34" stop-color="#e4d59a"/><stop offset="0.56" stop-color="#cbdab2"/><stop offset="0.78" stop-color="#a8e0d3"/><stop offset="1" stop-color="#7ee8fa"/></linearGradient><linearGradient id="New_Gradient_Swatch_6" x1="916.8" y1="902.47" x2="916.8" y2="832.61" gradientTransform="translate(-560.39 -687.67) rotate(13.26)" gradientUnits="userSpaceOnUse"><stop offset="0" stop-color="#dad2f3"/><stop offset="0.22" stop-color="#decce7"/><stop offset="0.61" stop-color="#eabbc9"/><stop offset="1" stop-color="#f8a8a4"/></linearGradient><linearGradient id="New_Gradient_Swatch_6-2" x1="186.51" y1="501.52" x2="186.51" y2="396.47" gradientTransform="matrix(1, 0, 0, 1, 0, 0)" xlink:href="#New_Gradient_Swatch_6"/></defs><title>Asset 21</title><g id="Layer_2" data-name="Layer 2"><g id="bubble"><g class="cls-1"><path class="cls-2" d="M731.74,284.67c0-74.39-51.26-116.9-105.08-139.47-29.62-12.42-43.95-36.3-59.23-57.32C555.09,70.92,461.73,0,374.94,0S218.75,62,213,138.51c-3.82,51.11-40.12,126.1-89.79,150C67.27,315.4,0,365,0,442.77s76,147.87,164.31,140.9c36.3-2.87,83.1,2.87,102.21,25.79,25.72,30.87,75.27,65,150.45,65,96.82,0,175.3-69.71,175.3-155.71a142.2,142.2,0,0,0-24.9-80,12.36,12.36,0,0,1,10.28-19.32h.29C662.88,419.36,731.74,359.06,731.74,284.67Z"/></g><path class="cls-3" d="M489.65,29.5A59.17,59.17,0,0,0,447.84,88a59.16,59.16,0,0,0-67.29-25.21c-31.23,9.52-49.76,42.95-39.25,74,15.2,44.9,82.38,85.55,152.35,97.84C543.48,185.77,573.8,115.41,563.48,69,556.36,37.05,520.87,20,489.65,29.5Z"/><path class="cls-4" d="M704.66,491.85c-.4.79-40.39,79.79-79.73,101.44-41.59,22.89-97.27,17.93-152.75-13.6C427.3,554.18,402.85,527.46,392.9,493c-7.33-25.36.36-64.57,10.85-90.79l5.71,3.11c14.52,7.81,23.17,4.21,35.81-8.43S500.05,339,470.55,320s-72.15,52.14-81.84,73.91c-12,28.95-21.14,72.89-12.19,103.83,11.28,39,38.19,68.87,87.23,96.74,35.08,19.94,70.49,30,103.18,30,23.93,0,46.4-5.4,66.22-16.31,44-24.2,85-105.29,86.76-108.74Z"/><circle class="cls-5" cx="225.76" cy="245.42" r="71.83"/><circle class="cls-6" cx="576.78" cy="414.79" r="153.05"/><path class="cls-4" d="M732,470.3c1.24-38.49-37.93-15.91-49,0-37.58,53.91-.55,63.72-.55,63.72C701.47,537.83,730.88,504.06,732,470.3Z"/><path class="cls-4" d="M287.69,331.17A28,28,0,0,0,290,328.7c11.37-13.64,16.81-25.53,17.22-34.56a8.45,8.45,0,0,0-8.57-8.82c-48.85.52-66.6,28.21-72.61,43.09a8.73,8.73,0,0,0,6.08,11.74c20.68,5,35.88,2.3,46-2.56C278.12,337.59,284.94,333.7,287.69,331.17Z"/><path class="cls-4" d="M285.39,329.47c6.57,13.18,15,33.4,18.13,55.2,3.18,22.24,1.18,38.11-2.8,69.73-1.56,12.39-3.5,27.8-5.59,47.17-3,28.14,3.61,51.82,19.72,70.38,11.94,13.74,29.28,24.18,46.38,27.92C387,605.52,445.82,589,466.31,582.21a8.42,8.42,0,1,1,5.33,16c-.79.27-19.6,6.51-42.89,11.93-22.14,5.16-40.43,7.75-54.63,7.75a78.23,78.23,0,0,1-16.49-1.53c-20.52-4.49-41.27-17-55.5-33.34-19-21.93-27.26-50.71-23.75-83.23,2.1-19.52,4.05-35,5.62-47.47,3.91-31.07,5.69-45.25,2.84-65.25-2.66-18.63-9.72-36.11-15.56-48.11C271.3,329.57,275.61,321.74,285.39,329.47Z"/><path class="cls-7" d="M146.46,389.75c-1.83,7.77-10.65,13.75-20.63,11.4s-14.75-10.35-14.74-18.33c0-4.77,3.27-16,8.44-26.33A137.47,137.47,0,0,1,136,331.77a304,304,0,0,1,8.49,30.6C147.21,375.17,148.15,382.58,146.46,389.75Z"/><path class="cls-8" d="M214,477.72c0,12-10.85,23.8-26.26,23.8s-25.15-10.06-27.9-21.75c-1.64-7-.74-24.6,3.28-41.44,5.25-22,15.59-41.86,15.59-41.86a457.07,457.07,0,0,1,23,41.86C210.05,456.13,214,466.64,214,477.72Z"/></g></g></svg>