<svg width="90" height="90" viewBox="0 0 90 90" fill="none" xmlns="http://www.w3.org/2000/svg">
<path d="M32.9703 33.6477C33.7654 33.6477 34.41 33.0032 34.41 32.2081C34.41 31.413 33.7654 30.7685 32.9703 30.7685C32.1753 30.7685 31.5307 31.413 31.5307 32.2081C31.5307 33.0032 32.1753 33.6477 32.9703 33.6477Z" fill="#D3E4F5"/>
<path d="M82.1049 70.4181C81.3205 70.2984 80.5885 70.8514 80.4758 71.6384C79.9307 75.4541 76.6086 78.3298 72.7475 78.3298C69.7486 78.3298 66.9785 76.5766 65.6892 73.8651C65.3476 73.1488 64.488 72.8431 63.7709 73.1829C63.0528 73.5262 62.7471 74.3849 63.0886 75.1029C64.8532 78.8112 68.6444 81.2099 72.7483 81.2099C78.0333 81.2099 82.5819 77.2702 83.327 72.0473C83.4388 71.2602 82.892 70.5308 82.1049 70.4181Z" fill="#D3E4F5"/>
<path d="M75.6704 57.4162L71.0755 28.9498H74.0691C75.1585 28.9498 76.1805 28.5279 76.9492 27.7592C77.7293 26.9808 78.1591 25.9518 78.1591 24.8607V16.3541C78.1591 15.263 77.7293 14.234 76.93 13.4347C76.1561 12.6922 75.1139 12.265 74.07 12.265H66.1408C62.927 12.265 60.2373 14.5336 59.5778 17.5526H55.5708C54.775 17.5526 54.1312 18.1973 54.1312 18.9922C54.1312 19.7871 54.7759 20.4318 55.5708 20.4318H59.4206V51.4131C59.4206 56.0613 55.6399 59.8412 50.9926 59.8412C48.5562 59.8412 46.2273 58.7877 44.6034 56.9497C42.9917 55.1231 42.2378 52.6859 42.534 50.2618L43.3726 43.4796C48.3798 40.1164 51.6835 34.4025 51.6835 27.9304C51.6835 17.6085 43.2861 9.21106 32.9642 9.21106C22.6424 9.21106 14.2441 17.6094 14.2441 27.9304C14.2441 28.0666 14.2615 28.1985 14.2641 28.3339C13.1084 28.631 12.041 29.2311 11.1718 30.1003C9.92697 31.3433 9.21328 33.0721 9.21328 34.8419V37.4931C9.21328 39.7373 11.039 41.5621 13.2831 41.5621H14.3305C9.60812 44.6816 6.5638 50.019 6.5638 55.9827V69.1916C6.5638 69.9866 7.20848 70.6312 8.00341 70.6312L13.4177 70.6321C14.1322 76.5923 19.2871 81.2099 25.3312 81.2099C31.4416 81.2099 36.5283 76.6203 37.2429 70.6347L70.8684 70.6391C73.2497 70.6391 75.5533 69.942 77.531 68.6212L82.7942 65.113C83.3987 64.7121 83.6092 63.9206 83.2842 63.2716C81.7476 60.1993 78.9401 58.0827 75.6704 57.4162ZM74.9147 15.491C75.1506 15.7277 75.2799 16.0326 75.2799 16.3532V24.8598C75.2799 25.1804 75.1506 25.4862 74.9147 25.722C74.6911 25.9448 74.3906 26.0688 74.07 26.0688H72.8025V15.1442H74.07C74.3766 15.1442 74.692 15.277 74.9147 15.491ZM32.9634 12.0912C41.6971 12.0912 48.8026 19.1975 48.8026 27.9312C48.8026 36.665 41.6971 43.7713 32.9634 43.7713C24.2287 43.7713 17.1233 36.665 17.1233 27.9312C17.1233 19.1975 24.2296 12.0912 32.9634 12.0912ZM12.0934 37.494V34.8419C12.0934 33.8295 12.4996 32.845 13.2071 32.1365C13.5985 31.7452 14.0615 31.4586 14.5577 31.2656C15.0495 33.9876 16.1274 36.5034 17.6631 38.682H13.2831C12.6166 38.682 12.0934 38.1614 12.0934 37.494ZM25.3312 78.3307C20.8525 78.3307 17.0158 74.9964 16.3214 70.633L34.3479 70.6347C33.6578 75.0165 29.8596 78.3307 25.3312 78.3307ZM59.7316 67.759L9.4439 67.752V55.9827C9.4439 49.2397 14.1034 43.4534 20.6087 41.9578C23.909 44.8685 28.227 46.6505 32.9634 46.6505C35.5508 46.6505 38.0177 46.1221 40.2619 45.1681L39.6748 49.9133C39.2783 53.1533 40.2872 56.4116 42.444 58.8567C44.6148 61.3131 47.7307 62.7212 50.9917 62.7212C57.2271 62.7212 62.2998 57.6494 62.2998 51.4131V20.4318H66.1399C66.9357 20.4318 67.5795 19.7871 67.5795 18.9922C67.5795 18.1973 66.9349 17.5526 66.1399 17.5526H62.5837C63.1533 16.1444 64.53 15.1451 66.1399 15.1451H69.9224V26.0706H69.3852C68.9632 26.0706 68.5623 26.2558 68.2889 26.5772C68.0154 26.8978 67.8966 27.3232 67.9639 27.7399L72.7169 57.1917H71.7507C66.2299 57.1917 61.4385 60.9322 60.1011 66.2888L59.7316 67.759ZM75.9324 66.2259C74.429 67.2288 72.6784 67.7599 70.8684 67.7599H62.7008L62.8947 66.9859C63.9124 62.9152 67.5542 60.0709 71.7507 60.0709H73.4445C76.1132 60.0709 78.5505 61.3498 80.0591 63.4777L75.9324 66.2259Z" fill="#D3E4F5"/>
<path d="M24.7214 61.051H17.6037C16.8088 61.051 16.1641 61.6957 16.1641 62.4906C16.1641 63.2856 16.8088 63.9302 17.6037 63.9302H24.7214C25.5172 63.9302 26.161 63.2856 26.161 62.4906C26.161 61.6957 25.5163 61.051 24.7214 61.051Z" fill="#D3E4F5"/>
<path d="M24.7214 55.1502H17.6037C16.8088 55.1502 16.1641 55.7949 16.1641 56.5898C16.1641 57.3848 16.8088 58.0294 17.6037 58.0294H24.7214C25.5172 58.0294 26.161 57.3848 26.161 56.5898C26.161 55.7949 25.5163 55.1502 24.7214 55.1502Z" fill="#D3E4F5"/>
<path d="M26.1156 37.3621H39.8111C41.5469 37.3621 43.1201 36.4038 43.9159 34.8611C44.7109 33.3184 44.5807 31.4822 43.5744 30.0688L36.7275 20.4405C35.8636 19.2254 34.4571 18.4995 32.966 18.4977C32.9651 18.4977 32.9643 18.4977 32.9643 18.4977C31.4731 18.4977 30.0667 19.2237 29.2019 20.4388L22.3506 30.0705C21.346 31.4839 21.2159 33.3219 22.0117 34.8628C22.8075 36.4038 24.3807 37.3621 26.1156 37.3621ZM24.6987 31.739L31.5474 22.109C31.8776 21.6443 32.3938 21.3778 32.9643 21.3778C33.5338 21.3796 34.0509 21.646 34.3812 22.109L41.228 31.7373C41.6124 32.2771 41.6604 32.9524 41.3564 33.5411C41.0525 34.1299 40.475 34.4828 39.8111 34.4828H26.1156C25.4526 34.4828 24.8752 34.1299 24.5703 33.5411C24.2672 32.9524 24.3144 32.2789 24.6987 31.739Z" fill="#D3E4F5"/>
<path d="M32.9634 30.2391C33.7583 30.2391 34.403 29.5945 34.403 28.7995V25.5823C34.403 24.7873 33.7583 24.1426 32.9634 24.1426C32.1676 24.1426 31.5238 24.7873 31.5238 25.5823V28.7995C31.5238 29.5945 32.1684 30.2391 32.9634 30.2391Z" fill="#D3E4F5"/>
</svg>
