<?xml version="1.0" encoding="utf-8"?>
<!-- Generator: Adobe Illustrator 26.3.1, SVG Export Plug-In . SVG Version: 6.00 Build 0)  -->
<svg version="1.1" id="Layer_1" xmlns="http://www.w3.org/2000/svg" xmlns:xlink="http://www.w3.org/1999/xlink" x="0px" y="0px"
	 viewBox="0 0 700 700" style="enable-background:new 0 0 700 700;" xml:space="preserve">
<style type="text/css">
	.st0{fill:#CED4DA;}
</style>
<g>
	<path class="st0" d="M573.6,81c-0.4-0.5-0.9-0.8-1.4-1.2c-22.1-18.2-46.4-33.7-72.6-46.1c-0.4-0.2-0.9-0.4-1.3-0.6
		C453.2,11.9,403,0,350,0c-55.9,0-111.4,13.5-160.7,39c-4.3,2.3-6.1,7.6-3.8,12c2.3,4.4,7.6,6.1,12,3.8
		c42.7-22.1,88.7-34.3,136.7-36.5V61C310.8,74.4,295,99.6,295,128.5c0,43,35,78,78,78s78-35,78-78c0-29.3-16.3-54.9-40.2-68.2
		l0-36.9c26.5,4.9,51.9,13,75.8,23.8v97.1c0,3.2,1.7,6.2,4.6,7.8c1.4,0.7,2.8,1.1,4.3,1.1c1.6,0,3.2-0.4,4.7-1.3l29.1-18l33.5,18.3
		c2.8,1.5,6.1,1.4,8.8-0.2c2.7-1.6,4.3-4.5,4.3-7.6v-37.6c29.2,27.1,53.5,59.4,71.5,95.4H435.1c-4.9,0-8.9,4-8.9,8.9v202.7h-11.7
		c-4.9,0-8.9,4-8.9,8.9V458c0,4.9,4,8.9,8.9,8.9H661c-24.1,64-67.5,118.7-123,156.9l4.1-47.4c0-10.2-5.8-18.9-14.2-23.4
		c5.4-6.2,8.6-13.1,9.7-20.8c3.3-25.3-19.4-47.7-20.3-48.7c-2.8-2.7-6.9-3.3-10.3-1.5c-16.1,8.4-25.3,19.6-27.3,33.4
		c-2.2,15.3,5.3,29.7,12,39.1c-7,4.9-11.6,13.1-11.6,22.7l6.6,75.6c-11.2,5-22.6,9.5-34.4,13.3l0-172.5c0-4.9-4-8.9-8.9-8.9h-80.1
		c-4.9,0-8.9,4-8.9,8.9v188.6c-1.4,0-2.8,0.1-4.3,0.1c-117.7,0-221.2-61.6-280.3-154.2c4.8,0.3,9.7,0.5,14.7,0.5
		c22.8,0,47.6-3.3,73.4-11.8v27c-12.5,4.8-21.4,16.8-21.4,30.9v5.9c0,18.3,14.9,33.2,33.2,33.2c18.3,0,33.2-14.9,33.2-33.2v-5.9
		c0-16.3-11.8-29.8-27.2-32.6v-31.9c10.7-4.5,21.6-9.9,32.6-16.4c2.7-1.6,4.4-4.5,4.4-7.6l0-93.3l49.6-25.2c3-1.5,4.8-4.6,4.9-7.9
		c0-3.3-1.8-6.4-4.8-7.9l-18.9-9.8c22.5-1.7,39.4,0.9,39.6,1c2.6,0.4,5.2-0.3,7.2-2c2-1.7,3.1-4.2,3.1-6.8V151.4
		c0-4.3-3.1-8-7.4-8.8c-48.6-8.3-117.8,34.8-139.2,49.1c-18.1-19.4-41.4-31.3-64.5-38.5c14-19.1,30.2-36.9,48.3-52.8
		c3.7-3.2,4-8.9,0.8-12.5c-3.2-3.7-8.8-4.1-12.5-0.8C43.3,153.7,0,249.5,0,350c0,193,157,350,350,350s350-157,350-350
		C700,242,650.8,145.2,573.6,81L573.6,81z M433.2,128.5c0,33.2-27,60.2-60.2,60.2s-60.2-27-60.2-60.2s27-60.2,60.2-60.2
		C406.1,68.3,433.2,95.3,433.2,128.5L433.2,128.5z M392.9,53.2c-6.4-1.7-13.1-2.7-20-2.7c-7.3,0-14.3,1.1-21,3V17.8
		c13.9,0.1,27.5,1.1,41,2.8L392.9,53.2z M558.1,129.4l-24.9-13.6c-2.8-1.5-6.2-1.4-8.9,0.2l-20,12.4V55.9
		c19.1,10.1,37.1,21.9,53.8,35.4L558.1,129.4z M185.1,574.8v5.9c0,8.5-6.9,15.4-15.4,15.4c-8.5,0-15.4-6.9-15.4-15.4v-5.9
		c0-8.5,6.9-15.4,15.4-15.4C178.2,559.3,185.1,566.3,185.1,574.8z M58.9,509.9c-14.2-25.7-25-53.5-32-82.7L77.6,457
		c1.4,0.8,2.9,1.2,4.5,1.2c1.4,0,2.8-0.3,4-1l71.7-36.5v77.4C121.6,511.2,87.7,513.2,58.9,509.9L58.9,509.9z M194.9,481.1
		c-6.5,3.6-12.9,6.9-19.2,9.8v-79.2l19.2-9.8V481.1z M169,395.2L86.9,351c-4.3-2.3-9.7-0.7-12,3.6c-2.3,4.3-0.7,9.7,3.6,12
		l71.2,38.4l-67.3,34.2l-60.2-35.3c-2.9-17.6-4.4-35.5-4.4-53.9c0-15.1,1.1-30.1,3.2-44.9l60.9-26.9l157,81.5L169,395.2z
		 M275.5,159.4v165c-12.5-1-34.9-1.5-59.3,3.6l-62-32.2v-87.6C169.9,197.6,232,157.5,275.5,159.4L275.5,159.4z M136.5,206.7v79.8
		l-50.3-26.1c-2.4-1.2-5.2-1.3-7.7-0.2l-54.1,23.9c8.3-41.1,24.3-80.3,47.2-115.3C95.1,175.3,119.3,186.7,136.5,206.7L136.5,206.7z
		 M497.1,517.9c0.9-6.2,5-11.8,12-16.7c5,6.3,12.2,17.7,10.7,28.6c-0.9,6.4-4.8,12.2-11.7,17.3C502.5,540,495.6,528.3,497.1,517.9z
		 M497.6,576.4c0-4.9,4-8.9,8.9-8.9h8.9c4.9,0,8.9,4,8.9,8.1l-5.2,60.2c-5.1,3-10.3,5.9-15.5,8.6L497.6,576.4z M434.3,502.4v168.9
		c-12.5,3.3-25.2,5.8-38.2,7.6c1.7-1.6,2.7-3.9,2.7-6.3c0-4.9-4-8.9-8.9-8.9H372v-10.4h31.2c4.9,0,8.9-4,8.9-8.9
		c0-4.9-4-8.9-8.9-8.9H372v-7.4l17.9,0c4.9,0,8.9-4,8.9-8.9c0-4.9-4-8.9-8.9-8.9H372v-10.4h31.2c4.9,0,8.9-4,8.9-8.9
		c0-4.9-4-8.9-8.9-8.9H372v-8.9l17.9,0c4.9,0,8.9-4,8.9-8.9c0-4.9-4-8.9-8.9-8.9H372l0-10.3h31.2c4.9,0,8.9-4,8.9-8.9
		s-4-8.9-8.9-8.9H372v-25.2L434.3,502.4z M443.9,219.8h211.7c17.1,40,26.6,84,26.6,130.2c0,21.8-2.2,43-6.2,63.6h-47.8v-22.2
		c0-4.9-4-8.9-8.9-8.9h-71c-4.9,0-8.9,4-8.9,8.9v22.2h-95.5L443.9,219.8z M557.2,413.6v-13.3h53.3v13.3H557.2z M423.3,449.2v-17.8
		h248.8c-1.5,6-3.2,11.9-5,17.8H423.3z"/>
	<path class="st0" d="M148.1,83.9c1.8,0,3.7-0.6,5.2-1.7c5.3-3.9,10.8-7.7,16.3-11.3c4.1-2.7,5.3-8.2,2.6-12.3
		c-2.7-4.1-8.1-5.3-12.3-2.6c-5.8,3.8-11.6,7.8-17.2,11.9c-4,2.9-4.8,8.5-1.9,12.4C142.7,82.6,145.4,83.9,148.1,83.9L148.1,83.9z"/>
	<path class="st0" d="M225,542.4c-0.4,0.9-0.7,1.8-0.7,2.8l-3.3,67.3c-0.2,3.5,1.7,6.8,4.9,8.4c1.3,0.6,2.6,0.9,4,0.9
		c2,0,4-0.7,5.6-2l49.8-41c3.2-2.4,6-5.5,7.9-9.3l117.1-232.3c3.2-6.3,3.7-13.6,1.5-20.3c-2.2-6.8-7-12.2-13.3-15.4L380,292
		c-3.7-1.9-7.8-2.9-12-2.9c-10.1,0-19.2,5.6-23.8,14.6l-13.3,26.4L227.1,536.1C226.1,538.1,225.5,540.2,225,542.4L225,542.4z
		 M240.7,572.8l14.8,7.5l-15.8,13L240.7,572.8z M368.1,306.9c1.4,0,2.7,0.3,4,1l18.5,9.3c2.1,1.1,3.7,2.9,4.4,5.1
		c0.7,2.3,0.6,4.7-0.5,6.8l-9.3,18.5l-34.4-17.3l9.3-18.5C361.6,308.8,364.7,306.9,368.1,306.9L368.1,306.9z M243,544.1l99.8-197.9
		l34.4,17.3l-99.8,197.9c-2.1,4.3-7.6,6.1-11.9,3.9l-18.5-9.3C242.5,553.9,240.8,548.5,243,544.1L243,544.1z"/>
	<path class="st0" d="M344.4,114.7c0,4.9,4,8.9,8.9,8.9h39.1c4.9,0,8.9-4,8.9-8.9c0-4.9-4-8.9-8.9-8.9h-39.1
		C348.4,105.8,344.4,109.8,344.4,114.7z"/>
	<path class="st0" d="M392.4,135.4h-39.1c-4.9,0-8.9,4-8.9,8.9c0,4.9,4,8.9,8.9,8.9h39.1c4.9,0,8.9-4,8.9-8.9
		C401.3,139.4,397.3,135.4,392.4,135.4z"/>
	<path class="st0" d="M176.8,235.2c1.6,0,3.3-0.5,4.8-1.4c0.3-0.2,33.1-21.1,69.5-26.8c4.8-0.8,8.2-5.3,7.4-10.2
		c-0.8-4.8-5.3-8.2-10.2-7.4c-40,6.3-74.8,28.5-76.3,29.4c-4.1,2.6-5.3,8.1-2.7,12.3C171.1,233.7,173.9,235.2,176.8,235.2
		L176.8,235.2z"/>
	<path class="st0" d="M176.8,266.8c1.6,0,3.3-0.5,4.8-1.4c0.3-0.2,33.1-21.1,69.5-26.8c4.8-0.8,8.2-5.3,7.4-10.2
		c-0.8-4.8-5.3-8.2-10.2-7.4c-40,6.3-74.8,28.5-76.3,29.4c-4.1,2.6-5.3,8.1-2.7,12.3C171.1,265.3,173.9,266.8,176.8,266.8
		L176.8,266.8z"/>
	<path class="st0" d="M248.4,259.5c-40,6.3-74.8,28.5-76.3,29.4c-4.1,2.6-5.3,8.1-2.7,12.3c1.7,2.6,4.6,4.1,7.5,4.1
		c1.6,0,3.3-0.5,4.8-1.4c0.3-0.2,33.1-21.1,69.5-26.8c4.8-0.8,8.2-5.3,7.4-10.2C257.7,262.1,253.2,258.8,248.4,259.5L248.4,259.5z"
		/>
	<path class="st0" d="M488.7,281.2h156.5c4.9,0,8.9-4,8.9-8.9c0-4.9-4-8.9-8.9-8.9H488.7c-4.9,0-8.9,4-8.9,8.9
		C479.9,277.2,483.8,281.2,488.7,281.2L488.7,281.2z"/>
	<path class="st0" d="M488.7,317.8h156.5c4.9,0,8.9-4,8.9-8.9c0-4.9-4-8.9-8.9-8.9l-156.5,0c-4.9,0-8.9,4-8.9,8.9
		C479.9,313.8,483.8,317.8,488.7,317.8L488.7,317.8z"/>
	<path class="st0" d="M567,355.4c4.9,0,8.9-4,8.9-8.9c0-4.9-4-8.9-8.9-8.9h-78.3c-4.9,0-8.9,4-8.9,8.9c0,4.9,4,8.9,8.9,8.9H567z"/>
</g>
</svg>
