<?xml version="1.0" encoding="utf-8"?>
<!-- Generator: Adobe Illustrator 26.3.1, SVG Export Plug-In . SVG Version: 6.00 Build 0)  -->
<svg version="1.1" id="Layer_1" xmlns="http://www.w3.org/2000/svg" xmlns:xlink="http://www.w3.org/1999/xlink" x="0px" y="0px"
	 viewBox="0 0 700 700" style="enable-background:new 0 0 700 700;" xml:space="preserve">
<style type="text/css">
	.st0{fill:#CED4DA;}
</style>
<g>
	<path class="st0" d="M415.5,6.3c-91.8-17.5-184.9,1.8-262.2,54.4C76,113.2,23.8,192.7,6.3,284.5c-10.6,55.7-7.8,111.2,8.2,165.1
		c1.3,4.3,5.8,6.7,10,5.4c4.3-1.3,6.7-5.8,5.4-10c-9.1-30.5-13.6-61.6-13.7-92.9c3.7,1.7,8,2.7,12.6,3.1
		c-10.5,12-11.8,27.9-2.5,37.2c4,4,9.6,6.2,15.8,6.2c7.4,0,15.1-3.2,21.4-8.8c0.8,12.5,7.3,22.5,16.4,26.3v51.5c-1.7,2-3.4,4-5,6.3
		l-3.1,4.5l2.9,4.5c0.2,0.3,2,3,5.1,6.8v56.2c-6.1-8.5-12-17.2-17.3-26.3c-2.3-3.8-7.2-5.1-11.1-2.9c-3.8,2.3-5.1,7.2-2.9,11.1
		c51.1,86.6,137.1,147.1,235.9,165.9c22.1,4.2,44.2,6.3,66.2,6.3c69.5,0,137.3-20.7,196-60.6c77.3-52.5,129.5-132,147-223.9
		C729.9,226,605.1,42.4,415.5,6.3L415.5,6.3z M599.1,397.3V447c-16.3-4.7-32.7-13.7-35.7-31.2v-25.2c7.4-1,14.3-3.4,20.5-7
		c4.5,3.2,9.5,5.7,14.7,7.5C598.9,393.3,599.1,395.3,599.1,397.3L599.1,397.3z M512.6,273v-49.7c16.3,4.7,32.7,13.8,35.7,31.1v25.2
		c-7.4,1-14.3,3.4-20.5,7c-4.5-3.2-9.5-5.7-14.7-7.5C512.8,277.1,512.6,275.1,512.6,273L512.6,273z M636.5,327.7h-25.2
		c-1-7.4-3.4-14.3-7-20.5c3.2-4.5,5.7-9.5,7.5-14.7c2-0.3,4.1-0.5,6.1-0.5h49.7C663,308.2,654,324.7,636.5,327.7L636.5,327.7z
		 M555.8,375.1c-22,0-39.9-17.9-39.9-39.9c0-22,17.9-39.9,39.9-39.9s39.9,17.9,39.9,39.9C595.8,357.2,577.9,375.1,555.8,375.1
		L555.8,375.1z M599.1,273c0,7.4-2,14.5-5.5,20.8c-8-7.3-18-12.3-29.1-14v-25.6c0.6-3,5.6-23.2,34.6-31.6L599.1,273L599.1,273z
		 M514.5,297.4c-7.3,8-12.3,18-14,29.1h-25.6c-3.4-0.7-23.3-5.8-31.6-34.6h50.4C501,292,508.1,293.9,514.5,297.4L514.5,297.4z
		 M475.1,342.7h25.2c1,7.4,3.4,14.3,7,20.5c-3.2,4.5-5.7,9.5-7.5,14.7c-2,0.3-4.1,0.5-6.1,0.5h-49.7
		C448.6,362.1,457.7,345.6,475.1,342.7L475.1,342.7z M512.6,397.3c0-3.6,0.4-7.1,1.3-10.5c0.9-3.6,2.3-7.1,4.1-10.4
		c8,7.3,18,12.3,29.1,14v25.6c-0.6,3-5.6,23.2-34.6,31.6L512.6,397.3z M597.2,372.9c7.3-8,12.3-18,14-29.1h25.6
		c3,0.6,23.2,5.6,31.6,34.6H618C610.7,378.4,603.5,376.4,597.2,372.9L597.2,372.9z M658,335.9c9.6-6.8,17.2-17.5,22.6-31.7
		c3.1,22,3.9,44.4,2.5,67.2C677.1,352.9,667.1,342.1,658,335.9L658,335.9z M276.2,457.8c7.4,3.8,17.5,10.4,25.9,20.7
		c-4.6,5.8-13.8,15.6-25.1,20l-5.2,2v24.6c-8,0-15.7-2.1-22.6-6c-4.7-7.1-10.8-13.2-17.9-17.9c-3.9-6.9-6-14.7-6-22.7
		c0-8,2.1-15.8,6-22.7c7.1-4.7,13.2-10.8,17.9-17.9c6.9-3.9,14.6-5.9,22.6-6v23.6L276.2,457.8z M203.8,99.5
		c14.3,2.3,34.4,7,51.3,14.7c-3,12.4-3.6,24.8,0.3,35.7c0.2,0.7,0.6,1.3,0.9,1.9c-6.5-2.7-13.1-3.6-19.2-3.6
		c-5.8,0-11.8,0.9-17.9,2.4C213.1,137.2,207.9,120.1,203.8,99.5L203.8,99.5z M381.7,150.6c-6.2-1.5-12.4-2.5-18.4-2.5
		c-5.8,0-12,0.8-18.1,3.2c3.5-10.2,3.4-22.4-0.2-36.5c12.3-5.6,28.9-10.9,51.4-15.4C394,114.1,389.3,134,381.7,150.6L381.7,150.6z
		 M396.4,292.2c-22.5-4.5-39.1-9.9-51.4-15.4c3.5-13.8,3.6-25.7,0.4-35.7c4.6,1.5,9.8,2.4,15.8,2.4h0c6.2,0,13-1,20.4-2.9
		C389.3,257.3,394,277.4,396.4,292.2L396.4,292.2z M314.1,229.4c5.4,2.3,11.2,6.1,14.5,12.7c2.9,5.7,4.3,14.2,1.8,26.6
		c-10.5-7-15.5-14.1-17.5-20.1C310.5,241.6,311.8,234.8,314.1,229.4L314.1,229.4z M361.2,227.3c-15.6,0-23.2-8.1-27-16.1
		c4.3-1.6,8.3-2.4,12.1-2.4c10.9,0,19.8,6.9,26.9,17.1C369,226.7,364.9,227.3,361.2,227.3L361.2,227.3z M362.3,195.8
		c11.4-4.7,20.4-14.3,27.4-25.8c18.4,6.9,36.3,18.6,46.6,26c-17.6,11.7-33.2,20-46.9,25.2C382.4,209.8,373.5,200.4,362.3,195.8z
		 M346.4,182.8c-3.3,0-6.8-0.7-10.5-1.9c7.4-14.5,18.7-16.6,27.4-16.6c3.3,0,6.8,0.4,10.3,1C366.4,175.7,357.4,182.8,346.4,182.8
		L346.4,182.8z M328.5,149.4c-3.3,6.6-9.1,10.5-14.5,12.8c-2.2-5.4-3.5-12.1-1.2-19.2c2-6.1,7-13.2,17.6-20.2
		C332.8,135.2,331.4,143.7,328.5,149.4L328.5,149.4z M299.7,132.6c-0.1-0.3-0.2-0.6-0.3-0.9c-4.9-10.5-14.1-18.8-25-25.5
		c6.5-17.3,17.4-34.8,25.9-46.6c12.7,19.1,20.7,34.6,25.4,47.3C313.1,114.3,304.4,122.9,299.7,132.6L299.7,132.6z M284.7,138.5
		c3,6.5,3.3,13.7,0.7,21.6c-7.5-3.8-12.4-9-14.8-15.7c-2.3-6.4-2.3-14-0.8-22.1C276.5,127,281.8,132.3,284.7,138.5L284.7,138.5z
		 M237,164.3c9,0,20.8,2.2,28.2,18.1c-3.1,1.1-6.5,1.9-10.1,1.9c-10.3,0-19.7-6.6-27.9-19.1C230.5,164.6,233.8,164.3,237,164.3
		L237,164.3z M235.9,195.8c-9.3,4.8-17.5,13.3-24.7,25.4c-13.7-5.1-29.4-13.5-47.2-25.3c10.3-7.4,28.4-19.2,46.9-26.1
		C218.1,182.3,226.5,190.9,235.9,195.8z M255,207.2c4.2,0,8.2,1.1,11.6,2.5c-3.5,8.4-11.2,17.5-27.6,17.5c-3.6,0-7.6-0.5-11.7-1.3
		C235.5,213.7,244.9,207.2,255,207.2L255,207.2z M239.1,243.4c6.3,0,11.8-1,16.7-2.6c-0.1,0.3-0.3,0.6-0.4,0.9
		c-3.9,10.9-3.3,23.3-0.3,35.7c-16.9,7.7-37,12.3-51.3,14.7c4.2-20.8,9.4-38,15.5-51.3C226.4,242.5,233,243.4,239.1,243.4
		L239.1,243.4z M270.6,247.2c2.4-6.7,7.4-11.9,14.8-15.7c2.6,8,2.4,15.1-0.7,21.6c-2.9,6.2-8.3,11.5-15,16.2
		C268.2,261.2,268.2,253.6,270.6,247.2L270.6,247.2z M299.4,259.9c0.1-0.3,0.2-0.6,0.3-0.9c4.7,9.7,13.4,18.3,26,25.8
		c-4.8,12.6-12.8,28.2-25.4,47.3c-8.5-11.8-19.4-29.3-25.9-46.6C285.3,278.7,294.4,270.4,299.4,259.9L299.4,259.9z M196.9,583.7
		c-10.3-8.4-16.9-18.5-20.7-25.9l-2.3-4.4h-23.6c0.1-25.6,20.9-46.5,46.6-46.5c25.7,0,46.5,20.8,46.6,46.5h-24.6l-2,5.2
		C212.6,569.9,202.7,579.1,196.9,583.7L196.9,583.7z M116.8,498.5c-11.3-4.4-20.5-14.2-25.1-20c8.4-10.3,18.5-16.9,25.9-20.7
		l4.4-2.3v-23.6c7.9,0,15.7,2.1,22.6,6c4.7,7.1,10.8,13.2,17.9,17.9c3.9,6.9,6,14.7,6,22.7c0,8-2.1,15.8-6,22.7
		c-7.1,4.7-13.2,10.8-17.9,17.9c-6.9,3.9-14.6,6-22.6,6l0-24.6L116.8,498.5z M112.5,389.8c6.3,5.5,14,8.8,21.4,8.8
		c0.2,0,0.3,0,0.5,0c-0.2,1.7-0.2,3.3-0.2,4.9c0,4.8,0.6,9.5,1.6,14c-4.6-1-9.2-1.7-14-1.7c-2.8,0-5.7,0.2-9.1,0.7l-6.9,1v28.4
		c-3,1.8-6.3,4-9.7,6.5v-36.2C105.2,412.3,111.7,402.3,112.5,389.8L112.5,389.8z M88,349.8c-10.9,0-19.8-8.9-19.8-19.8
		c0-10.9,8.9-19.8,19.8-19.8c10.9,0,19.8,8.9,19.8,19.8C107.8,340.9,98.9,349.8,88,349.8z M117.7,360.3c1.2-1.2,3.1-1.5,4.4-1.5
		c3.9,0,8.4,2.1,12,5.7c3,3,5.1,6.8,5.6,10.3c0.2,1.5,0.4,4.4-1.4,6.1c-1.2,1.2-3.1,1.5-4.4,1.5c-3.9,0-8.4-2.1-12-5.7
		C116,370.8,114.8,363.1,117.7,360.3L117.7,360.3z M184.9,478.6c0-6.6,5.4-12,12-12s12,5.4,12,12c0,6.6-5.4,12-12,12
		C190.3,490.6,184.9,485.2,184.9,478.6z M196.9,450c-25.6,0-46.5-20.8-46.6-46.5H174l2.3-4.4c3.8-7.4,10.4-17.5,20.7-25.9
		c5.8,4.6,15.6,13.8,20,25.1l2,5.2h24.6C243.4,429.2,222.6,450,196.9,450L196.9,450z M144.6,339.2c-8.3,0-14.6-4.5-14.6-8.6
		c0-4,6.2-8.6,14.6-8.6c8.3,0,14.6,4.5,14.6,8.6C159.1,334.7,152.9,339.2,144.6,339.2z M134.1,296.7c-3.6,3.6-8.1,5.7-12,5.7
		c-1.3,0-3.1-0.3-4.4-1.5c-2.9-2.9-1.7-10.5,4.2-16.4c3.6-3.6,8.1-5.7,12-5.7c1.3,0,3.1,0.3,4.4,1.5
		C141.2,283.2,140,290.8,134.1,296.7z M88,288.6c-4,0-8.6-6.2-8.6-14.6c0-8.3,4.5-14.6,8.6-14.6c4,0,8.6,6.2,8.6,14.6
		C96.6,282.4,92.1,288.6,88,288.6z M58.3,300.9c-1.2,1.2-3.1,1.5-4.4,1.5c-3.9,0-8.4-2.1-12-5.7c-5.9-5.9-7.1-13.5-4.2-16.4
		c1.2-1.2,3.1-1.5,4.4-1.5c3.9,0,8.4,2.1,12,5.7C60,290.5,61.2,298.1,58.3,300.9z M28.8,306.1c-3.5,0.2-6.9,0.8-9.9,1.9
		c0.6-5,1.5-10,2.4-15C22.7,297.6,25.3,302,28.8,306.1L28.8,306.1z M16.9,330.6c0-4,6.2-8.6,14.6-8.6c8.3,0,14.6,4.5,14.6,8.6
		c0,4-6.2,8.6-14.6,8.6C23.1,339.2,16.9,334.7,16.9,330.6z M54.1,376.7c-3.6,3.6-8.1,5.7-12,5.7c-1.3,0-3.1-0.2-4.4-1.5
		c-2.9-2.9-1.7-10.5,4.2-16.4c3.6-3.6,8.1-5.7,12-5.7c1.3,0,3.1,0.3,4.4,1.5C61.2,363.1,60,370.8,54.1,376.7L54.1,376.7z M88,372.6
		c4,0,8.6,6.2,8.6,14.6c0,8.4-4.5,14.6-8.6,14.6c-4,0-8.6-6.2-8.6-14.6C79.4,378.8,84,372.6,88,372.6z M96.1,566.4v-61.3
		c3,2.2,6.2,4.4,9.7,6.2v28.2l6.9,1c3.3,0.5,6.3,0.7,9.2,0.7c4.7,0,9.4-0.7,14-1.7c-1,4.5-1.6,9.2-1.6,14c0,2.8,0.2,5.7,0.7,9.1
		l1,6.9l28.3,0c6.5,11.2,14.9,20.7,24.6,28.1v44.5C153.7,622.8,122.3,597.2,96.1,566.4L96.1,566.4z M205,650.6v-52.6
		c6-4.5,17.8-14.6,24.7-28.4h28.2l1-6.9c0.5-3.4,0.7-6.3,0.7-9.1c0-4.8-0.6-9.5-1.6-14c4.6,1,9.2,1.7,14,1.7c2.8,0,5.8-0.2,9.2-0.7
		l6.9-1v-28.2c1.4-0.7,2.7-1.6,4-2.4v169.7c-1.5-0.3-3-0.5-4.5-0.7C258.7,672.4,231,663.1,205,650.6L205,650.6z M420.7,545.1
		c-9.6,0-17.4-7.8-17.4-17.5c0-9.6,7.8-17.5,17.4-17.5c9.6,0,17.5,7.8,17.5,17.5C438.2,537.3,430.4,545.1,420.7,545.1z M444.6,551.3
		c0.1,0.2,0.2,0.4,0.3,0.6c-0.2-0.1-0.4-0.2-0.6-0.3L444.6,551.3z M455.6,519.6c3.6-13.2,15.6-23,29.9-23
		c17.1,0,31.1,13.9,31.1,31.1c0,17.1-13.9,31.1-31.1,31.1c-14.3,0-26.3-9.8-29.9-23h29.9v-16.2H455.6z M444.6,504
		c-0.1-0.1-0.2-0.2-0.2-0.2c0.2-0.1,0.4-0.2,0.6-0.4C444.8,503.7,444.7,503.8,444.6,504z M428.8,492.9V463h-16.2v29.9
		c-13.2-3.6-23-15.6-23-29.9c0-17.1,13.9-31.1,31.1-31.1c17.1,0,31.1,13.9,31.1,31.1C451.8,477.3,442,489.3,428.8,492.9z
		 M397.1,503.8c-0.1,0.1-0.2,0.2-0.2,0.2c-0.1-0.2-0.2-0.4-0.4-0.6C396.7,503.6,396.9,503.7,397.1,503.8z M385.9,535.7
		c-3.6,13.2-15.6,23-29.9,23c-17.1,0-31.1-13.9-31.1-31.1c0-17.1,13.9-31.1,31.1-31.1c14.3,0,26.3,9.8,29.9,23h-29.9v16.2
		L385.9,535.7z M396.9,551.3c0.1,0.1,0.1,0.1,0.2,0.2c-0.2,0.1-0.4,0.2-0.6,0.3C396.7,551.7,396.8,551.5,396.9,551.3z M412.7,562.5
		v29.9h16.2v-29.9c13.2,3.6,23,15.6,23,29.9c0,17.1-13.9,31.1-31.1,31.1c-17.1,0-31.1-13.9-31.1-31.1
		C389.7,578,399.5,566,412.7,562.5z M537.7,626c-33.6,22.9-70.5,39.1-108.9,48.4v-35.6C451,635,468,615.6,468,592.3
		c0-8.9-2.5-17.1-6.7-24.2c7.1,4.3,15.4,6.8,24.2,6.8c26,0,47.2-21.2,47.2-47.2c0-26-21.2-47.2-47.2-47.2c-8.9,0-17.1,2.5-24.2,6.8
		c4.3-7.1,6.8-15.4,6.8-24.2c0-26-21.2-47.2-47.2-47.2c-26,0-47.2,21.2-47.2,47.2c0,8.9,2.5,17.1,6.8,24.2
		c-7.1-4.3-15.4-6.8-24.2-6.8c-26,0-47.2,21.2-47.2,47.2c0,26,21.2,47.2,47.2,47.2c8.9,0,17.1-2.5,24.2-6.7
		c-4.2,7.1-6.7,15.3-6.7,24.2c0,23.3,17,42.6,39.2,46.5v39.1c-34.1,6.5-69.3,7.6-104.5,3.1V495.9c6.5-6.7,10.5-12.6,10.8-13.1
		l2.9-4.5l-3.1-4.5c-3.2-4.6-6.6-8.5-10.2-12l0-113.6c14.5-20.9,24.9-39.7,31.3-56.2c16.8,7.4,38.3,13.5,64.5,18.1L415,312
		l-1.1-10.6c-0.2-2.5-3.9-36.6-17-66c17-6.7,36.3-17.4,57.9-32.5l8.8-6.1l-8.3-6.7c-1.5-1.2-28.2-22.7-58.1-34.4
		c12.9-29.2,16.5-62.9,16.8-65.4l1.1-10.6l-10.5,1.8c-26.2,4.6-47.7,10.7-64.5,18.1c-6.6-17.1-17.5-36.6-32.8-58.4l-6.1-8.8
		l-6.8,8.3c-1.4,1.7-22.8,28.2-34.4,58.1c-29.3-12.9-63.2-16.5-65.4-16.8l-10.6-1.1l1.8,10.5c4.6,25.9,10.5,47.2,17.8,64
		c-30.1,11.6-57,33.4-58.6,34.6l-8.3,6.7l8.8,6.1c21.8,15.2,41.2,26,58.3,32.7c-7.4,16.8-13.4,38.3-18,64.6l-1.8,10.5l10.6-1.1
		c2.2-0.2,36.1-3.8,65.4-16.8c10,25.7,27,48.7,32.6,55.8l0,100.1c-1.5-1-3.1-2.1-4.5-2.9v-28.4l-6.9-1c-3.4-0.5-6.3-0.7-9.1-0.7
		c-4.7,0-9.4,0.7-14,1.7c1-4.5,1.6-9.2,1.6-14c0-2.8-0.2-5.8-0.7-9.2l-1-6.9h-28.2c-9.4-18.5-27.6-30.5-28.4-31l-4.5-2.9l-4.4,3.1
		c-11.2,7.7-20.8,18.3-28.1,30.9h-11c2.3-4.3,3.2-9.5,2.4-15c-0.9-6.1-3.9-12.1-8.4-17.2c15.9-1.1,28.1-11.4,28.1-24.5
		c0-13.1-12.2-23.5-28.1-24.5c10.5-12,11.8-27.9,2.5-37.2c-4-4-9.6-6.2-15.8-6.2c-7.5,0-15.1,3.3-21.4,8.8
		c-1.1-15.9-11.4-28.1-24.5-28.1s-23.5,12.2-24.5,28.1c-6.3-5.5-14-8.8-21.4-8.8c-6.2,0-11.8,2.2-15.8,6.2
		C46.2,189.2,94,120.5,162.4,74C236.1,23.9,325,5.5,412.5,22.2c134.1,25.5,234.1,128.5,262.8,253.6H618c-1,0-2,0.1-2.9,0.2
		c0.1-1,0.1-2,0.1-3v-60.5c0-2.4-1-4.6-2.9-6.2c-1.8-1.5-4.2-2.2-6.6-1.8c-27.2,4.7-41.6,17.3-49.2,28.5
		c-9.5-13.5-26.8-23.2-50.5-27.9c-2.3-0.5-4.8,0.1-6.7,1.7c-1.9,1.5-2.9,3.8-2.9,6.2V273c0,1,0.1,2,0.2,2.9c-1-0.1-2-0.1-3-0.1
		l-60.5,0c-2.4,0-4.6,1-6.2,2.9c-1.5,1.8-2.2,4.2-1.8,6.6c4.7,27.2,17.3,41.6,28.5,49.2c-13.5,9.5-23.2,26.8-27.9,50.5
		c-0.5,2.4,0.1,4.8,1.7,6.7c1.5,1.9,3.8,2.9,6.2,2.9h59.9c1,0,2-0.1,3-0.2c-0.1,1-0.2,2-0.2,3v60.5c0,2.4,1,4.6,2.9,6.2
		c1.5,1.2,3.3,1.9,5.2,1.9c0.5,0,0.9,0,1.4-0.1c19.8-3.4,32.7-11,41.3-19.2v172.6C544,621.5,540.9,623.8,537.7,626L537.7,626z
		 M563.3,606.7V446.4c10,8.8,24.2,15.2,42.2,18.8c2.4,0.5,4.8-0.1,6.7-1.7c1.9-1.5,2.9-3.8,2.9-6.2v-59.9c0-1-0.1-2-0.2-2.9
		c1,0.1,2,0.1,3,0.1h60.5c0.8,0,1.6-0.3,2.3-0.5c-0.8,6.2-1.8,12.3-3,18.5C663.2,489.5,622.9,557.4,563.3,606.7L563.3,606.7z"/>
	<path class="st0" d="M48.8,493.7c-2.9-6-5.6-12.1-8.1-18.3c-1.7-4.1-6.4-6.1-10.5-4.5s-6.1,6.4-4.5,10.5c2.6,6.5,5.5,12.9,8.5,19.1
		c1.4,2.9,4.3,4.6,7.3,4.6c1.2,0,2.4-0.2,3.5-0.8C49,502.5,50.7,497.7,48.8,493.7L48.8,493.7z"/>
</g>
</svg>
