<?xml version="1.0" encoding="utf-8"?>
<!-- Generator: Adobe Illustrator 26.3.1, SVG Export Plug-In . SVG Version: 6.00 Build 0)  -->
<svg version="1.1" id="Layer_1" xmlns="http://www.w3.org/2000/svg" xmlns:xlink="http://www.w3.org/1999/xlink" x="0px" y="0px"
	 viewBox="0 0 700 700" style="enable-background:new 0 0 700 700;" xml:space="preserve">
<style type="text/css">
	.st0{fill:#CED4DA;}
</style>
<g>
	<path class="st0" d="M456.8,16.7C403.6-0.3,346.6-4.4,291.9,4.8c-4.8,0.8-8.1,5.4-7.3,10.2c0.8,4.8,5.4,8.1,10.2,7.3
		c42.3-7.2,84.6-6,126.2,3.2c-88.4,1-157.1,39.8-157.1,89.2c0,42,49.6,76.2,118.6,86.2l17.8,38.5c1.5,3.1,4.6,5.1,8.1,5.1h73.4
		c4.9,0,8.9-4,8.9-8.9v-39.3c55.8-13.7,94-44.2,94.6-80.8c84.6,85.2,120.2,213.6,81.1,335.7c-0.1,0.4-0.3,0.8-0.4,1.2
		c-0.9-13.8-11.9-24.8-25.4-24.8h-30.8c-14.1,0-25.6,12-25.6,26.6v23.5h-44.1c-14.7,0-26.6,12-26.6,26.6v97.8
		c0,11.9,7.9,21.9,18.6,25.3c-12.3,8.1-25.1,15.3-38.4,21.6V508c0-17.1-13.9-31-31-31h-13.6v-22.8c0-14.7-11.5-26.6-25.6-26.6h-30.8
		c-14.1,0-25.6,12-25.6,26.6V477h-13.6c-17.1,0-31,13.9-31,31v173c-24.7-2-49.4-6.8-74-14.6c-24.6-7.9-47.7-18.5-69-31.2
		c22.3-7.4,42.2-19.7,58.7-35.6l0.5,0.5l6.1-6.7c13.8-15.1,24.5-32.9,31.4-52c0.1-0.4,0.3-0.8,0.4-1.3c1.3-3.6,2.4-7.2,3.4-10.9
		c0.1-0.4,0.2-0.7,0.3-1.1c0.1-0.4,0.3-0.9,0.4-1.3l0.9-3.8l-0.2-0.2c2.5-10.9,3.9-22.3,3.9-33.9c0-15-2.3-29.5-6.3-43.3h0.6
		l-4.2-11.2c-0.3-0.8-0.7-1.6-1-2.4c-1.2-3.1-2.6-6.1-4-9.1c-1-2.1-1.9-4.1-3-6.1c-1.3-2.4-2.6-4.6-4-6.9c-1.5-2.4-2.8-4.9-4.4-7.3
		c-0.3-0.5-0.7-0.9-1-1.3c-7.6-11-16.6-20.9-26.7-29.6c-1-0.9-2-1.8-3-2.6c-2.6-2.1-5.4-4.1-8.1-6.1c-1.7-1.2-3.3-2.4-5-3.5
		c-2.4-1.6-4.9-3.1-7.4-4.5c-2.4-1.4-4.7-2.6-7.2-3.9c-2.1-1.1-4.3-2.1-6.5-3.1c-3.1-1.4-6.3-2.7-9.5-3.9c-1.2-0.5-2.4-1-3.6-1.5
		l-7.5-2.6l-0.1,0.3c-13.5-3.9-27.8-6.1-42.6-6.1c-43.9,0-83.4,18.5-111.6,47.9c-4.3-43.7,0-88.9,14.2-133.3c1.1-3.5,2.4-7,3.7-10.5
		c2.5,0.9,5.2,1.4,7.9,1.7v75.6c0,4.9,4,8.9,8.9,8.9h82.5c4.9,0,8.9-4,8.9-8.9v-51.5h6.9v51.5c0,4.9,4,8.9,8.9,8.9h82.5
		c4.9,0,8.9-4,8.9-8.9v-75.7c7.9-1,16.8-4.3,21.9-11.4c3-4.2,5.9-11.2,2.7-21l-18.7-59.4c-4.3-14.2-11.3-22.9-20.9-26.1V78.1
		c0-4.9-4-8.9-8.9-8.9h-52.7c-4.9,0-8.9,4-8.9,8.9v42.2h-36.7v-19.6c25.6-22.5,54.7-41.3,86.6-55.2c4.5-2,6.5-7.2,4.6-11.7
		c-2-4.5-7.2-6.6-11.7-4.6c-92.2,40.3-162.7,118.3-193.3,214C-42.4,427,59.2,624.4,243,683.2c183.8,58.9,381.2-42.7,440-226.5
		C742.1,273,640.5,75.6,456.8,16.7L456.8,16.7z M424.6,186.3c-36.1,0-69.4-7.2-94.9-18.7c1.7-4.5,3.2-8.9,4.4-13.3
		c22.2,8,79.2,26.1,145.6,26.2C462.7,184.3,444,186.3,424.6,186.3L424.6,186.3z M329.7,61.9c25.5-11.5,58.8-18.7,94.9-18.7
		c29,0,56.3,4.6,79.1,12.4c12.5,6.5,24.4,13.7,35.8,21.6c-85.4-25.5-175.9-6.2-205,1.3C333,71.7,331.2,66.1,329.7,61.9L329.7,61.9z
		 M281.7,114.8c0-16.7,12.1-32.2,32.1-44.5c5.4,16.1,13.7,51.6,0.2,89.2C293.9,147.1,281.7,131.5,281.7,114.8L281.7,114.8z
		 M472.9,226.8h-58.8l-10.9-23.6c7,0.5,14.2,0.9,21.5,0.9c16.9,0,33.1-1.4,48.3-4L472.9,226.8z M537.9,157.7
		c-87.9,16.6-176.2-12.2-200.3-21c2-14.8,1.7-28.6,0.1-40.6c29.1-7.5,139.5-31.4,228.6,10.2c0.7,2.8,1.2,5.6,1.2,8.5
		C567.6,130.7,556.4,145.6,537.9,157.7L537.9,157.7z M94.3,138h18.5v84.3H48.6c-1.6,0-3.3-0.3-4.8-0.7
		C56.5,191.2,73.5,163.1,94.3,138L94.3,138z M167.3,222.3h-36.7V138h36.7V222.3L167.3,222.3z M110.2,120.3c0.9-0.9,1.7-1.8,2.6-2.7
		v2.7H110.2z M127.7,306.5H63v-66.4h64.7V306.5z M145.5,246.1V240h6.9v6.1H145.5z M234.9,306.5h-64.7v-66.4h64.7V306.5z
		 M260.4,212.7c1.1,3.4,0.1,4.7-0.2,5.2c-1.9,2.6-7.2,4.5-12.6,4.5H185V138h43.9c2.7,0,8.2,0,12.8,15L260.4,212.7z M185,87h35v33.3
		h-35V87z M262.6,526.6c-0.4,1.3-0.9,2.5-1.3,3.8c-2,6.2-4.3,12.2-7.1,17.9c-0.2,0.5-0.5,1-0.7,1.5c-1.6,3.2-3.4,6.3-5.3,9.4
		c-0.3,0.5-0.6,1-0.9,1.5c-2,3.2-4.2,6.4-6.5,9.4c-0.1,0.2-0.3,0.4-0.4,0.6c-0.8,1-1.7,2-2.5,3c-6.6-7.4-12.4-15.3-15-19
		c0-2.9,0.5-3.6,2-5.5c2.5-3.4,6.4-8.6,9.5-21.5c2.4-10.1,3-18.7,3.4-25.6c0.4-6.3,0.8-12.3,2.5-13.6l1.7-1.2
		c1.5-1.2,3.4-2.6,4.8-3.6c0.8,2.4,1.6,5.7,2.4,9c1,4.2,2.1,8.9,3.7,13.9c2.2,6.9,6.4,13.8,10,19.3
		C262.6,526.2,262.6,526.4,262.6,526.6L262.6,526.6z M183.6,362.4c0.1,0,0.2,0.1,0.3,0.1c1,0.4,2,1,3,1.4c3,1.4,6.1,2.8,9,4.3
		c0.6,0.3,1.1,0.7,1.7,1c3.3,1.9,6.6,3.8,9.7,5.9c0.3,0.2,0.5,0.4,0.8,0.6c3.4,2.3,6.7,4.8,9.8,7.4c0.1,0.1,0.3,0.2,0.4,0.4
		c3.2,2.7,6.3,5.4,9.2,8.4c0.2,0.2,0.4,0.4,0.6,0.6c2.8,2.8,5.5,5.8,8,8.8c0.4,0.4,0.7,0.9,1.1,1.3c2.3,2.8,4.4,5.7,6.5,8.6
		c0.6,0.8,1.1,1.6,1.7,2.5c1.7,2.6,3.3,5.2,4.8,7.9c0.7,1.3,1.4,2.6,2.1,3.9c0.5,1,0.9,2,1.4,3c-4.7-0.5-6.8-1.4-7.6-1.8
		c-1.3-17.4-20.5-28.1-40.9-39.5c-5.2-2.9-10.6-5.9-15.8-9.1C186.9,376.4,181.1,372.9,183.6,362.4L183.6,362.4z M22.6,405.3
		c25.1-32.5,64.3-53.5,108.4-53.5c12.4,0,24.4,1.8,35.9,4.9c-4.1,15.5,0.4,28.5,13.3,36.4c5.4,3.3,11,6.5,16.4,9.5
		c14.7,8.2,31.5,17.6,31.8,25.5c0.4,8.3,6.2,18.3,31.7,18.3c0.3,0,0.7,0,1,0c4.4,13.4,6.8,27.6,6.8,42.3c0,1.8-0.2,3.5-0.2,5.2
		c-0.5-1.8-0.9-3.6-1.3-5.2c-1.6-7.1-3.1-13.2-6.4-18c-2.8-3.9-6.8-6.1-11.3-6.1c-6.1,0-11.1,3.7-17.4,8.5l-1.6,1.2
		c-8.3,6.2-9,16.2-9.7,26.7c-0.4,6.6-0.9,14-3,22.7c-2.2,9.4-4.4,12.4-6.4,15c-3.5,4.7-5.9,8.8-5.4,19.5l0.1,2.5l1.4,2.1
		c0.4,0.6,8.9,12.9,19.1,24.2c-18.1,17.4-40.8,29.9-66.2,35.3C86.4,571,37.4,492.2,22.6,405.3L22.6,405.3z M602,454.3
		c0-4.9,3.5-8.9,7.8-8.9h30.8c4.3,0,7.8,4,7.8,8.9v23.5H602V454.3z M429.4,494.9v112.6h-46.7V494.9H429.4z M429.4,625.2v47.2
		c-15.3,3.8-30.9,6.5-46.7,8.1v-55.3H429.4z M447.1,625.2H476v31.9c-9.5,3.9-19.1,7.3-28.9,10.4V625.2z M476,508.2v99.3h-28.9V494.9
		h15.6C470.1,494.9,476,500.9,476,508.2L476,508.2z M385,454.3c0-4.9,3.5-8.9,7.8-8.9h30.8c4.3,0,7.8,4,7.8,8.9v22.8H385V454.3z
		 M353.7,494.9h11.2v112.6h-24.5v-99.3C340.4,500.9,346.4,494.9,353.7,494.9L353.7,494.9z M340.4,682v-56.8h24.5v56.6
		C356.8,682.2,348.6,682.2,340.4,682L340.4,682z M555.1,611.2h-15c-4.9,0-8.9-4-8.9-8.9v-97.8c0-4.9,4-8.9,8.9-8.9h108.4
		C626.1,541.7,593.8,580.8,555.1,611.2L555.1,611.2z"/>
	<path class="st0" d="M238.9,35c1.7,0.6,3.7,0.6,5.5,0c6.2-2.1,12.6-4,19-5.8c4.7-1.3,7.5-6.1,6.2-10.9c-1.3-4.7-6.1-7.5-10.9-6.2
		c-6.7,1.8-13.5,3.9-20,6.1c-4.7,1.6-7.1,6.6-5.6,11.2C234.2,32.2,236.3,34.2,238.9,35L238.9,35z"/>
	<path class="st0" d="M549.6,138.6L536.5,111c-1.5-3.1-4.6-5.1-8-5.1h-67.3c-3.7,0-7,2.3-8.3,5.8s-0.3,7.4,2.5,9.8l31.6,27.6
		c1.6,1.4,3.7,2.2,5.8,2.2h48.8c3,0,5.9-1.6,7.5-4.1C550.7,144.6,551,141.4,549.6,138.6L549.6,138.6z M496.1,133.6l-11.3-9.9h38
		l4.7,9.9H496.1z"/>
	<path class="st0" d="M394.5,304.5c-2.1-1.6-4.8-2.1-7.3-1.6l-35.6,8.1c-2.8,0.6-5.1,2.5-6.2,5.1s-0.9,5.6,0.5,8l38.6,66.3
		c1.6,2.8,4.5,4.4,7.7,4.4c0.5,0,0.9,0,1.4-0.1l102.1-16.2l-7,53.3c-0.4,2.8,0.7,5.7,2.7,7.6c1.7,1.6,3.8,2.4,6.1,2.4
		c0.6,0,1.2-0.1,1.7-0.2l37.3-7.4c3.2-0.6,5.8-3,6.8-6.1l18.1-60l98.4-15.6c3.3-0.5,6-2.8,7-6c1-3.1,0.2-6.6-2.1-9
		c-27.5-28.3-59-31.8-60.3-31.9c-0.8-0.1-1.6-0.1-2.4,0.1l-64.5,11l-50.9-46.1c-2-1.8-4.7-2.6-7.4-2.2l-35.8,5.8
		c-3,0.5-5.5,2.5-6.7,5.2c-1.2,2.8-0.9,6,0.8,8.5l27.8,41l-31.3,5.3L394.5,304.5z M527.7,417.8l-19.9,4l6-46.2l27.9-4.4L527.7,417.8
		z M603.6,323.4c3.9,0.6,18.4,3.5,34.3,14.5L553,351.4l0,0l-48.5,7.7l0,0l-107.8,17.1l-29.4-50.6l19.8-4.5l39.1,29.7
		c2,1.5,4.4,2.1,6.9,1.7l48.6-8.3h0.1l54.4-9.3c0,0,0,0,0.1,0L603.6,323.4z M459.9,289.5l17.9-2.9l37.4,33.9l-30.7,5.2L459.9,289.5z
		"/>
	<path class="st0" d="M144.4,524.2c11-7,21.5-15.4,19-32.2c-0.8-5.5-0.8-5.7,1.5-12.9c0.9-3,2.2-6.9,3.7-12.3
		c1.2-4.2,2.6-8.1,3.8-11.6c3.5-9.7,6.4-18.1,2.7-25.9c-2.2-4.5-6.2-7.8-12.1-9.9c-12.8-4.4-27.2-6.9-32.1-7.6c-3.8-2-13-6.5-22-6.5
		c-12.5,0-20.4,8.2-21,22c-0.5,9.6-3,12.1-6.3,15.3c-5.2,5.1-9.7,10.8-7.6,23.3c2.4,14.1,10.8,19.9,17.5,24.5
		c4.6,3.1,8.9,6.1,12.5,11.9l1.4,2.2c8.3,13.3,14.9,23.9,26.7,23.9C136.1,528.3,140.1,526.9,144.4,524.2L144.4,524.2z M120.5,495
		l-1.4-2.2c-5.6-9-12.2-13.5-17.6-17.1c-5.9-4.1-8.9-6.1-10.1-12.8c-0.8-4.4-0.5-4.6,2.5-7.6c4.3-4.2,10.9-10.6,11.6-27.1
		c0.2-5.1,1.4-5.1,3.3-5.1c4.5,0,11.3,3,14.5,4.9l1.6,0.9l1.8,0.2c0.2,0,16.7,2.3,30.4,7.1c1.3,0.5,1.9,0.9,1.9,0.8
		c0.3,1.9-1.8,7.9-3.4,12.2c-1.4,3.9-2.9,8.1-4.2,12.8c-1.5,5.2-2.6,8.9-3.5,11.8c-2.7,8.7-3.5,11.6-2.2,20.8
		c0.7,4.7,0.5,7.3-11.1,14.8c-1.8,1.1-2.6,1.2-2.7,1.2C129.8,509.9,124.4,501.3,120.5,495L120.5,495z"/>
	<path class="st0" d="M171.1,593.1c3.5,0,15-1.2,17.1-17c1.9-15-2.5-46.5-8.9-53.8c-4.6-5.3-13.1-4.3-16.4,2.3
		c-4.1,8.6-10.2,19.5-12.7,22.2c-4.6,2.3-20.8,11.1-20.5,23.1c0.1,2.9,1.4,10.1,11.8,13.5c3.3,1.1,6.7,2.5,9.9,3.9
		C158.3,590.3,164.8,593.1,171.1,593.1L171.1,593.1z M157.8,562.7c1.8-0.7,5.1-2,11.7-12.8c1.2,8,1.9,17.2,1.1,23.9
		c-0.1,0.6-0.2,1.1-0.3,1.5c-2.8-0.4-7.8-2.5-12-4.3c-2.7-1.1-5.4-2.3-8.1-3.3C152.7,565.6,156.1,563.4,157.8,562.7L157.8,562.7z"/>
	<path class="st0" d="M554.4,510.5c-4.9,0-8.9,4-8.9,8.9v36.5c0,4.9,4,8.9,8.9,8.9s8.9-4,8.9-8.9v-36.5
		C563.2,514.5,559.3,510.5,554.4,510.5z"/>
	<path class="st0" d="M334.2,359.2l-34.4,10c-4.7,1.4-7.4,6.3-6.1,11c1.1,3.9,4.7,6.4,8.5,6.4c0.8,0,1.7-0.1,2.5-0.4l34.4-10
		c4.7-1.4,7.4-6.3,6.1-11C343.8,360.6,338.9,357.8,334.2,359.2L334.2,359.2z"/>
	<path class="st0" d="M292.6,409c1.1,3.9,4.7,6.4,8.5,6.4c0.8,0,1.7-0.1,2.5-0.4l34.4-10c4.7-1.4,7.4-6.3,6.1-11
		c-1.4-4.7-6.3-7.4-11-6l-34.4,10C293.9,399.4,291.2,404.3,292.6,409L292.6,409z"/>
</g>
</svg>
