<svg width="24" height="24" viewBox="0 0 24 24" fill="none" xmlns="http://www.w3.org/2000/svg">
<path fill-rule="evenodd" clip-rule="evenodd" d="M6.5399 21.7112V8.57642H2.19543V21.7112H6.5399ZM4.36764 6.78308C5.88264 6.78308 6.82561 5.77448 6.82561 4.51401C6.79738 3.22517 5.88265 2.24455 4.39638 2.24455C2.91027 2.24455 1.93861 3.22517 1.93861 4.51401C1.93861 5.77448 2.88137 6.78308 4.33932 6.78308H4.36764Z" fill="#103754"/>
<path fill-rule="evenodd" clip-rule="evenodd" d="M8.94382 21.7112H13.2882V14.3762C13.2882 13.9836 13.3165 13.5915 13.4312 13.3108C13.7453 12.5265 14.4601 11.7142 15.6603 11.7142C17.2323 11.7142 17.8612 12.9187 17.8612 14.6844V21.7112H22.2053V14.1799C22.2053 10.1455 20.0619 8.2682 17.2036 8.2682C14.8599 8.2682 13.831 9.58464 13.2593 10.4813H13.2884V8.57642H8.94393C9.00095 9.8089 8.94382 21.7112 8.94382 21.7112Z" fill="#103754"/>
</svg>
