<?xml version="1.0" encoding="utf-8"?>
<!-- Generator: Adobe Illustrator 26.3.1, SVG Export Plug-In . SVG Version: 6.00 Build 0)  -->
<svg version="1.1" id="Layer_1" xmlns="http://www.w3.org/2000/svg" xmlns:xlink="http://www.w3.org/1999/xlink" x="0px" y="0px"
	 viewBox="0 0 700 700" style="enable-background:new 0 0 700 700;" xml:space="preserve">
<g>
	<path d="M574.6,142V138l-1.1-2.2l-1.1-1.7l-2.8-3.4H569l-3.4-2.8l-1.7-1.1l-2.2-1.1H423.4c-8,0-15.4,4.3-19.4,11.2
		c-4,6.9-4,15.5,0,22.4c4,6.9,11.4,11.2,19.4,11.2h75L245.8,421.4c-5.7,5.7-7.9,14-5.8,21.8c2.1,7.8,8.2,13.9,16,16
		c7.8,2.1,16.1-0.1,21.8-5.8l252.6-252.6v75c0,8,4.3,15.4,11.2,19.4c6.9,4,15.5,4,22.4,0c6.9-4,11.2-11.4,11.2-19.4V147
		C575.1,145.3,574.9,143.6,574.6,142L574.6,142z"/>
	<path d="M192.1,574.3h228.5c17.8,0,34.9-7.1,47.5-19.7s19.7-29.7,19.7-47.5v-107c0-8-4.3-15.4-11.2-19.4c-6.9-4-15.5-4-22.4,0
		c-6.9,4-11.2,11.4-11.2,19.4v107c0,5.9-2.4,11.6-6.6,15.8c-4.2,4.2-9.9,6.6-15.8,6.6H192.1c-5.9,0-11.6-2.4-15.8-6.6
		c-4.2-4.2-6.6-9.9-6.6-15.8V278.6c0-5.9,2.4-11.6,6.6-15.8c4.2-4.2,9.9-6.6,15.8-6.6h107c8,0,15.4-4.3,19.4-11.2
		c4-6.9,4-15.5,0-22.4c-4-6.9-11.4-11.2-19.4-11.2h-107c-17.8,0-34.9,7.1-47.5,19.7c-12.6,12.6-19.7,29.7-19.7,47.5v228.5
		c0,17.8,7.1,34.9,19.7,47.5S174.3,574.3,192.1,574.3L192.1,574.3z"/>
</g>
</svg>
