<?xml version="1.0" encoding="UTF-8"?><svg id="Layer_2" xmlns="http://www.w3.org/2000/svg" viewBox="0 0 550.07 682.26"><defs><style>.cls-1{fill:#28378c;}</style></defs><g id="final"><path class="cls-1" d="M513.75,607.65c-7.39-7.06-15.84-13.09-24.1-19.08-10.02-7.25-19.77-14.63-29.98-21.61-10.95-8.22-23.65-14.6-35.75-20.97-11.24-5.92-22.82-11.23-34.74-15.64-10.43-3.86-21.15-7.06-32.1-9.12-9.19-1.73-18.6-2.67-27.96-2.15-13.38,.73-21.32-1.28-22.95-5.83-3.73-10.4,21.63-34.73,35.38-44.84,6.18-4.55,14.52-11.92,19.11-21.21,5.68-11.48,4.53-23-3.42-34.24-15.04-21.29-50.52-27.92-105.46-19.71-11.76,1.76-24.37,5.38-36.57,8.88-33.14,9.52-67.41,19.35-90.87-5.45-1.75-1.85-3.26-3.69-4.5-5.46-4.23-6.09-5.3-11.46-3.28-16.42,3.08-7.54,15.03-18.11,54.52-25.66,18.65-3.57,46.77-23.85,61.54-51.61,9.96-18.73,9.44-57.22,8.75-72.89-1.32-29.98-6.17-57.88-12.36-71.05-8.01-17.05-5.63-57.49-3.72-89.99,1-16.96,1.86-31.61,1.31-41.56-.69-12.49-7.14-17.79-12.42-20.04-14.8-6.31-37.91,3.27-52.13,15.49-34.33,29.48-69.87,74.84-100.08,127.73C32.8,196.31,12.04,253.13,1.96,309.53c-5.04,28.2,.32,64,8.18,80.99,2.67,5.77,10.33,21.07,20.03,40.44,17.37,34.7,41.16,82.22,50.25,103.08,13.71,31.46,15.42,47.53,15.44,47.68,.12,1.28,1.2,2.26,2.49,2.26,1.29,0,2.37-.98,2.49-2.27,.06-.69,1.56-16.94,.52-26.32-.21-1.92-.53-4.41-1.1-6.61-1.01-3.91-2.29-7.76-3.41-11.07-3.58-10.59-7.51-20.88-11.9-32.27-4.55-11.79-9.26-23.71-13.82-35.25l-1.92-4.86c-5.26-13.3-10.69-27.06-15.99-40.9-.82-2.13-1.64-4.26-2.47-6.39-4.46-11.53-9.08-23.44-12.36-35.63-5.2-19.3-7.25-37.87-6.11-55.17,.36-5.47,1.05-10.89,2.04-16.12,3.78-19.83,20.59-67.51,28.59-85.03,14.23-31.17,32.4-57.04,51.63-84.44,2.33-3.32,4.68-6.66,7.03-10.04,8.74-12.52,16.54-21.69,24.53-28.84,2.52-2.26,11.18-9.31,16.59-5.11,2.25,1.75,3.45,5.16,4.42,8.6,4.84,17.25,6.11,35.98,7.34,54.1,1.22,18.01,2.49,36.64,7.23,54.09,.76,2.82,1.63,5.64,2.47,8.38,2.52,8.23,4.9,16,5.07,24.34,.25,12.47-4.84,25.93-13.96,36.92-5.12,6.16-11.66,11.83-19.46,16.84-1.62,1.04-3.32,1.94-5.13,2.89-2.07,1.09-4.21,2.23-6.24,3.6-3.39,2.3-7.03,4.72-11.81,7.84-7.14,4.66-14.09,9.28-20.67,14.56l-.35,.28c-4.08,3.27-9.16,7.35-11.73,12.84l-.57,1.21c-1.83,3.85-3.32,7.89-3.7,12.16-.47,5.35,.88,10.63,3.16,15.45,4.2,8.87,10.08,15.95,16.48,23.22,2.7,3.07,6.43,6.08,9.43,9,2.77,2.69,6.21,4.85,9.6,6.7,6.99,3.82,14.79,5.87,22.71,6.5s16.59-.12,24.74-1.53c8.69-1.5,17.24-3.73,25.72-6.1,3.06-.86,6.12-1.73,9.17-2.61,12.6-3.62,24.5-7.03,35.93-8.74,24.03-3.59,44.47-4.28,60.76-2.05,19.06,2.61,32.48,9.24,39.87,19.71,14.53,20.58,.1,37.76-14.58,48.54-.44,.32-43.44,32.95-37.13,50.56,2.52,7.03,11.66,10.01,27.93,9.13,9.29-.5,18.63,.48,27.74,2.25,10.87,2.11,21.51,5.37,31.85,9.28,11.87,4.49,23.39,9.88,34.57,15.86,6.07,3.25,23.1,14.49,32.1,21.49s17.91,16.3,29,29c8.54,9.78,17.61,27.3,24.26,40.62,2.33,4.67,3.73,9.32,5.08,13.82,2.61,8.71,5.07,16.94,13.71,23.1,2.54,1.82,5.6,2.75,8.6,2.75,1.96,0,3.9-.4,5.66-1.22,4.46-2.07,7.19-6.46,7.68-12.37,.03-.4,.07-.8,.12-1.23,.86-8.68,2.3-23.2-36.03-59.79Z"/></g></svg>