<?xml version="1.0" encoding="UTF-8"?><svg id="Layer_2" xmlns="http://www.w3.org/2000/svg" viewBox="0 0 585.66 654.59"><defs><style>.cls-1{fill:#fff;}</style></defs><g id="Layer_5"><path class="cls-1" d="M552.67,580.97c-46.08-29.62-81.48-35.76-109-43-19-5-44-11-98-21-9.65-1.79-25.69-2.54-34-7-4.99-2.67-5.44-8.79-5-11,1-5,7.08-10.06,14-15s20.38-11.36,28-16c8.88-5.41,18.69-15.21,21.3-28.22,1.89-9.46-.3-18.81-6.36-27.02-14.79-20.07-37.51-28.25-78.44-28.25-28.15,0-66.09,10.77-88.76,17.21-6.61,1.88-12.31,3.5-14.67,3.92l-.19,.03c-10.43,1.9-23.88,3.34-35.88-.66-4.95-1.65-16-7-25-17-3.28-3.65-5.26-10.29-4.09-13.17,3.08-7.54,15.03-18.11,54.52-25.66,18.65-3.57,46.77-23.85,61.54-51.61,9.96-18.73,9.44-57.22,8.75-72.89-1.32-29.98-6.17-57.88-12.36-71.05-8.01-17.05-5.63-57.49-3.72-89.99,1-16.96,1.86-31.61,1.31-41.56-.69-12.49-7.14-17.79-12.42-20.04-14.8-6.31-37.91,3.27-52.13,15.49-34.33,29.48-69.87,74.84-100.08,127.73C32.8,196.31,12.04,253.13,1.96,309.53c-5.04,28.2,.32,64,8.18,80.99,2.67,5.77,10.33,21.07,20.03,40.44,17.37,34.7,41.16,82.22,50.25,103.08,13.71,31.46,15.42,47.53,15.44,47.68,.12,1.28,1.2,2.26,2.49,2.26,1.29,0,2.37-.98,2.49-2.27,.06-.69,1.56-16.94,.52-26.32-.21-1.92-.53-4.41-1.1-6.61-1.01-3.91-2.29-7.76-3.41-11.07-3.58-10.59-7.51-20.88-11.9-32.27-4.55-11.79-9.26-23.71-13.82-35.25l-1.92-4.86c-5.26-13.3-10.69-27.06-15.99-40.9-.82-2.13-1.64-4.26-2.47-6.39-4.46-11.53-9.08-23.44-12.36-35.63-5.2-19.3-7.25-37.87-6.11-55.17,.36-5.47,1.05-10.89,2.04-16.12,3.78-19.83,20.59-67.51,28.59-85.03,14.23-31.17,32.4-57.04,51.63-84.44,2.33-3.32,4.68-6.66,7.03-10.04,8.74-12.52,16.54-21.69,24.53-28.84,2.52-2.26,11.18-9.31,16.59-5.11,2.25,1.75,3.45,5.16,4.42,8.6,4.84,17.25,6.11,35.98,7.34,54.1,1.22,18.01,2.49,36.64,7.23,54.09,.76,2.82,1.63,5.64,2.47,8.38,2.52,8.23,4.9,16,5.07,24.34,.25,12.47-4.84,25.93-13.96,36.92-5.12,6.16-11.66,11.83-19.46,16.84-1.62,1.04-3.32,1.94-5.13,2.89-2.07,1.09-4.21,2.23-6.24,3.6-3.39,2.3-7.03,4.72-11.81,7.84-7.14,4.66-14.09,9.28-20.67,14.56l-.35,.28c-4.08,3.27-9.16,7.35-11.73,12.84l-.57,1.21c-1.83,3.85-3.32,7.89-3.7,12.16-.47,5.35,.02,11.74,2.07,16.67,5,12,9,19,14,25,6.72,8.07,16.15,15.65,28,20,17.09,6.28,33.53,5.44,44.74,3.41l.19-.03c3.12-.57,8.6-2.12,16.18-4.27,21.87-6.21,48.02-9.71,73.89-8.1,32,2,41.3,7.79,48,13,9,7,16,14,17,23,.88,7.92-6.06,12.52-8,14-21,16-40,25.77-40,42,0,10.69,5.12,17.91,15.64,22.08,7.99,3.16,19.21,3.76,36.36,6.86,38.99,7.06,63.18,19.45,81.99,30.06,39,22,55,41,75,60,34.88,33.13,53,40,72,31,18.19-8.62,22-43-20-70Z"/></g></svg>