<?xml version="1.0" encoding="utf-8"?>
<!-- Generator: Adobe Illustrator 26.3.1, SVG Export Plug-In . SVG Version: 6.00 Build 0)  -->
<svg version="1.1" id="Layer_1" xmlns="http://www.w3.org/2000/svg" xmlns:xlink="http://www.w3.org/1999/xlink" x="0px" y="0px"
	 viewBox="0 0 700 700" style="enable-background:new 0 0 700 700;" xml:space="preserve">
<style type="text/css">
	.st0{fill:#CED4DA;}
</style>
<g>
	<path class="st0" d="M665.3,198.4C624.8,114.2,553.9,50.8,465.8,19.9C377.6-11,282.6-5.8,198.4,34.7
		c-51,24.6-94.1,59.8-127.9,104.7c-2.7,3.6-2,8.6,1.6,11.3c3.6,2.7,8.6,2,11.3-1.6c32.2-42.8,73.3-76.5,122-99.9
		c61.7-29.7,129.4-39.4,195.6-29v271.7h222.6l0-132.9c10.2,14.6,19.3,30.1,27.1,46.4c67.8,141.1,27.2,306.7-88.5,402.1l0.1-32.8
		c37.4-18.8,61.3-57.3,61.3-99.4c0-61.4-49.9-111.3-111.3-111.3S401,413.9,401,475.3c0,42.1,23.9,80.5,61.2,99.3v41.5h-3.6
		c-2.7,0-5.2,1.4-6.7,3.6c-4.9,6.2-7.4,12.4-7.4,18.6c0,12.3,10,22.2,22.2,22.2h5.1c-74.4,29.3-156,31-232.2,4.3
		c-12.3-4.3-24.3-9.4-35.8-15h60.1l0-103.4h119.6v-16.1c-2.1,0-4.2-0.2-6.2-0.5c-16.4-2.5-28.3-14.4-28.3-28.2V368.3
		c0-24.7-22.7-44.8-50.6-44.8l-193.4,0c-52,0-54.5,39.7-54.5,40.5v132.8c-0.4-0.7-0.8-1.4-1.1-2.2C7.7,408.2,5.4,308,42.8,219.7
		c1.7-4.1-0.2-8.8-4.3-10.6c-4.1-1.7-8.8,0.2-10.6,4.3C-11.3,306-8.8,411,34.7,501.6c40.5,84.2,111.3,147.6,199.5,178.5
		c37.9,13.3,77,19.9,116,19.9c51.8,0,103.3-11.6,151.3-34.7c3.5-1.7,6.9-3.5,10.4-5.3c0.2-0.1,0.4-0.2,0.7-0.3
		C678.5,572.6,747.1,368.5,665.3,198.4L665.3,198.4z M607.5,275.8H417.1V23.2c14.6,3,29,6.9,43.3,11.9c4,1.4,8,3,11.9,4.5v10.7h24.4
		c20.6,10.1,40,22.1,57.9,36h-82.3v16.1H574c12,10.8,23.2,22.6,33.5,35.1L607.5,275.8z M263.8,458.9h40.7v34.7h-40.7V458.9z
		 M298.3,339.6c19,0,34.5,12.9,34.5,28.7v133.4c0,10.8,4.4,20.9,11.7,28.7h-80.7v-20.6h56.8v-67h-56.8v-4.6h52.4V422h-52.4v-5h52.4
		v-16.1h-52.4v-4.6h52.4v-16.1h-52.4v-3.7h52.4v-16.1h-50.9C269.6,348.4,282.7,339.6,298.3,339.6L298.3,339.6z M66.5,364.3
		c0.1-1,1.5-24.7,38.3-24.7h154.6c-7.3,7.8-11.8,17.8-11.8,28.7v265.4h-73.4c-2.3-1.4-4.5-2.8-6.7-4.2h72.9v-68.3H91.6
		c-9.1-11.1-17.4-22.9-25.1-35.2L66.5,364.3z M105.6,577.4h118.7v36H145C130.9,602.5,117.8,590.5,105.6,577.4z M514.8,616.2h-5V499
		h5V616.2z M417.2,475.3c0-52.5,42.7-95.1,95.1-95.1c52.5,0,95.1,42.7,95.1,95.1c0,37.5-22.2,71.6-56.5,86.9
		c-2.9,1.3-4.8,4.2-4.8,7.3l-0.2,46.6h-15.1V482.8h-37.3v133.3h-15.2v-46.6c0-3.2-1.9-6.1-4.8-7.4
		C439.3,546.9,417.2,512.8,417.2,475.3L417.2,475.3z M460.6,638.4c0-1.8,0.7-3.8,2.1-6.1h65.1c-6.8,4.3-13.7,8.3-20.9,12.1h-40.2
		C463.4,644.4,460.6,641.7,460.6,638.4L460.6,638.4z"/>
	<path class="st0" d="M44.5,196.5c1.2,0.6,2.5,0.9,3.8,0.9c2.9,0,5.7-1.5,7.1-4.3c3.1-5.9,6.4-11.7,9.9-17.3
		c2.3-3.8,1.1-8.8-2.7-11.1c-3.8-2.3-8.8-1.1-11.1,2.7c-3.6,5.9-7.1,12-10.4,18.2C39.1,189.5,40.6,194.4,44.5,196.5L44.5,196.5z"/>
	<path class="st0" d="M174.1,361.6H74V489h100.1L174.1,361.6z M157.9,472.9H90.1v-95.1h67.8V472.9z"/>
	<path class="st0" d="M182.2,361.6h50.2v16.1h-50.2V361.6z"/>
	<path class="st0" d="M182.2,383.2h50.2v16.1h-50.2V383.2z"/>
	<path class="st0" d="M182.2,406.4h50.2v16.1h-50.2V406.4z"/>
	<path class="st0" d="M182.2,428.1h50.2v16.1h-50.2V428.1z"/>
	<path class="st0" d="M182.2,450.6h50.2v16.1h-50.2V450.6z"/>
	<path class="st0" d="M182.2,472.9h50.2V489h-50.2V472.9z"/>
	<path class="st0" d="M82.1,493.6h150.3v16.1H82.1V493.6z"/>
	<path class="st0" d="M82.1,517.4h150.3v16.1H82.1V517.4z"/>
	<path class="st0" d="M504.2,470.8h16.1v-21h20.9v-16.1h-20.9v-21h-16.1v21h-21v16.1h21V470.8z M504.2,449.8v-16.1h16.1v16.1H504.2z
		"/>
	<path class="st0" d="M504.1,303.7h16.1v46.4h-16.1V303.7z"/>
	<path class="st0" d="M434.9,316.6l14.4-7.3l20.9,41.4l-14.4,7.3L434.9,316.6z"/>
	<path class="st0" d="M385.4,353.7l40.5,22.6l-7.9,14.1l-40.5-22.6L385.4,353.7z"/>
	<path class="st0" d="M399.6,437.1l-44.8-12.2l4.2-15.6l44.8,12.2L399.6,437.1z"/>
	<path class="st0" d="M558.4,351.6l21-41.4l14.4,7.3l-21,41.4L558.4,351.6z"/>
	<path class="st0" d="M610.6,391.4l-7.9-14.1l40.5-22.6l7.9,14.1L610.6,391.4z"/>
	<path class="st0" d="M669.5,410.3l4.2,15.6L629,438.1l-4.2-15.6L669.5,410.3z"/>
	<path class="st0" d="M38.8,276.4h28.5v37.4h16.1v-53.6h-9.1L88.5,244l14.1,16.2h-9.1v53.6h16.1v-37.4h28.5l-49.6-56.9L38.8,276.4z"
		/>
	<path class="st0" d="M116.4,232.1h28.5v81.7H161v-97.8h-9.1l14.1-16.2l14.1,16.2H171v97.8h16.2v-81.7h28.5L166,175.1L116.4,232.1z"
		/>
	<path class="st0" d="M195.9,179.7h28.5v134h16.2V163.6h-9.1l14.1-16.2l14.1,16.2h-9.1v150.2h16.1v-134h28.5l-49.6-56.9L195.9,179.7
		z"/>
	<path class="st0" d="M273.7,113.7h28.5v200.1h16.1V97.5h-9.1l14.1-16.2l14.1,16.2h-9.1v216.2h16.1V113.7h28.5l-49.6-56.9
		L273.7,113.7z"/>
	<path class="st0" d="M441.7,34.2h13.7v16.1h-13.7V34.2z"/>
	<path class="st0" d="M441.7,86.4h13.7v16.1h-13.7V86.4z"/>
	<path class="st0" d="M441.7,139h13.7v16.1h-13.7V139z"/>
	<path class="st0" d="M472.3,139h121.8v16.1H472.3L472.3,139z"/>
	<path class="st0" d="M441.7,190.1h13.7v16.1h-13.7V190.1z"/>
	<path class="st0" d="M472.3,190.1h121.8v16.1H472.3L472.3,190.1z"/>
	<path class="st0" d="M441.7,241.2h13.7v16.1h-13.7V241.2z"/>
	<path class="st0" d="M472.3,241.2h121.8v16.1H472.3L472.3,241.2z"/>
</g>
</svg>
