<svg xmlns="http://www.w3.org/2000/svg" xmlns:xlink="http://www.w3.org/1999/xlink" viewBox="0 0 764 650.71"><defs><style>.cls-1{opacity:0.3;}.cls-2{fill:#9fcecc;}.cls-3{fill:#05386b;}.cls-4{fill:#fff;}.cls-5{fill:url(#linear-gradient);}.cls-6{fill:url(#linear-gradient-2);}.cls-7{fill:url(#New_Gradient_Swatch_6);}</style><linearGradient id="linear-gradient" x1="307.21" y1="360.42" x2="221.29" y2="274.5" gradientUnits="userSpaceOnUse"><stop offset="0" stop-color="#f9d187"/><stop offset="0.17" stop-color="#f5d28b"/><stop offset="0.35" stop-color="#e8d497"/><stop offset="0.54" stop-color="#d3d8ab"/><stop offset="0.73" stop-color="#b5dec6"/><stop offset="0.92" stop-color="#8fe5ea"/><stop offset="1" stop-color="#7ee8fa"/></linearGradient><linearGradient id="linear-gradient-2" x1="462.76" y1="393.47" x2="669.24" y2="599.95" gradientUnits="userSpaceOnUse"><stop offset="0" stop-color="#f9d187"/><stop offset="0.15" stop-color="#f0d390"/><stop offset="0.39" stop-color="#d7d7a7"/><stop offset="0.69" stop-color="#aedfcd"/><stop offset="1" stop-color="#7ee8fa"/></linearGradient><linearGradient id="New_Gradient_Swatch_6" x1="554.83" y1="113.69" x2="735.46" y2="113.69" gradientTransform="translate(-170.55 75.69) rotate(6.01)" gradientUnits="userSpaceOnUse"><stop offset="0" stop-color="#dad2f3"/><stop offset="0.22" stop-color="#decce7"/><stop offset="0.61" stop-color="#eabbc9"/><stop offset="1" stop-color="#f8a8a4"/></linearGradient></defs><title>Asset 20</title><g id="Layer_2" data-name="Layer 2"><g id="bubble"><g class="cls-1"><path class="cls-2" d="M657.59,213.4c-10.34-27.74-14-38.35-38.59-59.69-6.46-5.6-25.52-27.8-32-53-9-35-25-87-94-99-49.19-8.55-83.23,16.29-114,45-15,14-13,22-43,32-84.36,28.12-145,35.37-177,82.83-9,13.35-45.67,36.12-54,39.09C57,217.8,0,263.08,0,341.28S64,474.51,120,484.79c26,4.77,71,23.55,81,56.92,17.58,58.69,70,109,139,109s106.68-61.09,122-80c17-21,39-33.47,51-33.47,41.19,0,51,5.72,85.5,4.77C689.86,539.48,764,467.72,764,376.09a166,166,0,0,0-94.52-149.92A23.25,23.25,0,0,1,657.59,213.4Z"/></g><path class="cls-3" d="M377.5,363.21l-27,97-31.82-16.52A552.49,552.49,0,0,0,98.81,382.55L64,380.32,152,65l30.56-6c84.48-16.63,168.29,6.62,232.09,64.39l23.81,21.56,0,.31"/><path class="cls-4" d="M350.49,464.8a4.51,4.51,0,0,1-2.09-.51l-31.83-16.52a546.16,546.16,0,0,0-218-60.68l-34.78-2.23a4.54,4.54,0,0,1-4.09-5.76l88-315.35a4.57,4.57,0,0,1,3.51-3.25l30.56-6c42.75-8.42,85.1-7,125.9,4.37S385.45,90.74,417.73,120l23.81,21.55a4.56,4.56,0,0,1,1.48,3.07l0,.31a4.56,4.56,0,0,1-8.49,2.59l-22.93-20.77c-31.22-28.27-67-48.15-106.45-59.09S224.8,55.28,183.46,63.42L155.65,68.9,69.93,376.13,99.1,378a555.35,555.35,0,0,1,221.67,61.68l26.84,13.94L373.11,362a4.56,4.56,0,0,1,8.78,2.44l-27,97a4.55,4.55,0,0,1-2.57,3A4.6,4.6,0,0,1,350.49,464.8Z"/><path class="cls-3" d="M438.5,145.21l0-.31,30.57-6c84.47-16.64,168.28,6.62,232.09,64.39l23.8,21.55L637,540.17l-31.82-16.52a552.34,552.34,0,0,0-219.86-61.18l-34.78-2.23,27.29-97.8"/><path class="cls-4" d="M637,544.72a4.52,4.52,0,0,1-2.1-.51L603,527.69A546.14,546.14,0,0,0,385,467l-34.78-2.23a4.55,4.55,0,0,1-4.09-5.77l27.29-97.8a4.55,4.55,0,1,1,8.77,2.45l-25.78,92.39,29.17,1.87a555.14,555.14,0,0,1,221.67,61.68l26.85,13.93L719.8,226.31l-21.72-19.67c-31.22-28.27-67-48.15-106.45-59.08s-80.37-12.35-121.71-4.21l-29,5.7a4.45,4.45,0,0,1-2.14.7,4.55,4.55,0,0,1-4.85-4.23l0-.31a4.55,4.55,0,0,1,3.66-4.78l30.57-6c42.74-8.42,85.09-7,125.89,4.37s77.85,31.88,110.13,61.11L728,221.45a4.54,4.54,0,0,1,1.32,4.6l-88,315.34a4.52,4.52,0,0,1-4.38,3.33Z"/><circle class="cls-5" cx="264.25" cy="317.46" r="60.75"/><circle class="cls-6" cx="566" cy="496.71" r="146"/><path class="cls-2" d="M321.27,378.21H193.71c-4.81,0-8.71,3.41-8.71,7.61v54.57c0,4.2-3.91,7.61-8.72,7.61H86.72c-4.82,0-8.72,3.4-8.72,7.61v94.48c0,6.38,8.47,9.93,14.17,5.93L326.72,391.75C333.14,387.25,329.5,378.21,321.27,378.21Z"/><path class="cls-7" d="M549.21,263.3c-4,38-32.42,56.88-70.18,62.23-18.79,2.67-39.63,1.5-62.27-1.91-27.86-4.2-53.95-15-53.95-15a102.49,102.49,0,0,0,29.82-30.51c10.36-16.86,15.55-37.81,22.72-51,8.35-15.33,34.55-43.94,72.46-39.94A69.12,69.12,0,0,1,549.21,263.3Z"/></g></g></svg>