<?xml version="1.0" encoding="utf-8"?>
<!-- Generator: Adobe Illustrator 26.3.1, SVG Export Plug-In . SVG Version: 6.00 Build 0)  -->
<svg version="1.1" id="Layer_1" xmlns="http://www.w3.org/2000/svg" xmlns:xlink="http://www.w3.org/1999/xlink" x="0px" y="0px"
	 viewBox="0 0 700 700" style="enable-background:new 0 0 700 700;" xml:space="preserve">
<style type="text/css">
	.st0{fill:#EE7677;}
</style>
<g>
	<path class="st0" d="M455.2,285c1.8,1,4,1.3,6.1,0.7c2-0.6,3.8-1.9,4.8-3.8c2.5-5-0.9-8-4.3-11.2
		C456.3,268.4,449.6,281.2,455.2,285L455.2,285z"/>
	<path class="st0" d="M415.3,266.4c4.4,16.1,24.7,73.1,19,80.2c-3.4,4.3-28.7-1-25.4,9.9c1.9,6.5,23.4,1.8,27.4,0.3
		c14.1-5.6,9-15.7,5.8-28.9c-5.2-21.1-11.2-42.1-16.3-63.3c-2-8.7-2.7-24-10.2-30.7l0.7,0.4l0,0c-1.2-1.4-2.8-2.4-4.6-2.8
		c-4.6-0.6-5,8.9-4.2,13.2C408.8,251.9,413.4,259.2,415.3,266.4L415.3,266.4z"/>
	<path class="st0" d="M460.6,269.7l1.2,1.1h0.2L460.6,269.7z"/>
	<path class="st0" d="M461.9,271l1.9,1.8C463.4,272,462.7,271.4,461.9,271z"/>
	<path class="st0" d="M359.6,304.2c10.5,8.5,20.8-16.2,5.2-17.2C357.7,288.6,353,298.9,359.6,304.2z"/>
	<path class="st0" d="M371.9,137.7l4.8,0.5l2.7,0.2L371.9,137.7z"/>
	<path class="st0" d="M497,434.3c-19.9-14-21.1-24.7-28.6-31.8c17.5-7.8,36.6-19.8,38.7-40.1c2.5-24-2.4-48-6.8-71.4
		c-2.1-11-1.1-39.6-7.5-54.1l0,0c4.2-2,8.1-4.7,11.4-8c19-18.3,20.1-51.8-4.3-64l3.4,1.3l0,0c-2.5-1.5-5.3-2.7-8.2-3.3
		c-0.4-0.2-0.7-0.3-1.1-0.4l1,0.4c-11.2-2.6-23.5,0.7-34.3,1.8c-3.7,0.4-10.2,0.2-15.9,0.8c-5.9-4.8-12.3-8.9-19-12.5
		c-15.2-9.5-31.5-13.1-48.9-14.9c-5-0.4-10-0.3-14.9,0.3c-4.3-2.3-9-3.5-13.8-3.7c-27.1-5.6-70.5,4.6-91.5,16.8
		c-27.8,16.4-47.3,45.1-57.5,75.3c-23.9,70.9,10.9,139.9-0.5,210c-3.2,20.1-9.7,22-22.4,33.6c-14.7,13.3-14.9,9-1.1,18.1
		c15.5,10.1,84.4,30.1,112.2,34.6l0,0c-0.3,2.9-0.5,5.8-0.4,8.7c0,5.1,4.1,32.5,10.3,34.5c15.3,4.9,1.5-18.9,0.7-33.1l0,0
		c-0.5-13.4,3.6-26.6,11.6-37.3c7.5-9.5,19.5-12.3,31.2-14.9l3-0.6c4.2,1.9,9,3.7,13.5,5.6l0,0c19.6,7.4,41.1,8.1,61.2,2.1
		c5.4-1.6,22-6.5,27.7-13.4c7.2,0.3,14.9-0.3,17.5,0c14.9,1.3,26.7,3.5,35.4,16.4c9.8,14.6,9.1,28.2,11.2,44.4
		c1.8,14.9,10.9,9.2,11.6-1l0,0c0.1-10.1-1.6-20.2-5-29.7c-2.5-9.5-7-18.4-13.1-26.1c11.3-5,21.4-12.4,29.6-21.5
		C542.1,446.2,515.3,447,497,434.3L497,434.3z M468.7,176c7.8-1.2,16.5-3.7,24.4-2.2c11.2,2.2,16.4,13.2,14.9,23.7
		c-3.7,25-29.3,36.7-51.8,28.3c-12.5-4.7-22.4-14.1-31.7-23.7c-3.7-3.7-15.3-18-20.3-8c-2,3.7-1.2,10.4-3.1,14.9
		c-1.9,4.6-4.7,8.8-8.2,12.2c-3.3,3.1-14.6,12.8-19.4,11.8c-6.8-1.4-8.4-16.8-14.7-20.6c-1.9-1.3-4.3-1.6-6.5-0.9
		c-2.2,0.7-3.9,2.4-4.7,4.6c-1.8,4.7,2.3,7.9,2.7,12.2l0,0c0.1,4.5-1.8,8.9-5.2,11.9c-3.4,3-7.9,4.5-12.4,3.9
		c-9.9-1.8-18.6-7.4-24.3-15.7c-1.9-2.9-4.1-5.7-6.5-8.3v-4c6.6-9.4,21.5-14.5,31.3-20.6c13.9-8.6,28-10,43.8-13.1
		c18.1-3.7,38-8.4,56.6-5.6c3.9,0.8,7.9,0.9,11.9,0.4h0.9C453.8,177.4,461.3,177,468.7,176L468.7,176z M297.4,491.8
		c-3.6,5.8-6.2,12.1-7.8,18.7c-36.9-3-75.8-18.7-106-30.5c38.6-28.8,29.7-81.5,24.5-122.5c-5.8-46.5-13.3-96.4,6.8-140.3
		c16.8-36.6,47.4-61.6,87.2-68.4c10-1.9,20.1-3,30.3-3.2l1.8,0.2c-9,3.9-17.2,9.2-24.5,15.8c-17,15.5-21.4,39.6-20.7,61.9v1.2
		c-4,24.6-6.8,63.9-9.3,87.9c-1.9,17.7-11.6,60.9,1.8,75.7c11.6,12.8,16.1,12,32.2,18c7.7,2.9,23.2,2.3,31.2,4.3
		c10.9,2.7,11.6,1.5,13.3,14.1c1.2,8.9,3.2,16.1,2.7,25c-0.5,9-6.9,13.7-21.9,17.7h-0.6C322.2,471.6,302,484.5,297.4,491.8
		L297.4,491.8z M388.5,481.4L388.5,481.4c-10.6-0.6-21-3-30.8-7.2c0.2-0.7,0.2-1.5,0-2.2c7.5-5.3,14.9-1.6,16-13.3
		c0.9-9.7-2.3-18.7-3.2-28.5c-1-9.9-0.4-24.3-9.4-28.6c-7.5-3.7-20.2-3.7-29.3-6c-19.9-4.6-38.3-4.6-42.6-21.1
		c-4.3-16.6,2.1-60.9,3.1-76.9c1.7-28.5,5.8-43.3,7.5-58.3l0,0c3.6,3.8,7.7,7,12.2,9.6c10.2,5.8,25,11.2,35.7,3.7
		c4.2-2.9,14.9-13.3,11.6-19.2c8.4,14.4,24.8,9.1,35.8,1.2c4.7-3.4,24.2-19.2,18.7-26.9c14.9,20.3,43.9,37.7,69.1,32.6l0,0
		c0.7,7.2,1.8,14.4,3.4,21.5c3.6,19,6.2,38.2,7.7,57.5c1.4,13.9,5.4,33.3,1.2,47c-2.6,8.6-14.9,19.6-23.6,23.8
		c-7.5,3.7-41.4,13.4-49.7,15.9s-19.3,1.9-25.1,9.1c-5.8,7.2-8.8,31.7-5.8,40s30.8,16.8,40.1,12.7
		C424.6,477.4,413.2,480.6,388.5,481.4L388.5,481.4z M496.1,472c-0.8-0.6-1.6-1.2-2.5-1.7c-11.5-6.4-27.5-6.9-40.3-8.7l9.9,1.5l0,0
		c-7.2-1.1-14.5-1.4-21.7-0.9c-10.9-4.4-31.7-1.5-37.8-8.2c-4.8-5.3-2.1-29.1,3-33.9c4.5-4.2,21.2-4.9,26.8-6.3
		c8.4-2,16.6-4.4,24.8-7.2c6,16.8,36.4,48.1,56.4,52.1C515.4,458.9,503.4,465.9,496.1,472L496.1,472z"/>
	<path class="st0" d="M409.1,384.6c2.9,0.5,5.8-2.6,6-5.9s-2.4-5-5.9-5.6l0,0c-7.2-1.4-14.5-1.7-21.8-0.8
		c-11.8,1.3-21.8,0.2-31.3,3.3c-2.9,0.9-5.8,2.3-5.3,6.2s4,4.5,6.9,4.4C374.9,385.6,391.9,381.7,409.1,384.6L409.1,384.6z"/>
	<path class="st0" d="M390.1,273.2c3.2-0.6,6-2.6,5.5-6.2s-3.7-4.5-7-4.8c-0.6-0.1-1.2-0.1-1.9,0c-17.4,3.1-34.6,1.1-52-0.8
		c-3.7-0.4-16.2-0.6-17.1,4.2c-0.8,4.9,11.2,6.6,14.9,7.2c9.9,1.4,19.8,2.3,29.6,3.4l0,0C371.6,276.2,381,275.2,390.1,273.2
		L390.1,273.2z"/>
</g>
</svg>
