<svg width="120" height="120" viewBox="0 0 120 120" fill="none" xmlns="http://www.w3.org/2000/svg">
<path d="M84.1091 27H36.3973C30.6634 27 26 31.6635 26 37.3973V69.1707C26 74.7211 30.3761 79.2681 35.8594 79.5468V89.8525C35.8594 90.7913 36.3946 91.6476 37.2386 92.0543C37.5781 92.2164 37.942 92.299 38.3059 92.299C38.8472 92.299 39.3823 92.1185 39.8227 91.7699L49.2688 84.3051C53.1372 81.2439 57.9876 79.559 62.9228 79.559L84.1032 79.562C89.8371 79.562 94.5005 74.8985 94.5005 69.1648V37.3913C94.5005 31.6636 89.8396 27 84.1091 27ZM89.6075 69.1644C89.6075 72.1981 87.1397 74.6689 84.103 74.6689H62.9225C56.889 74.6689 50.9627 76.727 46.2349 80.4701L40.7518 84.8003V77.1154C40.7518 75.7637 39.657 74.6689 38.3053 74.6689H36.391C33.3604 74.6689 30.8926 72.2042 30.8926 69.1706V37.3971C30.8926 34.3604 33.3604 31.8926 36.3971 31.8926H84.1089C87.1395 31.8926 89.6073 34.3604 89.6073 37.391L89.6075 69.1644Z" fill="#409F97"/>
<path d="M60.2981 42.2962C61.6498 42.2962 62.7445 41.2015 62.7445 39.8498C62.7445 38.4981 61.6498 37.4033 60.2981 37.4033H60.2736C58.9219 37.4033 57.8394 38.4981 57.8394 39.8498C57.8394 41.1984 58.9464 42.2962 60.2981 42.2962Z" fill="#409F97"/>
<path d="M66.6536 64.2167H62.6964V48.7394C62.6964 47.3877 61.6017 46.293 60.25 46.293H53.8464C52.4947 46.293 51.3999 47.3877 51.3999 48.7394C51.3999 50.0911 52.4947 51.1859 53.8464 51.1859H57.8035V64.2167H53.8464C52.4947 64.2167 51.3999 65.3115 51.3999 66.6632C51.3999 68.0149 52.4947 69.1096 53.8464 69.1096H66.6533C68.005 69.1096 69.0997 68.0149 69.0997 66.6632C69.0997 65.3115 68.0053 64.2167 66.6536 64.2167Z" fill="#409F97"/>
</svg>
