<svg width="120" height="120" viewBox="0 0 120 120" fill="none" xmlns="http://www.w3.org/2000/svg">
<path d="M103.975 69.185L93.7206 61.5164C93.2819 61.1884 92.7498 61.0112 92.2031 61.0112H69.1327V52.8315H83.8793C85.2835 52.8315 86.4218 51.687 86.4218 50.2753V34.9382C86.4218 33.5265 85.2835 32.382 83.8793 32.382H69.1327V21.7973C69.1327 18.0494 66.325 15 62.8737 15H57.0955C53.6392 15 50.8266 18.0494 50.8266 21.7973V32.382H27.781C27.2337 32.382 26.701 32.5595 26.2621 32.8881L16.0239 40.5518C15.3804 41.0341 15 41.794 15 42.6017C15 43.4091 15.3793 44.1689 16.0229 44.6517L26.2615 52.3247C26.7005 52.6537 27.2335 52.8315 27.781 52.8315H50.8266V61.0112H36.08C34.6758 61.0112 33.5375 62.1557 33.5375 63.5674V78.9045C33.5375 80.3162 34.6758 81.4607 36.08 81.4607H50.8266V106H69.1327V81.4607H92.2031C92.7498 81.4607 93.2819 81.2835 93.7206 80.9555L103.975 73.2869C104.62 72.8046 105 72.0442 105 71.236C105 70.4277 104.62 69.6673 103.975 69.185ZM55.9116 21.7973C55.9116 20.8997 56.4648 20.1124 57.0955 20.1124H62.8737C63.4288 20.1124 64.0477 20.8044 64.0477 21.7973V32.382H55.9116V21.7973ZM28.6242 47.7191L21.7982 42.6033L28.6233 37.4944H81.3368V47.7191H28.6242ZM55.9116 52.8315H64.0477V61.0112H55.9116V52.8315ZM64.0477 100.888H55.9116V81.4607H64.0477V100.888ZM91.3607 76.3483H38.6225V66.1236H91.3607L98.1978 71.236L91.3607 76.3483Z" fill="#409F97"/>
</svg>
