<svg width="24" height="24" viewBox="0 0 24 24" fill="none" xmlns="http://www.w3.org/2000/svg">
<path d="M21.3867 5.60001H2.61333C1.93438 5.60001 1.28323 5.86972 0.80314 6.34981C0.323047 6.82991 0.0533333 7.48105 0.0533333 8.16001V20.1067C0.0533333 20.7856 0.323047 21.4368 0.80314 21.9169C1.28323 22.397 1.93438 22.6667 2.61333 22.6667H21.3867C22.0656 22.6667 22.7168 22.397 23.1969 21.9169C23.677 21.4368 23.9467 20.7856 23.9467 20.1067V8.16001C23.9467 7.48105 23.677 6.82991 23.1969 6.34981C22.7168 5.86972 22.0656 5.60001 21.3867 5.60001ZM12.4949 15.6181C12.4333 15.6888 12.3572 15.7454 12.2718 15.7842C12.1864 15.823 12.0938 15.843 12 15.843C11.9062 15.843 11.8136 15.823 11.7282 15.7842C11.6428 15.7454 11.5667 15.6888 11.5051 15.6181L2.98027 7.30667H21.0197L12.4949 15.6181ZM7.0336 13.6384L1.76 19.6629V8.50134L7.0336 13.6384ZM8.25387 14.8331L10.2933 16.8384C10.5146 17.0676 10.7797 17.2498 11.0729 17.3743C11.3662 17.4988 11.6815 17.563 12 17.563C12.3185 17.563 12.6338 17.4988 12.9271 17.3743C13.2203 17.2498 13.4854 17.0676 13.7067 16.8384L15.7632 14.8331L21.1051 20.96H2.89493L8.25387 14.8331ZM16.9664 13.6384L22.24 8.50134V19.6629L16.9664 13.6384Z" fill="#103754"/>
</svg>
