<?xml version="1.0" encoding="utf-8"?>
<!-- Generator: Adobe Illustrator 26.3.1, SVG Export Plug-In . SVG Version: 6.00 Build 0)  -->
<svg version="1.1" id="Layer_1" xmlns="http://www.w3.org/2000/svg" xmlns:xlink="http://www.w3.org/1999/xlink" x="0px" y="0px"
	 viewBox="0 0 700 700" style="enable-background:new 0 0 700 700;" xml:space="preserve">
<style type="text/css">
	.st0{fill:#E1E6F9;}
</style>
<path class="st0" d="M558.9,171.3c16,9.5,31.9,16.7,44.3,29.6c5.1,5.2,6.9,10.1,6.6,17c-0.5,10.1,0.3,20.2-0.2,30.3
	c-0.6,11,4.3,19.2,12.4,25.1c22.1,16.2,22,15.8,9.8,40.9c-15,30.7-34.9,58.2-54.2,86.2c-22.8,33.2-44.9,67-68.2,99.9
	C487,532.1,465,564.5,439.7,594c-12.6,14.6-21.2,34.8-42.9,40.9c-10,2.8-18.1,4.4-27-3.5c-6.4-5.7-15.2-8.8-23-12.9
	c-48.1-24.9-95.9-50.4-141.6-79.8c-21.3-13.8-44.1-25.7-65-40.5c-16.5-11.8-33.6-23-49.1-36c-14.8-12.5-23.8-29.8-30-47.9
	c-4.2-12.1,4.6-22.8,8.9-33.5c9.5-23.9,24-45.1,39.8-65.5c13-16.8,23.3-35.5,35.6-52.8c13.8-19.4,28.6-38,42.6-57.2
	c24.9-34.1,48.7-69.2,74.7-102.5c12.9-16.5,28.8-30.5,50.3-37.1c17-5.2,33.7-2.6,49,2c38.6,11.6,75.3,27.8,109,50.8
	c23.8,16.2,49.3,30,74,44.7C549.2,165.8,553.7,168,558.9,171.3 M401.2,102.6c-23.9-9.8-47.5-19.3-74.6-18.5
	c-16.8,0.5-27.7,8.4-37.4,18.9c-10.4,11.2-18.8,24.1-28.1,36.3c-15.1,19.9-30.5,39.6-45.3,59.7c-7.6,10.3-13.5,22.1-21.7,31.9
	c-23.1,27.7-46.4,55.3-52.6,92.3c-4.3,25.7-7,44.6,23.5,65.2c32.4,21.9,68.6,36.8,100.4,59.3c20,14.2,41.4,26.5,61.5,40.6
	c16.3,11.4,31.6,24.2,47.4,36.4c5.8,4.5,10.9,6.1,16.3-1.4c12.1-17.1,25.7-33.2,37.2-50.6c19.6-29.7,37.6-60.5,57.4-90.2
	c14.7-22.1,31.8-42.5,46.2-64.7c19.7-30.2,38.1-61.4,56.8-92.3c4-6.6,2.2-10.8-4.9-16.1c-3.2-2.3-6.2-5.1-9.6-7.1
	c-30-17.9-60-35.7-90.1-53.5C457.3,133.5,432.4,115.8,401.2,102.6 M189.1,507.2c15.2,9.2,30.2,18.6,45.6,27.7
	c21.9,12.9,43.7,26.1,66.1,38.1c25.7,13.7,52.2,25.9,78,39.6c8.4,4.5,14.7,5.2,21.2-2.4c9.8-11.5,20.9-22,30-34
	c19.8-26,39.1-52.5,58-79.2c26.8-38.1,53.5-76.2,79.2-115c17.8-26.8,33.1-55.2,50.9-82.1c6-9.1-1.8-8.7-4.9-9.6
	c-2.2-0.7-6.8,2.3-8.5,4.9c-28.2,41.7-55.9,83.7-84.1,125.4c-19.2,28.4-38.7,56.5-58.4,84.4c-13,18.5-26.8,36.4-40.2,54.6
	c-6.7,9.1-13.4,18.2-20.1,27.3c-4.3,5.7-10.2,5.2-15.7,3.1c-9.2-3.7-18.2-7.8-26.9-12.5c-15-8.2-29.2-18.2-44.7-25.4
	c-49.6-23.1-96.2-51.6-144.3-77.3c-17.8-9.5-33.6-20.4-48.3-34c-14.2-13.1-17.6-27.6-13.5-45.2c0.3-1.2,1.1-3.4,0.7-3.7
	c-9.1-6.1-27.1,2.4-26.5,13.3c0.4,8,2.5,17.4,7.2,23.4c9,11.5,19.8,22,31,31.4C141.4,477.3,163.5,492.7,189.1,507.2 M141,402.1
	c-4.8,4.1-9.9-7.3-14.7,0.4c-4.4,7.1,1.2,12.9,2.4,19.3c0.2,1,1.5,1.8,2.4,2.5c10.7,8.4,20.9,17.8,32.4,25
	c19.7,12.3,40,23.7,60.4,34.7c47.5,25.6,95.2,51,143,76c4.3,2.2,9.6,9.9,13.9,3.8c2-2.8-3.3-10.9-5.6-16.5c-0.6-1.5-2.3-2.7-3.7-3.8
	C353,529.7,335,515,315.7,502.2C260.4,465.3,203.1,431.8,141,402.1L141,402.1z M149.9,213.1c-10.8,17.3-21.4,33-32.5,48.2
	c-1.9,2.7-4.2,8.1-9.6,4.1c-5.7-4.2-6.2-10.8-3.3-15.4c8.7-13.6,18.6-26.5,28.4-39.4C138.6,203,144.5,204.6,149.9,213.1L149.9,213.1
	z M541.1,110.7c4.6,3.4,8.4,5.7,11.9,8.5c4.2,3.4,5.5,8.1,1.2,11.8c-2.6,2.3-8.1,4.5-10.5,3.3c-14.6-7.7-28.8-16.2-42.9-24.8
	c-2.2-1.4-4.4-4.2-5-6.7c-0.7-2.9-1.9-7.9,4.1-7.2c5,0.6,10,1.3,14.7,3.1C523.4,102,531.7,106,541.1,110.7L541.1,110.7z
	 M185.6,558.9c6.6-3.9,12.7-5.1,19.4-0.5c11.4,7.8,23.2,15.5,35.7,21.1c5.3,2.3,6.6,5,5.1,8.4c-1.4,2.9-5.5,5-8.8,6.5
	c-1.9,0.9-5.2,1-6.9-0.1c-15-9.8-29.8-20-44.5-30.2C185.1,563.8,185.6,561.9,185.6,558.9L185.6,558.9z M580.3,148.1
	c-4.8,0.6-10.2,1.6-12.2-0.5s-1.8-7.8-0.4-11.2c0.6-1.6,6.4-2.2,9.2-1.3c1.9,0.6,3.2,4.4,4.2,7C581.7,143.5,581.2,145.5,580.3,148.1
	L580.3,148.1z M343.3,269.3c-12.3-6.3-23.6-12-35.1-17.2c-6-2.7-12.2-5.1-18.5-6.8c-12-3.2-15.9-10.4-11.8-22.9
	c6.4-19.4,14.1-38.2,25.3-55.4c7.4-11.3,14.6-13.8,27.7-10c34.8,10.1,65.2,29.3,96.5,46.6c14.7,8.1,30.2,14.9,42,27.6
	c10.1,10.9,11.2,15.3,3.1,28.1c-11,17.5-22.5,34.7-34,51.8c-4.5,6.7-17.3,7.6-26.5,1.7c-17.8-11.5-35.4-23.5-53.2-35.1
	C354.2,274.8,349.1,272.7,343.3,269.3 M306.8,204.2c-1.3,2.4-2.5,4.9-3.8,7.3c-6.5,12.9-6.7,13.4,4.8,18.5
	c38.5,17.3,75.2,37.5,109.2,62.7c1.7,1.3,6.9,0.8,8.2-0.7c8.4-10,17.2-19.8,23.8-31c9-15.2,8.2-16.9-7.6-26.5
	c-23.2-13.9-46.5-27.7-70.3-40.6c-12-6.5-24.8-11.7-37.7-16.3c-9.8-3.5-15.3,0.7-19.7,11.6C312.1,193.4,309.1,196.9,306.8,204.2
	L306.8,204.2z M321.9,333.4c-21.8-16.5-43.9-29.8-68.7-38.7c-4.4-1.6-10.1-8.2-9.9-12.1c0.3-5.3,7.6-6.1,13-5.3
	c2.7,0.4,5.6,0.9,8,2.2c21.5,11,43.1,21.8,64.2,33.6c17.9,10,35,21.2,52.5,32c3.3,2.1,6.8,4.3,9.4,7.2c4.2,4.6,5.5,11.1,1.6,15.5
	c-4,4.4-9.7,3.3-15.4-0.6c-16.4-11.4-33.5-21.9-50.3-32.7C325.5,333.9,324,334.3,321.9,333.4L321.9,333.4z M296.9,347.7
	c7.4,5,14.4,8.6,20.2,13.6c2.5,2.1,2.6,7,3.7,10.6c-4.3-0.5-6.1,4.8-12.5,2.4c-15.5-5.6-28.2-15-41.1-24.3c-4.4-3.1-5-7.4-1.6-12
	c3.8-5.3,6.8-3.4,11.3-0.3C282.7,341.6,289.6,343.8,296.9,347.7L296.9,347.7z M548.2,262.2c-10.8-5.2-12.4-8.1-7.7-17
	c4.1-7.7,9.2-15.1,14.9-21.8c1.8-2.2,7.7-3.2,10.3-1.9c4.8,2.5,7.2,7.4,3.1,12.9C562.3,243.3,555.7,252.3,548.2,262.2L548.2,262.2z
	 M530.4,287.1c-3.2,0.9-6.9,1.8-7.7,0.7c-2.5-3.4-5.9-8.2-5.1-11.4c0.8-2.8,6.9-6,10.5-5.8c4.7,0.2,7.8,4.6,6.6,10
	C534.3,282.6,532.5,284.4,530.4,287.1L530.4,287.1z"/>
</svg>
