<?xml version="1.0" encoding="utf-8"?>
<!-- Generator: Adobe Illustrator 26.3.1, SVG Export Plug-In . SVG Version: 6.00 Build 0)  -->
<svg version="1.1" id="Layer_1" xmlns="http://www.w3.org/2000/svg" xmlns:xlink="http://www.w3.org/1999/xlink" x="0px" y="0px"
	 viewBox="0 0 700 700" style="enable-background:new 0 0 700 700;" xml:space="preserve">
<style type="text/css">
	.st0{fill:#E1E6F9;}
</style>
<path class="st0" d="M220.3,578.1c-22.7-17-45-32.5-66.2-49.5c-15.3-12.3-29.1-26.4-43.5-39.7c-2.1-1.9-4-4-6.1-6
	c-15.3-15.3-13.9-15.7-19.1-36.4c-2.9-11.8-2.4-23.1-2.8-34.7c-1.3-33.7-2.6-67.5-3.3-101.3c-0.2-8.6,1.8-17.4,3.4-25.9
	c0.4-2.4,2.6-5.6,4.7-6.4c31-11.1,52.9-36.5,81.1-52.1c3.1-1.7,5.9-6.6,6.1-10.2c0.8-10.8,2.7-22.4-0.3-32.3
	c-5.4-17.4-1.3-34.6-2.4-51.9c-0.2-3.4,3.9-8.3,7.3-10.3c33.2-19.8,66.6-39.2,103.1-52.7c14.8-5.5,29-12.5,43.5-18.9
	c6.2-2.7,11-1.7,16.5,2.9c15.1,12.6,30.9,24.4,46.4,36.5c10.4,8.1,21.3,15.5,30.9,24.3c22.9,21,44.7,43.1,67.9,63.8
	c10.8,9.7,23.9,16.8,35.4,25.7c13.1,10.1,24.9,21.9,38.6,31.1c16.3,11,19.9,24.9,21.9,44.2c3.9,37.9,4,75.9,1.4,113.3
	c-2.7,38.4-0.9,76.7-2.3,115c-0.3,8.1-1.1,12.5-11.2,14.8c-9.9,2.2-18.4,10.2-27.6,15.7c-27.9,16.6-56.3,32.4-83.6,50
	c-8.7,5.6-16.3,4.6-23.5,1.4c-15.4-7-30.1-15.6-44.8-24c-7-3.9-13.1-4.7-19.8,0.5c-24.2,18.7-48.5,37.2-72.8,55.7
	c-7.5,5.7-21.7,2.7-31.5-5.4C252.4,602.9,236.7,591.1,220.3,578.1 M469.3,187c-25.3-24.2-50.6-48.3-75.9-72.5
	c-1.6-1.5-3.2-3.2-5-4.5c-16.6-12.2-33.5-24-49.6-36.8c-6.2-4.9-10.9-5.1-17.8-1.8C307.3,78,292.8,83,279,89.5
	c-24.3,11.4-48.4,23.4-72.6,35.2c-1.5,0.7-2.3,2.6-3.7,3.5c-5.4,3.4-2.6,6.4,0.8,8.4c36.9,22.2,68.1,51.6,100.3,79.7
	c13.6,11.9,28.2,22.6,42.3,33.9c19.7,15.7,39.4,31.4,59.1,47.2c12.8,10.4,25.2,21.4,38.5,31.1c3.8,2.7,8.3,4.8,15.5-0.4
	c31.3-22.6,64-43.1,96.4-64c5.5-3.6,7.2-5.7,1.3-10.3c-19-14.8-37.7-29.9-56.8-44.6C490.6,202.1,480.7,195.6,469.3,187 M542.9,294.8
	c-27.4,17.9-55.8,34.3-82.3,53.8c-6,4.4-4.8,7.7-4.9,11.8c-0.2,65.6-0.1,131.2-0.1,196.8c0,2.3,0,4.6,0,6.8
	c-0.1,4.8,2.1,6.2,6.2,3.6c30.3-19,60.8-37.9,90.9-57.3c8.1-5.2,13.1-12.1,12.9-23.6c-0.9-43.9-0.4-87.8-0.4-131.7
	c0-4-1.3-8.5,0.2-11.9c8.2-18.9-0.5-38.4,3.1-57.5c0.9-4.7-2-6-6.1-3.5C556.4,285.9,550.5,289.5,542.9,294.8 M103,447.2
	c-0.4,8.4,3.9,14.6,9.7,19.9c10.3,9.4,20.6,18.8,31.2,27.8c12.2,10.3,24.5,20.4,37.1,30.2c14.6,11.5,29.4,22.5,44.1,33.9
	c16.4,12.8,32.6,25.8,49.1,38.5c0.5,0.4,3.2-0.9,3.3-1.6c1.3-14.3,3.5-28.7,3.3-43c-0.3-27.5-2.9-54.9-2.8-82.4
	c0.1-11.8-4.3-19-13.1-25.1c-2.6-1.8-5.6-3.3-8-5.4c-21.6-18-42.4-37.2-64.9-54c-30.2-22.6-59.8-45.7-86-72.8
	c-0.8-0.8-1.5-1.9-2.4-2.4c-1.8-0.9-3.9-1.4-5.8-2.1c0.6,1.6,1.4,3.2,1.7,4.8c0.3,1.6,0.2,3.4,0.2,5.1
	C99.8,360.4,98.5,402.1,103,447.2 M214.3,260.6c0.6,8.3,2,16.7,1.5,24.9c-1,16.2,1.9,31.7,7.2,46.7c8.2,23.4,14.4,47.8,30.6,67.6
	c8,9.7,15.5,19.8,23.4,29.6c9.5,11.6,17.3,12,29.4,2.7c12.5-9.6,25.5-18.4,38-27.9c11.8-9,22.9-18.8,34.8-27.6
	c5.7-4.2,3.3-6.5-0.5-9.8c-17.7-15.2-35.1-30.7-52.8-45.8c-20.6-17.5-41.4-34.7-62.2-52c-12.7-10.5-25.3-21.2-38.4-31.3
	c-3-2.4-7.7-2.7-11.5-3.9c-0.4,3.3-1,6.5-1.1,9.8C212.4,248.6,212.6,253.8,214.3,260.6 M390.6,474.6c0-26.2,0-52.5-0.1-78.7
	c0-1.5-0.7-3.1-1.1-4.6c-1.2,0.9-2.4,1.7-3.6,2.6c-13.9,10.5-28.8,20-41.5,31.7c-12.2,11.3-26,19.6-39.5,28.8
	c-8.1,5.5-13.8,14-9.5,22.9c3.3,6.8,2.6,13,2.7,19.4c0.3,28.5,0.1,57,0.1,85.6c0,4,0.2,8-0.1,12c-0.1,1.7-1.3,3.3-2,4.9
	c1.9-0.5,4.5-0.5,5.8-1.7c21.7-21,47-37.1,71.3-54.8c23.1-16.8,21.1-11.3,20.9-42.1c0-5.1,0.4-10.3-0.2-15.4
	C393.6,482.7,391.7,480.4,390.6,474.6 M339.2,310.2c2.8,1.6,5.8,2.9,8.2,4.9c13.7,11.2,27.2,22.5,40.8,33.8
	c5.4,4.5,12.4,8.1,15.6,13.8c3.2,5.8,3.3,13.6,3.8,20.6c1.4,22.9,3.7,45.8,3.2,68.7c-0.5,22.2,8.6,39.7,20.9,56.5c1.4,1.9,4,3,6,4.5
	c0.3-2.2,0.9-4.3,0.9-6.5c0.1-50.2-0.2-100.4,0.3-150.6c0.1-8.2-3.8-12.6-9.1-16.6c-12.5-9.6-25.6-18.3-37.9-28.2
	c-20.6-16.6-40.7-33.8-61.2-50.6c-16.6-13.5-33.6-26.5-50.1-40.2c-11.2-9.3-21.6-19.4-32.6-28.9c-7.1-6.2-14.3-12.2-21.6-18.1
	c-1.4-1.1-3.9-1.2-5.7-1c-0.5,0.1-1.1,2.9-1,4.5c0,1.5,0.8,3,1.3,4.6c8.3,29.9,27.7,52.6,51.1,71
	C294.6,270.3,316.2,289.2,339.2,310.2 M118.4,301.7c10.2,5.7,19.8,12.8,30.7,16.8c21.4,7.9,44.8-7.3,46.1-29.9
	c1.1-18.2,0.2-36.5,0.2-54.7c0-4.4-1-4-4.4-1.6c-24.3,16.8-49,33.1-73.4,49.8C108.6,288.2,108.7,290.8,118.4,301.7L118.4,301.7z
	 M360.6,627.7c-15.4,8.3-29.6,16.2-44.5,22.8c-4.9,2.2-12.2,1.3-14.2-5.2c-1.8-5.7,1.6-9.1,7.8-12c18.5-8.8,38.5-15.1,54.4-29.2
	c5.6-5,10.4,0.7,13.8,5c4,5.1-1,8.2-4,10.7C370.2,622.8,365.6,624.6,360.6,627.7L360.6,627.7z M133,136.5c7.8-4.9,13.3-2.5,14.3,4.7
	c2,14.7,2.6,29.5,3.7,44.3c0.4,5.9-2.4,10.3-8.2,9.6c-3.2-0.4-7.8-4.3-8.6-7.4C130,171.2,128.3,154.4,133,136.5L133,136.5z
	 M613.9,401.8c-3.5,0.3-8.3,0.1-8.5-0.9c-0.7-4.7-2-10.7,0.2-14.2c4.7-7.5,8.2-0.1,11.3,2.9C621.6,394.1,623.4,398.7,613.9,401.8
	L613.9,401.8z M405.1,596.9c-2.3,1.4-3.7,2.4-5.2,2.5c-7.3,0.3-10.5-4.1-8.9-10.4c0.6-2.5,6.7-6,9-5.2
	C404.7,585.5,412.3,588,405.1,596.9L405.1,596.9z M610.5,359c1.4,2.3,2.9,4.3,2.4,5.1c-2,3.3-4.6,6.3-7,9.4c-2.2-2.7-6-5.4-6.2-8.3
	C599.2,358.9,602.2,354.8,610.5,359L610.5,359z M370.9,126.3c7.2,7.2,13.6,13.7,20.1,20c3.7,3.6,5.4,8.4,1.1,11.2
	c-2.8,1.8-7.6,5-12.2,0.5c-11.9-11.9-24.4-23.2-36-35.3c-1.5-1.5-0.3-7.8,1.7-9.8s7.8-3,9.8-1.5
	C360.9,115.2,365.2,120.6,370.9,126.3L370.9,126.3z M396.6,179.3c-1.4-2.9-2.3-4.9-2.5-6.9c-0.6-5.5,0.8-10.9,7.1-10.7
	c4.6,0.1,7.2,4.3,6.6,9.6C407.1,177.7,406.7,184,396.6,179.3L396.6,179.3z M148.4,458.3c-2.2-13.2-0.5-23.8,13.2-28.7
	c9-3.2,24.2,0,30,6.9c5,5.9,5,17,0.5,25.9c-4.3,8.3-11.4,10.4-20,10.6C161.5,473,152.9,470.3,148.4,458.3L148.4,458.3z"/>
</svg>
