<?xml version="1.0" encoding="utf-8"?>
<!-- Generator: Adobe Illustrator 26.3.1, SVG Export Plug-In . SVG Version: 6.00 Build 0)  -->
<svg version="1.1" id="Layer_1" xmlns="http://www.w3.org/2000/svg" xmlns:xlink="http://www.w3.org/1999/xlink" x="0px" y="0px"
	 viewBox="0 0 700 700" style="enable-background:new 0 0 700 700;" xml:space="preserve">
<style type="text/css">
	.st0{fill:#E1E6F9;}
</style>
<path class="st0" d="M147.7,598.4c-15.1,12.7-28.7,25.4-44,35.6c-5.1,3.3-15.1,1.9-21.9-0.3c-25.7-7.9-51.1-46.4-48.1-71.8
	c1.1-8.7,3.5-15.9,9.5-21.9c32.6-32.6,65-65.4,98-97.7c8.7-8.6,19.4-15.2,29.5-22.2c7.9-5.6,15.9-1.3,23.3,1.7c3,1.3,4.6,4.1,8.3,0
	c11.8-13.8,24.3-27,36.4-40.5c0.8-0.8,0.2-3.7-0.6-5.1c-5.6-10.6-10.2-22.1-17.2-31.6c-15.6-21.1-15.7-45.4-12.2-68.4
	c3.2-20.5,13-40,21.3-59.4c11.1-25.9,29.1-45.9,51.3-63.8c19.9-15.9,39.9-31.3,61.1-45.1c27.2-17.5,56.7-29.7,88-37.3
	c5.9-1.4,12.4,0.3,18.4-0.3c5.7-0.6,11.4-1.9,17-3.7c11.4-3.8,22.1-3.3,34-0.3c41.5,10.5,73.1,31.9,93.1,70.7
	c16,31.3,27.8,64,35.9,97.8c4.8,19.9,10.2,41.5,0.3,61.1c-9.2,18.6-20.2,36.5-32.7,52.9c-17.9,23.7-39.5,43.4-65.4,59.2
	c-29.1,17.9-57.8,34.8-91.2,43.5c-22.4,5.9-44,11.6-67.7,11.1c-28.6-0.5-52.6-11.1-72.7-29.7c-12.4-11.4-15.9-8.9-24.8,1
	c-7.8,8.7-16.2,16.8-24.8,24.8c-7.8,7.3-15.1,13.8-7.1,26c1.7,2.7-0.5,9.8-3,13.5c-22.7,32.4-46.7,63.7-79.2,87.2
	C155.9,589.1,152.6,593.7,147.7,598.4 M241.1,235.1c-1,16.4-8.1,31.4-12.2,46.9c-7,26.4,2.9,46.7,17,64.3
	c25.3,31.3,61.9,42.2,100.7,45.7c10.3,1,21.1-3.3,31.8-3.2c22.1,0.3,42.1-8.6,62.7-14c32.1-8.4,58.9-27.3,82.7-49.7
	c24.9-23.3,42.7-52.4,57.6-83.1c3-6.2,6.5-12.7,7-19.2c2.2-29.9-0.8-58.4-17.8-85c-13.8-21.6-31.8-36.1-55.1-45.4
	c-22.2-8.9-44.2-7.5-67.7-4.4c-26.5,3.5-50,13.5-73.1,24.9c-26,13-49.4,30.7-72.4,48.8C276.9,181.5,257.4,204.9,241.1,235.1
	 M594.3,318.3c21.8-24.1,16.7-53.8,16.5-82.4c0-1-2.5-2.5-3.8-2.4c-1.3,0-3,1.7-3.3,3c-3.3,20-16.2,35.3-25.7,52.3
	c-18.6,33.4-44.8,59.9-75.9,80c-31.3,20.3-67,32.1-104.2,38.1c-12.7,2.1-24.1,9.7-23.7,17.3c0.5,7.5,13,15.7,24.8,16
	c3.7,0.2,7.6,1,11-0.2c20.2-6.4,41.1-11.3,59.9-20.3c25.3-12.4,50.2-26.2,72.4-43.2C562.2,361.5,579.6,342.4,594.3,318.3
	 M172.6,547.6c6-6,12.2-12.2,18.3-18.3c9.7-9.7,19.2-19.1,25.3-31.9c2.7-5.9,3.8-9.1-0.5-14.1c-10-11.8-19.5-23.7-28.7-36.1
	c-6.2-8.4-13-7.3-19.2-1.6c-20.2,18.4-40.2,37.2-59.9,56.1c-6,5.9-4.6,11,1.6,16.5c7.8,6.8,15.6,14,21.8,22.1
	c5.6,7.1,8.9,16,13.5,23.8c2.5,4.1,5.4,7.5,10.3,1.3C159.9,559.5,165.6,554.8,172.6,547.6 M89.4,564.3c8.3,7.8,15.9,15.7,19.9,26.8
	c1.9,5.6,3.5,11.3,13.2,4.3c8.3-6,9.8-12.9,7.3-18.9c-7.5-17.9-17.2-35.1-33.8-46.5c-6.8-4.6-13.7-6-19.2,2.5
	c-1.3,2.1-4.3,3.2-4.9,5.4c-1.7,4.6-6.5,9.7,1.9,13.7C78.7,554,82.9,558.7,89.4,564.3 M72.7,573.5c-0.5-0.5-0.8-1.3-1.3-1.3
	c-4.8-0.5-7.3-8.6-14.3-2.2c-6.7,6-2.2,10.6,0.8,14.1c9.2,10.5,19.4,20.2,29.2,30c4,4,7,4.6,6-2.5C91.1,597.3,84.8,585.4,72.7,573.5
	L72.7,573.5z M197.5,187.9c0.3-6,1-11.3,2.9-16c7.9-18.6,19.9-34.5,33.8-48.9c4.8-4.9,9.7-5.1,14.9-4.3c6,1,7.6,7,3.7,11.9
	C238.4,149.6,220.3,166,211,189C208.3,196.2,202.6,193.3,197.5,187.9L197.5,187.9z M655.2,196.3c8.4,13.7,11.9,26.8,11.3,41.3
	c-0.3,6.5-2.9,10.5-9.4,10.3c-6.5,0-9.7-4-9.2-10.5c1-9.7-3-18.1-6-26.8C636.8,195.4,639.7,192.2,655.2,196.3L655.2,196.3z
	 M199.4,350.7c-3.5,3.3-5.9,7.8-8.6,7.9c-6.4,0.5-9.5-4-9.1-10.3c0.6-7.5,6.5-4,9.7-3.8C194.7,344.8,197.5,347.8,199.4,350.7
	L199.4,350.7z M190.2,376.6c-2.7-9.7,2.4-10.6,9.4-10.3c6.4,0.3,5.2,4.9,4.3,7.6C201.5,379.9,197.9,385.5,190.2,376.6L190.2,376.6z
	 M304.9,182.3c19.2-23.7,43.7-38.8,68.6-51.9c16.8-8.9,35.7-16.4,56.4-15.7c11.1,0.3,22.2,0.2,33.8-2.5c10.8-2.5,24.1-0.5,34.8,3.8
	c28.9,11.4,52.9,27.6,62.3,61c10.6,38,4.3,76.4-21.6,104.3c-5.6,6-9.8,13.7-15.9,19.2c-10.2,8.9-20.8,17.5-32.1,24.9
	c-25.4,16.8-52.1,31.1-82.1,38.1c-8.9,2.1-17.8,4.9-26.7,6.7c-8.6,1.7-17.6,4.1-26.2,3.5c-11.4-1-22.9-3.8-33.8-7.1
	c-14.8-4.4-29.1-8.7-42.7-17.6c-17.9-11.6-24.1-28.1-26.8-46.4c-3.5-24,1.7-46.5,17.2-66.7C282.3,219,292.7,200.8,304.9,182.3
	 M294.7,333.1c25.9,14.9,52.3,21.3,83.4,15.7c30.8-5.4,59.1-14.6,85.4-30.7c26.8-16.2,50.3-34.9,68.4-62.1
	c17.8-26.7,13-52.4,7.9-79.1c-1.1-6.2-7.6-14-17.2-14c-13.5-0.2-27.6-2.2-40.7,0.5c-33.7,6.8-65.6,18.3-96.1,35.9
	c-36.7,21.3-68,47.3-93.9,80.5C273.9,303.4,273.3,315.4,294.7,333.1 M289.2,238.7c-4.8,8.4-9.7,16.8-14.1,25.4
	c-0.6,1.3,0.2,3.3,0.2,4.9c1.3-0.6,2.9-1,3.8-1.9c1.9-1.6,4-3.2,5.2-5.2c17-28.6,40.8-49.9,69.6-66.1c7.6-4.3,14-11,20.6-16.8
	c5.7-4.8,4.4-10.6,1.4-16.2c-4.3-8.3-9.4-1.6-13.3,0.2c-11.4,4.9-21.1,12.1-30.2,20.8C316,199.8,304.6,219,289.2,238.7L289.2,238.7z
	 M499.9,229.5c4.8-4.9,7.3-2.9,9.7,0.5c2.1,3,8.1,4.4,3.8,10.2c-9.2,12.7-17.8,26-27.8,38c-2.4,2.9-9.5,1.4-14.6,2.1
	c0.8-4.9,0.2-10.8,2.5-14.8C481.2,253.2,489.9,241.4,499.9,229.5L499.9,229.5z M454.7,306.2c-7.6,8.9-11.3,3.3-13.7-2.7
	c-1-2.7-2.1-7.3,4.3-7.6C452.3,295.7,457.4,296.5,454.7,306.2z"/>
</svg>
