<?xml version="1.0" encoding="utf-8"?>
<!-- Generator: Adobe Illustrator 26.3.1, SVG Export Plug-In . SVG Version: 6.00 Build 0)  -->
<svg version="1.1" id="Layer_1" xmlns="http://www.w3.org/2000/svg" xmlns:xlink="http://www.w3.org/1999/xlink" x="0px" y="0px"
	 viewBox="0 0 700 700" style="enable-background:new 0 0 700 700;" xml:space="preserve">
<style type="text/css">
	.st0{fill:#D7DDFD;}
</style>
<path class="st0" d="M188,592.9c-29.5-20-58.5-38.2-81.6-64C88.3,508.6,69.2,489,50.6,469c-12-12.9-13.4-22-0.6-32.8
	c23.5-19.7,40.4-44.6,59.4-67.9c25.8-31.6,50.8-63.9,76.5-95.6c19.2-23.7,40.1-46.1,58.3-70.5c28.1-37.6,63.3-69.6,87.7-110.2
	c6.4-10.6,10.8-10.8,23.7-5.1c3.3,1.5,6.7,2.4,9.9,4.1c6.9,3.7,14.3,11.6,20.1,10.5c6.8-1.3,12.5-10.1,18.1-16.1
	c9.8-10.6,19.2-21.6,28.7-32.4c2.5-2.9,4.6-1.8,8.2-1.5c10.9,0.9,18.8,7,25.6,12.9c16.4,14.2,34.5,27.3,43.2,48.7
	c2.8,7,4.2,12.2-1.1,18.6c-9.1,10.9-16.9,22.8-26.2,33.4c-4.8,5.4-6.7,8.9-0.1,13.6c9,6.3,17.9,12.7,26.8,19.1
	c5.5,4,11.2,7.7,16.1,12.3c12,11.5,23.8,23.2,35.3,35.2c15.9,16.7,35.9,27.4,55,39.6c12.8,8.2,25.2,16.9,37.5,25.9
	c6,4.4,8.9,8.9,3.1,17.4c-29.3,42.4-57.2,85.6-86.4,128c-8.1,11.8-19.1,21.6-28.4,32.7c-17.9,21.4-35.2,43.4-53.3,64.7
	c-12.7,14.9-26.4,28.9-39.4,43.5c-6.2,6.9-11.6,14.6-17.9,21.4c-2.3,2.5-5.9,4.1-9.2,5.5c-23.6,10.4-46.9,20.2-73.4,23.7
	c-27.2,3.6-51.1-2.6-75-12.5C244,623.5,215.7,610.7,188,592.9 M599.1,372.9c8.4-13.3,16.7-26.5,25.1-39.8
	c7.1-11.2,7.1-11.1-3.6-18.1c-17.7-11.6-35.6-22.9-53.1-34.8c-8.6-5.9-16.8-12.5-24.8-19.3c-21.4-17.9-46.5-21.6-73.1-19.2
	c-25.9,2.3-50.3,10.2-68.9,28.9c-19.9,20-37.5,42.2-56.2,63.3c-3,3.4-6.3,6.4-9.5,9.6c-19,19-37.6,38.5-57.2,56.9
	c-13.1,12.3-27.4,23.3-41.9,34c-3.9,2.9-11.2,4.9-15.2,3.2c-4.3-1.8-8.9-8.3-9.1-12.9c-0.3-9,0.7-18.8,4-27
	c9.9-24.3,14.8-49.4,19.2-75.1c2.2-13,6-26.6,15.7-37.8c14.5-16.7,29.4-33.7,40.7-52.6c15.9-26.5,34.7-50.5,54.8-73.8
	c8.2-9.5,13.9-21.1,20.6-31.9c1.2-2,3.1-5.8,2.5-6.3c-5-4.5-10.2-9.2-16.2-12c-1.7-0.8-6.2,4.2-9.3,6.7c-1.5,1.2-2.9,2.6-4.1,4.1
	c-17.8,21.6-35.3,43.3-53.3,64.7c-10.1,12-21.5,23-31.2,35.4c-15.1,19.3-28.6,39.8-43.9,58.8c-25.4,31.5-51.8,62.1-77.5,93.4
	c-7,8.5-12.4,18.1-19.3,26.7c-12.9,16-25,33-40,46.7c-7.2,6.6-8.1,8.8-2.2,15.2c17.4,18.5,34.7,37,51.8,55.7
	c20.7,22.6,45.9,39.2,71.2,56.2c26.5,17.8,54.5,22.9,83.7,12.8c18.5-6.4,39.9-11.6,48.3-34.1c0.8-2,8-4.1,9.8-2.8
	c4.8,3.5,10,7.2,9.3,15.3c-1.4,17.5,7.8,29.7,22.1,38.7c14.3,9,34,9.8,44.3-0.5c20.6-20.7,40.8-41.9,60-63.8
	c17.2-19.5,32.7-40.5,49.3-60.5c10-12.1,22-22.8,31-35.5C568.8,419.8,582.7,397.1,599.1,372.9 M355.9,288c4.1-4.1,8.6-7.8,12.2-12.3
	c14.2-17.8,28.1-35.8,42.3-53.7c15.8-19.8,32.1-39.2,47.2-59.5c3-4.1,8.5-10.5-0.6-17.4c-11.2-8.4-20.1-19.7-30.3-29.5
	c-7.9-7.6-14.7-7.9-22.2,0.5c-9.3,10.6-17.4,22.2-26,33.4c-17.2,22.4-34.7,44.6-51.6,67.2c-13.1,17.5-25.7,35.4-37.8,53.7
	c-1.5,2.3-7.7,7.3-0.6,11.8c12.7,8.1,25.1,16.8,37.9,24.8c3.2,2,9.4,4.1,11,2.6C343.6,303.9,348.6,296.6,355.9,288 M296.1,602.6
	c-6.9,1.9-13.8,3.8-20.7,5.8c-2,0.6-4,1.5-5.9,2.3c1.8,1.8,3.4,4.6,5.5,5.2c26.7,7.7,53.6,14.3,81.7,11.6c1.8-0.2,3.3-2.4,5-3.7
	c-1-1.3-1.8-3.3-3.1-3.7c-13.6-4.6-22.2-14.1-28.1-26.9c-1-2.2-7.2-4-9.9-3.1C312.8,592.8,305.5,597,296.1,602.6 M269.1,340.1
	c-1.8-1.8-3.4-3.9-5.5-5.4c-2.4-1.7-5.2-2.9-7.8-4.3c-0.7,2.9-1.5,5.7-2.1,8.6c-2.6,12.4-4.8,24.9-7.9,37.2
	c-1.9,7.4-5.2,14.5-7.5,21.9c-0.4,1.4,0.3,4.1,1.4,5c1,0.8,4.2,0.7,4.9-0.2c13-17.3,30.7-29.3,48.2-41.2c6-4.1,0.4-5.1-0.6-5.8
	C285.3,350.9,278.1,346.5,269.1,340.1 M483.3,110.4c-10-10-20.2-19.8-29.9-30.1c-6.2-6.5-10.9-5.8-17.5-0.1
	c-7.6,6.6-3.6,10.2,1.4,15c11.1,10.7,22.6,21.2,32.6,32.9c7.2,8.5,10.6,4,16.6-1.1C493.8,120.7,483.1,117.3,483.3,110.4
	 M313.5,322.7c-11.9-8.1-23.7-16.3-35.9-24c-2.2-1.4-6.6-1.4-8.9-0.1c-1.7,0.9-3.3,6.3-2.4,7.3c11.8,12.6,23.2,26,40.1,31.9
	c3,1,8.1-1.9,11.2-4.3C318.5,332.7,316.2,327.7,313.5,322.7L313.5,322.7z M98.3,317.9c6.9-5.7,12.6-3.3,15,2.1
	c1.4,3.3-0.7,9.5-3.3,12.8c-8.9,11.2-18.4,22.1-28.5,32.3c-3.1,3.1-5.4,12-13.1,5.8c-5.7-4.6-5.6-12.6,0.5-19.7
	C78.2,340.4,87.8,329.6,98.3,317.9L98.3,317.9z M619.4,238.7c7.2,5.9,14.1,10.3,19.4,16c2.7,3,4.8,9.4,3.4,12.6
	c-2.3,5.3-7.8,7.7-14,3.3c-12.8-9.1-25.7-17.9-38.5-27c-4.8-3.4-6-8.2-2.7-13c3.6-5.2,8.3-6.8,14.4-2.5
	C606.7,232,612.7,234.7,619.4,238.7L619.4,238.7z M499.7,404.7c2.3,2.4,4.8,3.9,4.6,5.1c-0.6,4.5-0.8,9.8-3.4,13
	c-4.8,6-10.8,1.4-15.1-1.4c-10.7-7.1-20.6-15.4-31-22.9c-15.8-11.3-31.9-22.1-47.7-33.5c-4.6-3.3-9.3-7-12.3-11.6
	c-1.8-2.8-1.6-8.4,0.1-11.4c2.7-5.1,7.8-5.7,12.9-2.2c26.3,18.6,52.6,37.2,78.9,55.7C490.7,398.4,494.8,401.1,499.7,404.7
	L499.7,404.7z M217.9,505.1c-22.8-15.7-46-28.4-63.9-48.3c-4.9-5.5-7.7-10.2-1.2-15.9c5.4-4.7,10.1-3.1,14.5,1.9
	c14.3,16.5,34.3,25.3,51.4,38.1c3.4,2.6,6.6,5.6,10.2,7.9c6.6,4.2,6.6,11.1,4.8,16.7C233.2,507.2,224,506,217.9,505.1L217.9,505.1z
	 M532.5,356.5c1.6,5.2,3.5,9.7,2.6,13.6c-1.5,6.6-9.2,8.7-15.1,4.8c-14.7-9.7-29.5-19-43.8-29.3c-3.4-2.4-6.6-8.3-6.1-12.2
	c0.9-6.7,7.8-8.9,13.3-6.6c8.8,3.6,17,8.8,25.2,13.7C516.6,345.3,524,350.5,532.5,356.5L532.5,356.5z M451.5,501.2
	c2.8-4,4.1-9.3,6.4-9.8c5.3-1.2,11.9-1.5,16.7,0.6c8,3.6,0.7,9.2-1.2,12c-7.8,11-16.4,21.6-25.8,31.3c-2.3,2.4-9.1,2.6-12.6,1
	c-5.1-2.4-5.8-7.9-2-12.7C438.7,516.4,444.7,509.3,451.5,501.2L451.5,501.2z M412.9,543.7c7.4-8,13.9-5.9,17.7,0.8
	c3,5.3,0.1,11.1-6,13.5C418,560.7,414.2,556.5,412.9,543.7L412.9,543.7z M373.3,230.1c1.6-18.2,13.8-27.4,24.4-37.3
	c1.8-1.6,8.8-0.2,11,2.1c2.2,2.3,3.3,8.8,1.7,11.1c-7.3,9.9-16,18.8-23.8,28.3C380.5,241.6,377.2,235.8,373.3,230.1L373.3,230.1z
	 M354,245.5c2.9-2.6,7.3-4.7,8.4-3.6c3.1,3.1,4.8,7.6,7.1,11.5c-2.9,1.2-5.8,3-8.8,3.6C351.8,258.6,354.3,252,354,245.5z"/>
</svg>
