<?xml version="1.0" encoding="utf-8"?>
<!-- Generator: Adobe Illustrator 26.3.1, SVG Export Plug-In . SVG Version: 6.00 Build 0)  -->
<svg version="1.1" id="Layer_1" xmlns="http://www.w3.org/2000/svg" xmlns:xlink="http://www.w3.org/1999/xlink" x="0px" y="0px"
	 viewBox="0 0 700 700" style="enable-background:new 0 0 700 700;" xml:space="preserve">
<style type="text/css">
	.st0{fill:#E1E6F9;}
</style>
<path class="st0" d="M119.8,375.3c11.5-38.4,28.3-70,69.4-82.3c13-3.9,24.4-3.5,35.9,1.4c18.5,8,33.6,21.4,49.9,32.8
	c15,10.4,31.6,15.6,50.5,16.7c31.9,1.9,60.2-7,87.8-21c25.6-13.1,52-21.4,81.6-21c21.6,0.3,37.7,10.3,51.8,23.4
	c12.8,11.9,23.2,26.8,33.1,41.4c19.5,28.8,28,62.2,37,95.2c3,11.1,7.5,22.2,7.9,33.5c1.3,35.8-7.9,68.2-39,89.9
	c-24.5,17.1-51.1,31.2-80,39.1c-29.7,8.1-59.2,17.2-90.7,19.4c-16.5,1.2-33,3-49.6,3c-40.7-0.2-80.8-7-119.9-17.1
	c-40.9-10.6-80.8-25.4-118.7-44.5c-25-12.5-39.3-34.7-42.3-61.6c-1.6-14.8,4-30.6,7.6-45.6c6.3-26,13.5-51.7,20.3-77.6
	C114.8,392.4,116.8,384.4,119.8,375.3 M600.6,509.6c1.6-22.6-7.4-43.1-12-64.6c-9.3-43.4-32.5-78.6-63.5-108.7
	c-15.6-15.1-43.7-17.7-60.2-9.2c-31.6,16.3-61.5,35.4-84.3,62.8c-18.2,21.9-32.4,46.7-30.3,77.4c1.9,27.4-1.5,54.8,3.5,82.4
	c3.7,20.7,0.5,42.5,4.2,63.8c1.6,9.2,5,8.9,11.3,8.9c28.5,0,56.6-0.7,84.8-7.8c38.4-9.6,76.8-18.9,109.6-41.8
	C583.8,558.9,603.5,542.8,600.6,509.6 M229.5,601.9c19.8,4.8,39.6,10,59.6,14.3c12.7,2.7,25.6,4.5,38.4,6.1c5.3,0.6,9.4-1,8.5-8.3
	c-3.4-29.8-7.9-59.5-6-89.7c2.2-35.8-5.2-70.3-16.9-103.6c-7.7-22.2-15.6-45.3-34.9-61.3c-14.7-12.1-28.5-25.9-44.6-35.8
	c-23-14.2-48.1-13.5-65.6,7.1c-18.4,21.7-27.9,47.2-34.6,73.8c-7.9,31.7-11.6,64.6-21.4,95.7c-9.1,28.7-0.6,53.1,30.6,67.3
	C170,580.2,199.1,589.2,229.5,601.9L229.5,601.9z M406.9,65.7c38.3,18.6,52.5,51,58.5,89.2c6,38.4-7.9,70.5-28.5,101.7
	c-15.5,23.5-38.1,34.1-63.1,41.6c-9.9,3-20.6,3.8-31,4.2c-36.4,1.6-61.9-18.1-82.2-45.2c-8.6-11.5-16.6-23.4-21.7-38
	c-12.5-35.6-7.9-69.7,5.9-102c7.1-16.6,21.4-31.2,38.7-41.1c23.2-13.3,46.8-24.3,74.2-23.6C374.6,53,390.5,58,406.9,65.7
	 M373.1,273.8c11.9,0.6,21.4-6.2,29.1-13.2c28.7-26.3,45.8-58.7,42.3-98.6c-2-22.6-9.8-43.6-26.3-60.6c-7.1-7.3-13.7-1.9-13.7,2.3
	c-0.1,10.7-8.2,16.1-12.5,23.6c-9.2,16.3-19.5,31.7-36.8,41.9c-19.8,11.7-38.5,24.5-43.5,50.6c-4.7,24.4-4.1,44.7,22.5,55.2
	C344.9,279.3,358.7,275.8,373.1,273.8 M276.7,120c-12.2,12.2-11.5,29.4-16,44.3c-3.4,11.5,6.1,18.8,18.4,14.5
	c17.2-5.9,34.4-12.3,50.8-20.1c27.2-12.9,43.4-36.8,56.5-62.6c4.4-8.7-1.4-18.8-11.5-18.9c-23.4-0.3-48-5-68.3,12.1
	C296.3,97.9,286.6,107.1,276.7,120L276.7,120z M130.1,629.6c-17.1-11.6-33.3-22-49.2-32.9c-6.4-4.4-8.7-10.6-1.6-16.7
	c5.6-4.8,10.2-2.7,15.6,1.8c8.9,7.4,18.9,13.5,28.4,20.2c3.7,2.6,7.9,4.5,11.1,7.6C145.1,619.8,144.8,621.3,130.1,629.6L130.1,629.6
	z M604.7,323c-6.3,9.7-11.7,10.9-17.9,4.4c-11.5-12-22.1-24.8-33.3-37.1c-5.3-5.8-0.3-10.1,3.1-10.9c5.1-1.1,12.7-1.1,16.2,1.9
	C585.5,292.8,598.6,304.2,604.7,323L604.7,323z M211.1,134.4c0.9,9.1-0.3,12.7-9.3,12.7c-9.2,0-10.5-9-10.1-11
	c2.7-12.9,7.1-25.5,11.4-38.1c1-2.9,2.9-6.5,5.4-7.8c4.2-2.2,10.2-5.1,13.6-3.7c5.7,2.4,7.6,8,3.7,15
	C220.1,111.5,215.9,122.1,211.1,134.4L211.1,134.4z M498.1,134.4c8.2,1.2,14.7,2.8,11.1,11.2c-2.4,5.6-5.6,11.3-14,9.4
	c-7.4-1.7-9.3-5.3-5.2-12.9C491.5,139.2,494,136.9,498.1,134.4L498.1,134.4z M182.4,626.5c6.9,4.1,11.3,8.8,7,15.3
	c-3.6,5.4-8.8,8.1-15.2,3.2c-6-4.5-5-8.6,0.4-12.8C176.7,630.5,178.4,628.4,182.4,626.5L182.4,626.5z M484.8,100.6
	c-3.1,2.4-5.1,4.5-7.4,5c-6.1,1.4-11.7-2.3-11.5-7.4c0.2-4.2,5.7-8.1,8.9-12.2c3.2,3.7,12,1,11.1,9.6
	C485.7,96.9,485.8,98.2,484.8,100.6L484.8,100.6z M600.6,351.7c4.2-6.1,8-12.4,14.3-4.3c5,6.5,2.7,12.2-3.1,15.2
	C603.6,366.9,601.9,360,600.6,351.7z M390.5,559.9c-7.9,2.5-12.5-0.3-13.1-7.2c-0.3-3.6,0.7-9.3,3-10.7c3.5-2,9-2,13.2-1
	c2.4,0.6,6.2,5.5,5.6,7.1C397.8,552,394.2,555.3,390.5,559.9L390.5,559.9z M392.5,492.2c-7.2,5.9-12.4,3.4-16.1-2
	c-3.3-4.9-2.2-10.6,3.2-13.4c2.3-1.2,7.3,0,9.3,2C392.2,481.8,399.6,484.4,392.5,492.2z M375.1,437.9c2.4-2.7,4.9-4.3,7.1-3.9
	c3.2,0.5,6.2,2.4,9.3,3.7c-1.8,3.9-3,8.4-5.8,11.4c-0.8,0.9-6.3-2-9.2-3.9C375.4,444.4,375.6,441.7,375.1,437.9L375.1,437.9z
	 M289,446.1c0.6,26.5-0.2,50.8-8.2,74.3c-4.6,13.4-11.6,20.1-25.2,19.8c-24-0.6-48-2-71.9-4.1c-12.2-1-20.3-10.4-21.5-25.3
	c-0.7-8.2,2-16.7,3.1-25.1c1.6-12.3,3-24.6,4.8-36.9c0.9-6.3,2.2-12.7,4.1-18.7c6.2-19.5,8.3-20.8,28-20.9
	c24.3-0.1,47.8,3.3,70.6,12.2C286.6,426.7,288.2,427.9,289,446.1 M264.4,497.3c0-4.8-1.8-10.6,0.3-14.1c6.4-10.8,2.8-22.2,3.7-33.3
	c0.3-3.8,0.2-6.1-5.3-8.4c-18.9-7.9-38-13.1-58.6-11.6c-3.4,0.3-9.1,3.4-9.4,5.9c-3.2,23.4-11.8,46.2-8.4,70.2
	c0.5,3.6,4.7,8.9,7.9,9.5c12.9,2.3,26.1,2.9,39.2,4.6C249.2,521.9,260,517.2,264.4,497.3L264.4,497.3z M242.9,389.7
	c1,2.4,1.6,4.2,0.9,5c-4.4,5.4-9.6,10.2-16.3,3.8c-2-1.9-3.3-7.5-2-9.3C230.2,382.3,236.2,382.4,242.9,389.7L242.9,389.7z"/>
</svg>
