<svg width="202" height="202" viewBox="0 0 202 202" fill="none" xmlns="http://www.w3.org/2000/svg">
<path d="M128.614 164.017H72.9999C71.901 164.017 71.0156 163.127 71.0156 162.033V139.438L50.6814 130.524C46.7289 128.791 44.4618 124.609 45.1606 120.352L50.8894 85.6213C51.3748 82.6769 53.0071 80.1325 55.4768 78.4629C57.9518 76.7932 60.9176 76.2279 63.83 76.8732C69.5055 78.1321 73.1861 83.7969 72.0392 89.4938L67.2385 113.369L76.2692 111.299C84.4678 109.422 92.4904 108.509 100.801 108.509C109.186 108.509 117.534 109.448 125.621 111.299L134.652 113.369L129.851 89.4938C128.704 83.7969 132.39 78.1375 138.06 76.8732C140.973 76.2278 143.944 76.7879 146.414 78.4629C148.889 80.1325 150.515 82.6768 151.001 85.6213L156.719 120.33C157.423 124.603 155.14 128.796 151.166 130.519L130.593 139.448V162.038C130.598 163.126 129.708 164.017 128.614 164.017ZM74.9854 160.044H126.624V138.136C126.624 137.347 127.094 136.627 127.819 136.312L149.593 126.865C151.892 125.868 153.215 123.441 152.809 120.966L147.091 86.2565C146.787 84.4002 145.758 82.7946 144.2 81.7385C142.642 80.6824 140.77 80.3304 138.93 80.7357C135.351 81.5305 133.03 85.099 133.75 88.6942L139.159 115.583C139.292 116.244 139.079 116.927 138.599 117.397C138.114 117.866 137.426 118.058 136.769 117.909L124.741 115.151C116.948 113.364 108.898 112.462 100.813 112.462C92.8009 112.462 85.0722 113.343 77.1671 115.151L65.1387 117.909C64.4826 118.058 63.7945 117.866 63.3091 117.397C62.8238 116.927 62.6157 116.244 62.749 115.583L68.1578 88.6942C68.8779 85.099 66.5575 81.5304 62.9783 80.7357C61.138 80.325 59.2712 80.6823 57.7082 81.7385C56.1506 82.7947 55.1212 84.3949 54.8171 86.2565L49.0829 120.997C48.6775 123.462 49.9897 125.883 52.278 126.886L73.7961 136.322C74.5162 136.637 74.9856 137.352 74.9856 138.141L74.9854 160.044Z" fill="#409F97"/>
<path d="M100.806 112.479C88.7566 112.479 78.9578 102.681 78.9578 90.6308C78.9578 78.581 88.7566 68.7822 100.806 68.7822C112.856 68.7822 122.655 78.581 122.655 90.6308C122.655 102.675 112.851 112.479 100.806 112.479ZM100.806 72.7505C90.9488 72.7505 82.9315 80.7677 82.9315 90.6253C82.9315 100.483 90.9487 108.5 100.806 108.5C110.664 108.5 118.681 100.483 118.681 90.6253C118.681 80.7733 110.659 72.7505 100.806 72.7505Z" fill="#409F97"/>
<path d="M97.9632 62.8229C97.5258 62.8229 97.0884 62.6789 96.7257 62.3855C95.8669 61.7027 95.7282 60.4492 96.4163 59.5957L101.782 52.8906H95.9789C95.2482 52.8906 94.5761 52.4852 94.2294 51.8398C93.8827 51.1944 93.92 50.4102 94.3254 49.8022L102.268 37.8857C102.876 36.9735 104.108 36.7229 105.02 37.3363C105.932 37.9444 106.178 39.1766 105.57 40.0886L99.6862 48.9166H105.911C106.674 48.9166 107.373 49.354 107.703 50.0421C108.034 50.7302 107.943 51.5463 107.463 52.1438L99.5208 62.0759C99.1261 62.5666 98.5446 62.8229 97.9632 62.8229Z" fill="#409F97"/>
<path d="M121.801 70.7668C121.364 70.7668 120.927 70.6228 120.564 70.3294C119.705 69.6467 119.566 68.3931 120.255 67.5396L125.621 60.8346H119.812C119.081 60.8346 118.409 60.4292 118.062 59.7838C117.716 59.1383 117.753 58.3542 118.158 57.7461L126.101 45.8296C126.709 44.9175 127.941 44.6721 128.853 45.2802C129.765 45.8883 130.011 47.1206 129.403 48.0326L123.519 56.8605L129.744 56.8658C130.507 56.8658 131.206 57.3032 131.536 57.9913C131.867 58.6795 131.776 59.4956 131.296 60.093L123.354 70.0251C122.959 70.5105 122.383 70.7668 121.801 70.7668Z" fill="#409F97"/>
<path d="M80.0897 70.7666C79.5082 70.7666 78.9321 70.5105 78.5375 70.0198L70.5949 60.0877C70.1202 59.4903 70.0242 58.6741 70.3549 57.986C70.6856 57.2979 71.3791 56.8605 72.1472 56.8605H78.3668L72.4832 48.0326C71.8751 47.1205 72.1205 45.8883 73.0326 45.2802C73.9448 44.6721 75.1769 44.9175 75.785 45.8296L83.7275 57.7461C84.1329 58.3542 84.1703 59.1383 83.8235 59.7838C83.4768 60.4292 82.8047 60.8346 82.074 60.8346H76.2758L81.6366 67.5396C82.3194 68.3984 82.1807 69.6467 81.3273 70.3294C80.9645 70.6228 80.527 70.7666 80.0897 70.7666Z" fill="#409F97"/>
</svg>
